<svg width="98" height="81" viewBox="0 0 98 81" fill="none" xmlns="http://www.w3.org/2000/svg">
<path fill-rule="evenodd" clip-rule="evenodd" d="M30.4992 28.5701C29.623 28.7365 28.7187 28.8235 27.7941 28.8235C26.905 28.8235 26.0347 28.743 25.19 28.5889L13.8007 64.3598L13.6997 64.3277C15.9949 65.905 17.5 68.5488 17.5 71.5441C17.5 76.3766 13.5825 80.2941 8.75 80.2941C3.91751 80.2941 0 76.3766 0 71.5441C0 66.7116 3.91751 62.7941 8.75 62.7941C8.79915 62.7941 8.84821 62.7945 8.89717 62.7954L20.3688 26.766C16.1824 24.2444 13.3823 19.6551 13.3823 14.4118C13.3823 6.45237 19.8347 0 27.7941 0C35.7535 0 42.2059 6.45237 42.2059 14.4118C42.2059 19.6168 39.4466 24.1773 35.311 26.7104L44.8792 47.2571C44.9826 47.2524 45.0866 47.25 45.1912 47.25C46.3276 47.25 47.3978 47.5333 48.3351 48.0331L60.8 36.0319C58.8672 32.9415 57.75 29.2887 57.75 25.375C57.75 14.2603 66.7603 5.25 77.875 5.25C88.9897 5.25 98 14.2603 98 25.375C98 36.4897 88.9897 45.5 77.875 45.5C72.5335 45.5 67.678 43.419 64.0751 40.0236L51.6053 52.0295C51.7856 52.6352 51.8824 53.2769 51.8824 53.9412C51.8824 57.6366 48.8866 60.6324 45.1912 60.6324C41.4957 60.6324 38.5 57.6366 38.5 53.9412C38.5 52.2158 39.1531 50.6429 40.2255 49.4562L30.4992 28.5701Z" fill="url(#paint0_linear)"/>
<defs>
<linearGradient id="paint0_linear" x1="82.25" y1="-9.625" x2="-21" y2="73.5" gradientUnits="userSpaceOnUse">
<stop stop-color="#FFC700"/>
<stop offset="1" stop-color="#ED55CB"/>
</linearGradient>
</defs>
</svg>
