<?xml version="1.0" standalone="no"?>
<!DOCTYPE svg PUBLIC "-//W3C//DTD SVG 20010904//EN"
 "http://www.w3.org/TR/2001/REC-SVG-20010904/DTD/svg10.dtd">
<svg version="1.0" xmlns="http://www.w3.org/2000/svg"
 width="364.000000pt" height="364.000000pt" viewBox="0 0 364.000000 364.000000"
 preserveAspectRatio="xMidYMid meet">
<metadata>
Created by potrace 1.11, written by Peter Selinger 2001-2013
</metadata>
<g transform="translate(0.000000,364.000000) scale(0.100000,-0.100000)"
fill="#000000" stroke="none">
<path d="M1668 3445 c-2 -2 -30 -6 -62 -10 -33 -3 -62 -8 -65 -10 -3 -1 -24
-6 -46 -9 -22 -4 -48 -9 -57 -12 -9 -3 -25 -7 -36 -9 -57 -11 -218 -72 -306
-116 -335 -170 -598 -441 -753 -776 -37 -80 -99 -259 -108 -313 -3 -19 -10
-53 -15 -75 -5 -22 -12 -67 -15 -100 -4 -33 -8 -61 -9 -62 0 -1 -22 -4 -47 -7
-24 -3 -64 -8 -87 -12 l-43 -7 7 -46 c4 -25 8 -53 9 -61 5 -30 14 -96 20 -140
3 -25 7 -54 9 -66 4 -19 8 -50 21 -154 4 -31 15 -109 31 -208 5 -30 8 -33 32
-28 15 3 49 8 76 11 27 3 53 7 58 8 11 2 8 9 87 -153 179 -364 500 -654 881
-795 41 -15 84 -31 95 -35 33 -14 114 -31 230 -50 82 -14 151 -17 275 -15 91
1 175 5 186 8 12 3 39 8 60 11 201 32 434 123 612 239 347 228 603 592 698
995 17 70 20 86 29 167 9 80 -2 72 135 91 25 3 47 7 49 10 2 2 -1 36 -8 76
-13 85 -19 129 -25 178 -14 108 -18 140 -26 190 -6 30 -12 73 -15 95 -4 36
-10 76 -19 140 -2 14 -10 20 -27 19 -49 -3 -143 -15 -150 -19 -4 -3 -10 7 -14
22 -9 38 -94 207 -140 279 -121 190 -301 371 -489 491 -144 93 -386 197 -505
218 -19 3 -37 7 -40 9 -3 2 -26 7 -51 10 -25 3 -56 9 -70 12 -26 7 -366 15
-372 9z m419 -89 c162 -30 282 -70 428 -142 360 -179 646 -504 778 -885 5 -16
21 -16 129 4 30 6 37 0 43 -36 14 -84 14 -85 -13 -103 -15 -10 -34 -27 -44
-38 -17 -21 -40 -95 -33 -106 2 -4 6 -20 9 -36 6 -34 76 -104 105 -104 24 0
33 -13 39 -59 10 -81 14 -75 -65 -86 -39 -5 -75 -13 -79 -17 -4 -4 -8 -24 -9
-43 -7 -103 -39 -267 -71 -363 -168 -502 -562 -882 -1063 -1023 -41 -11 -86
-23 -100 -25 -14 -3 -53 -10 -86 -16 -76 -14 -343 -19 -415 -7 -30 5 -73 11
-94 15 -139 20 -345 95 -491 177 -212 120 -404 301 -538 507 -73 113 -108 184
-167 336 -8 21 -11 21 -85 9 -42 -6 -78 -9 -80 -6 -2 4 -6 26 -10 51 -4 25 -9
48 -11 52 -2 4 1 11 8 17 76 62 97 97 92 159 -4 67 -67 142 -117 142 -21 0
-26 11 -33 62 -3 24 -7 48 -9 55 -5 16 1 20 60 27 100 13 101 13 103 68 1 24
11 94 22 156 79 442 351 835 736 1062 100 59 271 137 315 144 8 1 19 5 25 8 6
4 21 9 35 12 13 3 35 8 49 11 14 3 36 8 50 11 14 2 35 6 47 9 13 3 49 8 80 11
32 4 60 8 62 10 11 10 324 -6 398 -20z"/>
<path d="M1877 3257 c-2 -7 -5 -45 -6 -86 -1 -41 -4 -78 -7 -83 -6 -9 24 -23
32 -15 3 2 7 45 10 95 4 72 2 91 -10 95 -8 3 -16 0 -19 -6z"/>
<path d="M1560 3240 c-12 -8 -12 -20 6 -142 l7 -48 41 4 c23 3 53 9 67 15 47
18 59 100 21 150 -16 22 -28 26 -74 27 -30 1 -61 -2 -68 -6z m112 -37 c26 -23
25 -89 -3 -103 -28 -16 -58 -20 -64 -11 -2 5 -7 33 -11 62 -3 30 -8 57 -11 62
-9 15 71 7 89 -10z"/>
<path d="M2061 3155 c-25 -100 -25 -105 -6 -105 8 0 19 17 26 43 23 87 25 87
49 9 20 -66 41 -95 56 -79 8 7 44 148 44 170 0 23 -35 19 -36 -3 -2 -39 -17
-99 -24 -95 -5 3 -16 31 -26 63 -34 111 -54 110 -83 -3z"/>
<path d="M1288 3088 c-4 -103 0 -128 18 -128 9 0 14 11 14 31 0 25 6 32 36 45
33 14 36 14 53 -7 13 -16 22 -19 34 -13 14 8 6 21 -49 82 -89 97 -102 96 -106
-10z m69 1 c11 -13 9 -18 -12 -27 -24 -11 -25 -11 -25 29 0 42 3 42 37 -2z"/>
<path d="M2392 3104 c-28 -19 -52 -65 -52 -99 0 -35 50 -85 84 -85 14 0 26 -4
26 -10 0 -26 28 -6 44 31 20 44 20 43 -27 70 -29 17 -43 -2 -16 -23 23 -18 24
-19 5 -33 -17 -13 -23 -13 -50 3 -25 15 -31 24 -29 47 3 38 34 79 62 83 26 4
61 -24 61 -48 0 -10 7 -20 15 -24 11 -4 15 2 15 22 -1 65 -83 105 -138 66z"/>
<path d="M1015 3018 c-25 -16 -47 -34 -50 -39 -7 -10 91 -159 105 -159 20 0
20 22 0 51 -12 16 -21 31 -19 33 22 16 55 36 61 36 4 0 19 -12 32 -27 21 -22
28 -25 38 -15 11 11 6 19 -22 44 -19 18 -36 41 -37 52 -9 54 -49 63 -108 24z
m70 -38 c0 -17 -9 -29 -28 -38 -25 -12 -30 -12 -42 5 -19 25 -19 26 13 46 36
22 57 18 57 -13z"/>
<path d="M1757 2965 c-1 -2 -31 -5 -67 -9 -121 -11 -290 -64 -405 -126 -192
-103 -355 -264 -463 -457 -55 -99 -59 -113 -30 -113 50 0 67 12 97 70 158 296
481 513 816 548 317 32 607 -66 847 -288 69 -63 81 -70 113 -68 20 1 39 6 41
10 3 4 -14 29 -38 55 -174 191 -400 316 -652 359 -73 13 -250 25 -259 19z"/>
<path d="M774 2815 c-33 -37 -47 -58 -40 -65 7 -7 17 -3 33 12 l23 21 57 -56
c46 -45 60 -54 71 -44 12 9 4 21 -46 68 l-61 56 20 22 c18 19 19 41 1 41 -4 0
-30 -25 -58 -55z"/>
<path d="M1787 2824 c-1 -1 -33 -5 -72 -8 -220 -20 -433 -124 -601 -290 -73
-72 -174 -210 -174 -236 0 -25 21 -4 69 70 95 147 250 280 405 350 70 31 181
67 237 75 66 11 265 13 314 4 28 -5 62 -12 77 -14 47 -9 170 -56 238 -92 70
-37 154 -97 210 -150 34 -32 50 -40 50 -25 -1 27 -155 147 -255 199 -84 43
-206 88 -265 97 -72 11 -227 25 -233 20z"/>
<path d="M2744 2786 c-13 -22 -14 -29 -2 -53 25 -52 108 -35 108 22 0 53 -77
75 -106 31z m80 -18 c15 -24 -19 -61 -44 -48 -24 13 -33 40 -19 57 15 18 49
13 63 -9z"/>
<path d="M1685 2645 c-4 -30 -11 -58 -16 -61 -5 -2 -31 -8 -59 -11 -27 -3 -50
-9 -50 -13 0 -3 22 -17 50 -30 54 -25 53 -21 34 -112 -7 -37 3 -35 48 9 l38
37 56 -27 c31 -15 54 -24 52 -20 -2 4 -14 30 -27 57 l-24 48 41 39 c23 21 42
41 42 44 0 6 -70 -2 -101 -11 -11 -3 -22 11 -39 47 -13 27 -27 52 -31 55 -4 2
-11 -21 -14 -51z m45 -72 c0 -16 10 -16 47 -2 l28 10 -23 -23 c-25 -27 -28
-48 -10 -66 9 -9 9 -12 -3 -12 -8 0 -20 5 -27 12 -9 9 -17 6 -36 -11 l-25 -24
5 35 c6 32 4 36 -21 42 -31 8 -29 14 5 21 28 5 39 21 34 49 -3 21 -3 21 11 2
8 -11 15 -26 15 -33z"/>
<path d="M604 2502 c-13 -8 -34 -46 -34 -61 0 -6 10 -19 22 -30 35 -33 97 -7
98 42 0 37 -56 70 -86 49z m56 -31 c20 -38 -7 -65 -48 -50 -19 7 -22 14 -16
31 12 41 47 51 64 19z"/>
<path d="M2990 2355 c-56 -9 -65 -13 -63 -30 2 -20 21 -155 28 -205 2 -14 6
-45 10 -70 3 -25 8 -65 12 -90 3 -25 7 -54 9 -65 1 -11 3 -20 4 -20 1 0 3 -18
5 -40 2 -22 6 -52 9 -66 2 -15 7 -52 11 -83 4 -31 11 -58 14 -61 10 -6 138 13
178 26 63 20 89 95 69 199 -3 14 -7 45 -10 70 -3 25 -7 54 -10 65 -2 11 -7 45
-10 76 -4 31 -8 65 -10 75 -2 11 -7 44 -11 74 -10 75 -37 124 -78 143 -36 18
-55 18 -157 2z m125 -106 c4 -10 8 -29 10 -41 15 -93 27 -179 30 -210 2 -20 6
-45 8 -55 3 -10 9 -47 12 -83 4 -36 9 -68 11 -72 10 -16 -16 -56 -41 -60 -33
-7 -40 8 -50 92 -4 36 -8 72 -10 80 -6 34 -14 88 -20 135 -3 28 -8 59 -10 70
-2 11 -7 47 -10 80 -4 33 -8 64 -9 69 -1 11 44 24 61 18 7 -2 15 -12 18 -23z"/>
<path d="M2692 2313 c-18 -4 -21 -10 -18 -31 5 -34 17 -109 21 -142 2 -14 6
-44 10 -68 4 -23 8 -52 10 -65 11 -89 18 -145 21 -162 2 -11 6 -40 9 -65 21
-171 29 -205 44 -195 5 2 30 7 57 10 27 2 60 7 74 10 14 3 37 6 51 7 25 2 27
5 24 41 -2 22 -7 43 -12 47 -4 5 -28 5 -53 0 -62 -13 -77 -12 -77 3 0 12 -10
83 -17 127 -3 14 -7 48 -10 75 -3 28 -8 61 -10 75 -4 21 -23 151 -30 210 -17
129 -17 130 -45 129 -14 -1 -36 -4 -49 -6z"/>
<path d="M2477 2284 c-1 -1 -24 -5 -50 -8 -62 -7 -69 -12 -63 -44 3 -15 8 -52
12 -82 9 -75 8 -68 43 -315 42 -296 41 -288 44 -292 2 -1 23 1 48 5 53 9 51
-13 16 224 -14 93 -12 98 33 98 33 0 40 -18 55 -158 12 -105 32 -142 78 -142
46 0 57 10 44 40 -15 37 -22 68 -31 150 -12 99 -29 142 -63 154 -14 6 -14 9 3
27 23 26 23 102 -1 231 -15 79 -50 111 -121 113 -24 1 -45 1 -47 -1z m62 -100
c11 -10 23 -96 25 -169 1 -45 -1 -50 -26 -59 -15 -5 -30 -8 -33 -5 -2 3 -7 27
-10 55 -3 27 -8 60 -10 74 -16 94 -16 103 -3 111 15 10 45 6 57 -7z"/>
<path d="M2123 2230 c-52 -31 -67 -71 -59 -159 3 -42 8 -85 10 -96 2 -11 7
-42 10 -70 4 -27 9 -61 11 -75 2 -14 7 -43 9 -65 5 -40 14 -100 21 -143 6 -34
41 -87 67 -100 36 -19 90 -21 127 -6 76 32 99 97 78 219 -3 17 -11 67 -17 112
-6 46 -13 95 -15 110 -2 16 -6 42 -8 58 -3 17 -8 51 -12 78 -9 74 -26 107 -75
140 -33 23 -107 22 -147 -3z m106 -84 c6 -8 14 -31 16 -52 3 -20 7 -50 10 -66
7 -38 12 -73 20 -133 14 -108 16 -121 20 -145 21 -120 15 -150 -31 -150 -34 0
-41 18 -59 165 -3 21 -11 72 -25 170 -5 33 -12 85 -15 115 -4 30 -9 58 -11 61
-2 3 4 15 12 27 17 25 46 29 63 8z"/>
<path d="M1975 2211 c-16 -4 -29 -11 -28 -17 0 -5 4 -90 7 -189 4 -99 9 -197
11 -217 2 -21 -1 -41 -7 -44 -6 -4 -8 -3 -5 2 3 5 -19 108 -49 229 -30 120
-54 220 -54 220 0 6 -66 -10 -71 -16 -3 -5 -4 -32 -3 -61 7 -151 13 -400 9
-396 -4 4 -53 215 -84 363 l-17 80 -44 -3 c-24 -2 -46 -5 -49 -7 -2 -3 6 -42
18 -87 12 -46 24 -90 26 -99 2 -9 29 -115 61 -235 31 -121 59 -230 62 -244 2
-14 8 -30 13 -36 11 -13 79 -5 80 10 0 6 1 101 0 211 0 189 1 197 14 150 8
-27 16 -61 19 -75 2 -14 19 -83 38 -153 l33 -128 35 5 c19 3 38 5 42 6 5 0 4
696 -1 733 -1 8 -13 8 -56 -2z"/>
<path d="M914 2062 l-91 -14 9 -51 c4 -29 10 -74 13 -102 3 -27 12 -90 20
-140 21 -139 27 -177 31 -224 2 -24 6 -51 8 -60 3 -9 8 -38 11 -66 9 -80 11
-84 48 -75 18 3 35 7 40 8 4 0 36 3 71 7 35 4 68 10 73 14 7 3 8 22 4 46 -7
44 -10 45 -97 31 -38 -6 -42 -4 -47 16 -11 48 -30 209 -25 214 5 5 44 12 76
13 8 1 11 11 8 29 -2 15 -5 35 -5 45 -1 15 -7 17 -51 11 -44 -6 -50 -4 -51 12
0 11 -2 26 -3 34 -2 8 -7 42 -11 74 -4 33 -9 65 -12 72 -5 14 12 20 82 29 27
3 51 8 53 9 1 2 0 22 -4 45 -8 47 1 46 -150 23z"/>
<path d="M779 2046 c-2 -3 -18 -6 -34 -9 -35 -4 -33 14 -21 -287 6 -149 3
-189 -9 -131 -3 11 -7 30 -10 41 -3 11 -7 30 -10 43 -3 12 -21 89 -41 170
l-37 149 -30 -6 c-16 -3 -33 -6 -37 -6 -7 0 -4 -244 4 -387 1 -29 0 -53 -4
-53 -5 0 -32 109 -67 270 -2 14 -6 30 -7 35 -2 6 -6 28 -11 50 -11 56 -22 74
-42 70 -10 -2 -30 -6 -44 -9 l-26 -6 28 -102 c15 -57 28 -104 28 -105 1 -2 1
-4 2 -5 0 -2 2 -11 4 -20 3 -15 52 -208 103 -403 19 -75 16 -73 90 -66 11 1
13 41 10 212 -2 116 0 203 4 192 4 -10 24 -83 43 -163 60 -244 52 -222 88
-219 18 2 37 7 43 11 8 6 10 113 8 364 -2 314 -7 387 -25 370z"/>
<path d="M1440 2041 c-57 -13 -90 -58 -85 -114 5 -60 17 -152 20 -157 2 -3 6
-34 10 -70 8 -79 22 -146 36 -171 11 -21 57 -46 77 -43 6 1 21 2 33 3 11 0 34
15 51 31 30 31 30 31 24 114 -3 46 -8 90 -10 97 -3 8 -7 37 -10 64 -3 28 -8
61 -10 75 -3 14 -7 43 -11 65 -10 71 -67 119 -125 106z m52 -111 c4 -19 9 -55
13 -80 9 -75 16 -124 20 -150 16 -110 16 -127 2 -138 -11 -10 -19 -9 -35 5
-15 13 -22 35 -27 83 -3 36 -8 74 -10 85 -2 11 -7 43 -10 70 -13 104 -16 119
-20 123 -2 3 0 13 6 24 17 32 52 19 61 -22z"/>
<path d="M1229 2005 c-31 -6 -63 -11 -72 -9 -23 3 -30 -11 -22 -44 5 -25 9
-27 40 -24 31 4 35 1 36 -19 2 -46 7 -83 24 -179 2 -8 6 -40 9 -71 4 -31 8
-65 10 -75 2 -11 7 -43 11 -71 6 -45 10 -53 28 -53 52 1 54 22 23 210 -3 14
-7 45 -10 70 -3 25 -8 54 -10 65 -2 11 -7 46 -10 78 l-7 57 31 7 c28 5 31 9
28 36 -4 36 -21 40 -109 22z"/>
<path d="M2865 1394 c-5 -1 -27 -5 -47 -9 -21 -3 -38 -12 -38 -18 0 -14 -92
-166 -124 -206 -52 -64 -181 -183 -245 -225 -173 -115 -384 -180 -586 -180
-53 0 -167 10 -200 18 -63 14 -86 20 -140 38 -150 51 -290 136 -405 248 -70
69 -74 71 -113 66 -22 -3 -42 -8 -45 -10 -8 -9 173 -183 238 -228 407 -286
940 -281 1341 13 136 100 290 289 355 435 25 58 26 63 9 58z"/>
<path d="M2640 1288 c-30 -46 -88 -117 -130 -158 -184 -184 -413 -282 -665
-284 -66 0 -142 2 -170 6 -176 24 -385 126 -522 255 -23 22 -47 37 -52 33 -21
-13 126 -135 239 -198 138 -77 313 -124 465 -125 55 0 195 12 205 18 4 2 21 7
39 10 90 16 282 102 361 163 75 57 200 191 249 266 28 43 51 82 51 87 0 24
-22 1 -70 -73z"/>
<path d="M2926 1228 c-14 -19 -13 -23 4 -42 92 -103 92 -104 -1 -82 -58 14
-89 7 -89 -18 0 -13 141 -106 160 -106 27 0 4 33 -40 58 -27 15 -50 30 -50 34
0 3 30 -1 66 -9 54 -12 68 -13 75 -2 7 12 -30 69 -66 99 -36 29 -11 27 42 -5
53 -32 73 -36 73 -15 0 4 -36 31 -80 59 -79 50 -80 50 -94 29z"/>
<path d="M2124 1219 c-6 -11 -8 -21 -13 -69 -1 -8 -10 5 -22 29 -15 35 -22 42
-32 32 -7 -7 -13 -21 -13 -31 -4 -52 -6 -53 -26 -10 -15 32 -22 40 -25 27 -3
-9 6 -40 18 -68 21 -45 25 -49 36 -33 7 10 13 30 13 46 0 41 15 34 29 -13 11
-35 15 -40 26 -28 7 8 16 40 19 72 6 56 4 68 -10 46z"/>
<path d="M2236 1204 c-10 -27 -7 -43 13 -54 11 -5 26 -7 35 -4 21 8 30 42 16
59 -16 20 -56 19 -64 -1z"/>
<path d="M1897 1182 c-10 -10 -17 -25 -17 -32 0 -9 7 -6 21 8 20 22 39 22 39
0 0 -5 -11 -23 -25 -40 -14 -16 -25 -34 -25 -39 0 -10 40 -12 64 -3 26 10 18
25 -9 18 -30 -7 -33 6 -5 24 26 16 26 58 1 72 -25 13 -25 13 -44 -8z"/>
<path d="M1765 1170 c-4 -6 -9 -26 -12 -43 -6 -40 -11 -45 -19 -21 -14 46 -25
65 -33 59 -5 -3 2 -32 16 -65 29 -67 49 -68 55 -2 l4 37 17 -37 c19 -42 47
-51 47 -15 0 12 3 39 7 61 5 31 3 38 -8 34 -8 -3 -15 -11 -15 -19 -1 -8 -3
-25 -4 -39 -1 -23 -3 -22 -19 12 -22 47 -27 52 -36 38z"/>
<path d="M1530 1101 c-7 -14 -5 -24 8 -40 32 -38 85 -1 60 43 -12 22 -55 20
-68 -3z"/>
<path d="M879 947 c-89 -87 -113 -117 -101 -129 9 -9 18 -6 40 15 l28 27 22
-25 c40 -45 86 -43 113 7 12 22 -7 60 -49 101 l-29 27 -24 -23z m49 -46 c26
-22 28 -44 6 -61 -13 -11 -19 -9 -40 12 -23 22 -24 28 -13 47 17 26 20 26 47
2z"/>
<path d="M2695 917 c-28 -15 -85 -69 -85 -79 0 -5 10 -19 23 -32 12 -13 39
-42 60 -66 30 -34 40 -40 52 -30 12 10 11 16 -10 38 -29 31 -28 38 7 60 26 15
29 15 56 -5 22 -16 32 -19 41 -10 8 8 5 17 -15 34 -15 13 -33 23 -41 23 -7 0
-13 8 -13 18 -1 39 -44 67 -75 49z m29 -33 c23 -9 20 -31 -10 -61 l-25 -25
-21 22 -22 23 30 23 c16 13 30 24 31 24 1 0 8 -3 17 -6z"/>
<path d="M1127 728 c-9 -18 -30 -56 -46 -84 l-31 -51 52 -29 c29 -16 56 -30
59 -32 4 -2 9 4 12 13 5 10 -6 21 -33 35 -22 11 -40 22 -40 24 0 3 18 35 39
73 29 48 36 70 28 75 -19 12 -22 10 -40 -24z"/>
<path d="M2381 704 c-38 -16 -62 -65 -51 -103 15 -50 21 -59 54 -76 41 -22 78
-15 112 22 27 29 30 62 10 101 -30 58 -74 77 -125 56z m92 -67 c8 -16 13 -37
12 -46 -2 -9 -4 -19 -4 -24 -1 -4 -12 -12 -26 -17 -34 -13 -70 5 -85 41 -36
86 63 130 103 46z"/>
<path d="M1460 612 c0 -5 -8 -17 -18 -28 -9 -10 -35 -43 -56 -72 -31 -43 -36
-56 -25 -63 10 -6 19 -1 32 15 16 22 21 23 52 13 19 -6 35 -14 35 -19 0 -29
18 -60 31 -52 9 5 4 119 -7 178 -5 26 -44 51 -44 28z m18 -77 c-1 -35 -11 -42
-36 -27 -10 7 -8 15 8 35 12 15 23 27 25 27 3 0 4 -16 3 -35z"/>
<path d="M2095 599 c-22 -5 -49 -11 -61 -14 l-21 -5 18 -82 c10 -46 18 -88 18
-95 1 -6 10 -9 20 -6 16 4 18 9 10 36 -5 18 -9 35 -9 39 0 8 40 23 70 27 6 0
10 8 10 16 0 8 -6 13 -12 11 -7 -3 -28 -7 -45 -10 -30 -5 -33 -3 -33 18 0 25
17 36 55 36 26 0 42 17 29 29 -5 5 -27 4 -49 0z"/>
<path d="M1690 555 c0 -10 10 -15 31 -15 l31 0 -2 -72 c-3 -94 -3 -95 15 -95
11 0 15 13 16 46 1 25 3 55 4 66 1 11 3 28 3 39 2 14 8 17 27 14 29 -6 45 10
24 23 -8 5 -44 9 -81 9 -54 0 -68 -3 -68 -15z"/>
</g>
</svg>
