<svg width="150" height="46" viewBox="0 0 150 46" fill="none" xmlns="http://www.w3.org/2000/svg">
<path d="M74.405 10.88V13.6775H78.035V15.38H74.405V18.2375H79.07V20H72.14V9.1175H79.07V10.88H74.405ZM85.7853 13.9925C85.7253 14.0725 85.6653 14.135 85.6053 14.18C85.5453 14.22 85.4603 14.24 85.3503 14.24C85.2503 14.24 85.1528 14.2125 85.0578 14.1575C84.9678 14.0975 84.8628 14.035 84.7428 13.97C84.6228 13.9 84.4803 13.8375 84.3153 13.7825C84.1503 13.7225 83.9453 13.6925 83.7003 13.6925C83.3903 13.6925 83.1203 13.75 82.8903 13.865C82.6653 13.975 82.4778 14.135 82.3278 14.345C82.1778 14.555 82.0653 14.81 81.9903 15.11C81.9203 15.41 81.8853 15.7475 81.8853 16.1225C81.8853 16.9125 82.0428 17.5175 82.3578 17.9375C82.6778 18.3575 83.1128 18.5675 83.6628 18.5675C83.8528 18.5675 84.0153 18.5525 84.1503 18.5225C84.2903 18.4875 84.4103 18.445 84.5103 18.395C84.6153 18.345 84.7053 18.29 84.7803 18.23C84.8553 18.17 84.9253 18.115 84.9903 18.065C85.0603 18.015 85.1278 17.975 85.1928 17.945C85.2628 17.91 85.3403 17.8925 85.4253 17.8925C85.5853 17.8925 85.7103 17.9525 85.8003 18.0725L86.3928 18.8225C86.1728 19.0775 85.9378 19.29 85.6878 19.46C85.4378 19.625 85.1778 19.7575 84.9078 19.8575C84.6428 19.9525 84.3728 20.0175 84.0978 20.0525C83.8228 20.0925 83.5503 20.1125 83.2803 20.1125C82.8053 20.1125 82.3553 20.025 81.9303 19.85C81.5053 19.67 81.1328 19.41 80.8128 19.07C80.4928 18.73 80.2378 18.3125 80.0478 17.8175C79.8628 17.3225 79.7703 16.7575 79.7703 16.1225C79.7703 15.5575 79.8528 15.0325 80.0178 14.5475C80.1828 14.0625 80.4253 13.6425 80.7453 13.2875C81.0653 12.9325 81.4603 12.655 81.9303 12.455C82.4053 12.25 82.9528 12.1475 83.5728 12.1475C84.1628 12.1475 84.6803 12.2425 85.1253 12.4325C85.5703 12.6225 85.9703 12.8975 86.3253 13.2575L85.7853 13.9925ZM90.7966 12.1475C91.3766 12.1475 91.9041 12.24 92.3791 12.425C92.8541 12.61 93.2616 12.875 93.6016 13.22C93.9416 13.56 94.2041 13.975 94.3891 14.465C94.5741 14.955 94.6666 15.5075 94.6666 16.1225C94.6666 16.7375 94.5741 17.2925 94.3891 17.7875C94.2041 18.2775 93.9416 18.695 93.6016 19.04C93.2616 19.385 92.8541 19.65 92.3791 19.835C91.9041 20.02 91.3766 20.1125 90.7966 20.1125C90.2116 20.1125 89.6791 20.02 89.1991 19.835C88.7241 19.65 88.3166 19.385 87.9766 19.04C87.6366 18.695 87.3716 18.2775 87.1816 17.7875C86.9966 17.2925 86.9041 16.7375 86.9041 16.1225C86.9041 15.5075 86.9966 14.955 87.1816 14.465C87.3716 13.975 87.6366 13.56 87.9766 13.22C88.3166 12.875 88.7241 12.61 89.1991 12.425C89.6791 12.24 90.2116 12.1475 90.7966 12.1475ZM90.7966 18.56C91.3866 18.56 91.8241 18.3575 92.1091 17.9525C92.3941 17.5425 92.5366 16.935 92.5366 16.13C92.5366 15.33 92.3941 14.7275 92.1091 14.3225C91.8241 13.9125 91.3866 13.7075 90.7966 13.7075C90.1916 13.7075 89.7466 13.9125 89.4616 14.3225C89.1766 14.7275 89.0341 15.33 89.0341 16.13C89.0341 16.935 89.1766 17.5425 89.4616 17.9525C89.7466 18.3575 90.1916 18.56 90.7966 18.56ZM95.9663 20V12.2675H97.2413C97.5013 12.2675 97.6738 12.3875 97.7588 12.6275L97.8788 13.13C98.0138 12.99 98.1513 12.86 98.2913 12.74C98.4363 12.62 98.5913 12.5175 98.7563 12.4325C98.9213 12.3425 99.0988 12.2725 99.2888 12.2225C99.4838 12.1725 99.6938 12.1475 99.9188 12.1475C100.394 12.1475 100.786 12.275 101.096 12.53C101.406 12.78 101.641 13.115 101.801 13.535C101.926 13.29 102.079 13.08 102.259 12.905C102.444 12.725 102.644 12.58 102.859 12.47C103.079 12.36 103.309 12.28 103.549 12.23C103.794 12.175 104.039 12.1475 104.284 12.1475C104.719 12.1475 105.104 12.2125 105.439 12.3425C105.774 12.4725 106.054 12.665 106.279 12.92C106.509 13.17 106.684 13.4775 106.804 13.8425C106.924 14.2075 106.984 14.6225 106.984 15.0875V20H104.914V15.0875C104.914 14.1825 104.526 13.73 103.751 13.73C103.576 13.73 103.414 13.76 103.264 13.82C103.119 13.875 102.989 13.96 102.874 14.075C102.764 14.19 102.676 14.3325 102.611 14.5025C102.551 14.6725 102.521 14.8675 102.521 15.0875V20H100.451V15.0875C100.451 14.5975 100.354 14.25 100.159 14.045C99.9688 13.835 99.6863 13.73 99.3113 13.73C99.0713 13.73 98.8438 13.7875 98.6288 13.9025C98.4188 14.0125 98.2213 14.1675 98.0363 14.3675V20H95.9663ZM108.623 20V12.2675H109.898C110.158 12.2675 110.33 12.3875 110.415 12.6275L110.535 13.13C110.67 12.99 110.808 12.86 110.948 12.74C111.093 12.62 111.248 12.5175 111.413 12.4325C111.578 12.3425 111.755 12.2725 111.945 12.2225C112.14 12.1725 112.35 12.1475 112.575 12.1475C113.05 12.1475 113.443 12.275 113.753 12.53C114.063 12.78 114.298 13.115 114.458 13.535C114.583 13.29 114.735 13.08 114.915 12.905C115.1 12.725 115.3 12.58 115.515 12.47C115.735 12.36 115.965 12.28 116.205 12.23C116.45 12.175 116.695 12.1475 116.94 12.1475C117.375 12.1475 117.76 12.2125 118.095 12.3425C118.43 12.4725 118.71 12.665 118.935 12.92C119.165 13.17 119.34 13.4775 119.46 13.8425C119.58 14.2075 119.64 14.6225 119.64 15.0875V20H117.57V15.0875C117.57 14.1825 117.183 13.73 116.408 13.73C116.233 13.73 116.07 13.76 115.92 13.82C115.775 13.875 115.645 13.96 115.53 14.075C115.42 14.19 115.333 14.3325 115.268 14.5025C115.208 14.6725 115.178 14.8675 115.178 15.0875V20H113.108V15.0875C113.108 14.5975 113.01 14.25 112.815 14.045C112.625 13.835 112.343 13.73 111.968 13.73C111.728 13.73 111.5 13.7875 111.285 13.9025C111.075 14.0125 110.878 14.1675 110.693 14.3675V20H108.623ZM126.184 15.2225C126.184 15.0075 126.154 14.8025 126.094 14.6075C126.039 14.4125 125.949 14.24 125.824 14.09C125.699 13.94 125.541 13.8225 125.351 13.7375C125.161 13.6475 124.934 13.6025 124.669 13.6025C124.174 13.6025 123.786 13.7425 123.506 14.0225C123.226 14.3025 123.044 14.7025 122.959 15.2225H126.184ZM122.929 16.4525C122.994 17.1775 123.199 17.7075 123.544 18.0425C123.894 18.3775 124.349 18.545 124.909 18.545C125.194 18.545 125.439 18.5125 125.644 18.4475C125.854 18.3775 126.036 18.3025 126.191 18.2225C126.351 18.1375 126.494 18.0625 126.619 17.9975C126.749 17.9275 126.876 17.8925 127.001 17.8925C127.161 17.8925 127.286 17.9525 127.376 18.0725L127.976 18.8225C127.756 19.0775 127.514 19.29 127.249 19.46C126.984 19.625 126.709 19.7575 126.424 19.8575C126.139 19.9525 125.851 20.0175 125.561 20.0525C125.271 20.0925 124.991 20.1125 124.721 20.1125C124.181 20.1125 123.676 20.025 123.206 19.85C122.741 19.67 122.334 19.4075 121.984 19.0625C121.639 18.7125 121.366 18.28 121.166 17.765C120.966 17.25 120.866 16.6525 120.866 15.9725C120.866 15.4475 120.951 14.9525 121.121 14.4875C121.296 14.0225 121.546 13.6175 121.871 13.2725C122.196 12.9275 122.591 12.655 123.056 12.455C123.521 12.25 124.046 12.1475 124.631 12.1475C125.126 12.1475 125.581 12.2275 125.996 12.3875C126.416 12.5425 126.776 12.77 127.076 13.07C127.381 13.37 127.616 13.74 127.781 14.18C127.951 14.615 128.036 15.1125 128.036 15.6725C128.036 15.8275 128.029 15.955 128.014 16.055C127.999 16.155 127.974 16.235 127.939 16.295C127.904 16.355 127.856 16.3975 127.796 16.4225C127.736 16.4425 127.659 16.4525 127.564 16.4525H122.929ZM131.263 13.5425C131.508 13.1025 131.791 12.755 132.111 12.5C132.431 12.245 132.806 12.1175 133.236 12.1175C133.586 12.1175 133.871 12.2 134.091 12.365L133.956 13.895C133.931 13.995 133.891 14.065 133.836 14.105C133.786 14.14 133.716 14.1575 133.626 14.1575C133.546 14.1575 133.431 14.1475 133.281 14.1275C133.131 14.1025 132.991 14.09 132.861 14.09C132.671 14.09 132.501 14.1175 132.351 14.1725C132.206 14.2275 132.076 14.305 131.961 14.405C131.846 14.505 131.741 14.6275 131.646 14.7725C131.556 14.9175 131.471 15.0825 131.391 15.2675V20H129.321V12.2675H130.543C130.753 12.2675 130.898 12.305 130.978 12.38C131.058 12.455 131.116 12.585 131.151 12.77L131.263 13.5425ZM140.409 13.9925C140.349 14.0725 140.289 14.135 140.229 14.18C140.169 14.22 140.084 14.24 139.974 14.24C139.874 14.24 139.777 14.2125 139.682 14.1575C139.592 14.0975 139.487 14.035 139.367 13.97C139.247 13.9 139.104 13.8375 138.939 13.7825C138.774 13.7225 138.569 13.6925 138.324 13.6925C138.014 13.6925 137.744 13.75 137.514 13.865C137.289 13.975 137.102 14.135 136.952 14.345C136.802 14.555 136.689 14.81 136.614 15.11C136.544 15.41 136.509 15.7475 136.509 16.1225C136.509 16.9125 136.667 17.5175 136.982 17.9375C137.302 18.3575 137.737 18.5675 138.287 18.5675C138.477 18.5675 138.639 18.5525 138.774 18.5225C138.914 18.4875 139.034 18.445 139.134 18.395C139.239 18.345 139.329 18.29 139.404 18.23C139.479 18.17 139.549 18.115 139.614 18.065C139.684 18.015 139.752 17.975 139.817 17.945C139.887 17.91 139.964 17.8925 140.049 17.8925C140.209 17.8925 140.334 17.9525 140.424 18.0725L141.017 18.8225C140.797 19.0775 140.562 19.29 140.312 19.46C140.062 19.625 139.802 19.7575 139.532 19.8575C139.267 19.9525 138.997 20.0175 138.722 20.0525C138.447 20.0925 138.174 20.1125 137.904 20.1125C137.429 20.1125 136.979 20.025 136.554 19.85C136.129 19.67 135.757 19.41 135.437 19.07C135.117 18.73 134.862 18.3125 134.672 17.8175C134.487 17.3225 134.394 16.7575 134.394 16.1225C134.394 15.5575 134.477 15.0325 134.642 14.5475C134.807 14.0625 135.049 13.6425 135.369 13.2875C135.689 12.9325 136.084 12.655 136.554 12.455C137.029 12.25 137.577 12.1475 138.197 12.1475C138.787 12.1475 139.304 12.2425 139.749 12.4325C140.194 12.6225 140.594 12.8975 140.949 13.2575L140.409 13.9925ZM146.838 15.2225C146.838 15.0075 146.808 14.8025 146.748 14.6075C146.693 14.4125 146.603 14.24 146.478 14.09C146.353 13.94 146.196 13.8225 146.006 13.7375C145.816 13.6475 145.588 13.6025 145.323 13.6025C144.828 13.6025 144.441 13.7425 144.161 14.0225C143.881 14.3025 143.698 14.7025 143.613 15.2225H146.838ZM143.583 16.4525C143.648 17.1775 143.853 17.7075 144.198 18.0425C144.548 18.3775 145.003 18.545 145.563 18.545C145.848 18.545 146.093 18.5125 146.298 18.4475C146.508 18.3775 146.691 18.3025 146.846 18.2225C147.006 18.1375 147.148 18.0625 147.273 17.9975C147.403 17.9275 147.531 17.8925 147.656 17.8925C147.816 17.8925 147.941 17.9525 148.031 18.0725L148.631 18.8225C148.411 19.0775 148.168 19.29 147.903 19.46C147.638 19.625 147.363 19.7575 147.078 19.8575C146.793 19.9525 146.506 20.0175 146.216 20.0525C145.926 20.0925 145.646 20.1125 145.376 20.1125C144.836 20.1125 144.331 20.025 143.861 19.85C143.396 19.67 142.988 19.4075 142.638 19.0625C142.293 18.7125 142.021 18.28 141.821 17.765C141.621 17.25 141.521 16.6525 141.521 15.9725C141.521 15.4475 141.606 14.9525 141.776 14.4875C141.951 14.0225 142.201 13.6175 142.526 13.2725C142.851 12.9275 143.246 12.655 143.711 12.455C144.176 12.25 144.701 12.1475 145.286 12.1475C145.781 12.1475 146.236 12.2275 146.651 12.3875C147.071 12.5425 147.431 12.77 147.731 13.07C148.036 13.37 148.271 13.74 148.436 14.18C148.606 14.615 148.691 15.1125 148.691 15.6725C148.691 15.8275 148.683 15.955 148.668 16.055C148.653 16.155 148.628 16.235 148.593 16.295C148.558 16.355 148.511 16.3975 148.451 16.4225C148.391 16.4425 148.313 16.4525 148.218 16.4525H143.583ZM78.5975 36.17V38H72.14V27.1175H74.39V36.17H78.5975ZM82.8571 30.1475C83.4371 30.1475 83.9646 30.24 84.4396 30.425C84.9146 30.61 85.3221 30.875 85.6621 31.22C86.0021 31.56 86.2646 31.975 86.4496 32.465C86.6346 32.955 86.7271 33.5075 86.7271 34.1225C86.7271 34.7375 86.6346 35.2925 86.4496 35.7875C86.2646 36.2775 86.0021 36.695 85.6621 37.04C85.3221 37.385 84.9146 37.65 84.4396 37.835C83.9646 38.02 83.4371 38.1125 82.8571 38.1125C82.2721 38.1125 81.7396 38.02 81.2596 37.835C80.7846 37.65 80.3771 37.385 80.0371 37.04C79.6971 36.695 79.4321 36.2775 79.2421 35.7875C79.0571 35.2925 78.9646 34.7375 78.9646 34.1225C78.9646 33.5075 79.0571 32.955 79.2421 32.465C79.4321 31.975 79.6971 31.56 80.0371 31.22C80.3771 30.875 80.7846 30.61 81.2596 30.425C81.7396 30.24 82.2721 30.1475 82.8571 30.1475ZM82.8571 36.56C83.4471 36.56 83.8846 36.3575 84.1696 35.9525C84.4546 35.5425 84.5971 34.935 84.5971 34.13C84.5971 33.33 84.4546 32.7275 84.1696 32.3225C83.8846 31.9125 83.4471 31.7075 82.8571 31.7075C82.2521 31.7075 81.8071 31.9125 81.5221 32.3225C81.2371 32.7275 81.0946 33.33 81.0946 34.13C81.0946 34.935 81.2371 35.5425 81.5221 35.9525C81.8071 36.3575 82.2521 36.56 82.8571 36.56ZM90.8336 33.845C91.2586 33.845 91.5711 33.7375 91.7711 33.5225C91.9761 33.3075 92.0786 33.03 92.0786 32.69C92.0786 32.335 91.9761 32.0575 91.7711 31.8575C91.5711 31.6525 91.2586 31.55 90.8336 31.55C90.4086 31.55 90.0961 31.6525 89.8961 31.8575C89.6961 32.0575 89.5961 32.335 89.5961 32.69C89.5961 33.025 89.6961 33.3025 89.8961 33.5225C90.1011 33.7375 90.4136 33.845 90.8336 33.845ZM92.7911 38.315C92.7911 38.18 92.7486 38.07 92.6636 37.985C92.5786 37.9 92.4636 37.8325 92.3186 37.7825C92.1786 37.7325 92.0111 37.6975 91.8161 37.6775C91.6211 37.6525 91.4136 37.635 91.1936 37.625C90.9736 37.61 90.7461 37.5975 90.5111 37.5875C90.2761 37.5775 90.0461 37.56 89.8211 37.535C89.6461 37.64 89.5011 37.765 89.3861 37.91C89.2761 38.05 89.2211 38.21 89.2211 38.39C89.2211 38.515 89.2486 38.63 89.3036 38.735C89.3636 38.84 89.4611 38.93 89.5961 39.005C89.7311 39.08 89.9086 39.1375 90.1286 39.1775C90.3486 39.2225 90.6236 39.245 90.9536 39.245C91.2936 39.245 91.5811 39.2225 91.8161 39.1775C92.0511 39.1325 92.2411 39.0675 92.3861 38.9825C92.5311 38.9025 92.6336 38.805 92.6936 38.69C92.7586 38.575 92.7911 38.45 92.7911 38.315ZM94.8461 30.5225V31.28C94.8461 31.4 94.8111 31.495 94.7411 31.565C94.6761 31.635 94.5661 31.6875 94.4111 31.7225L93.7811 31.85C93.8661 32.095 93.9086 32.3575 93.9086 32.6375C93.9086 33.0225 93.8286 33.37 93.6686 33.68C93.5136 33.985 93.2986 34.2475 93.0236 34.4675C92.7486 34.6825 92.4236 34.85 92.0486 34.97C91.6736 35.085 91.2686 35.1425 90.8336 35.1425C90.5586 35.1425 90.3011 35.12 90.0611 35.075C89.8511 35.205 89.7461 35.3475 89.7461 35.5025C89.7461 35.6475 89.8161 35.7525 89.9561 35.8175C90.1011 35.8825 90.2886 35.93 90.5186 35.96C90.7536 35.985 91.0186 36.0025 91.3136 36.0125C91.6136 36.0175 91.9161 36.0325 92.2211 36.0575C92.5311 36.0825 92.8336 36.1275 93.1286 36.1925C93.4286 36.2525 93.6936 36.355 93.9236 36.5C94.1586 36.64 94.3461 36.8275 94.4861 37.0625C94.6311 37.2975 94.7036 37.6 94.7036 37.97C94.7036 38.315 94.6186 38.65 94.4486 38.975C94.2786 39.3 94.0311 39.59 93.7061 39.845C93.3861 40.1 92.9911 40.305 92.5211 40.46C92.0511 40.615 91.5161 40.6925 90.9161 40.6925C90.3211 40.6925 89.8036 40.635 89.3636 40.52C88.9286 40.41 88.5661 40.26 88.2761 40.07C87.9911 39.885 87.7786 39.67 87.6386 39.425C87.4986 39.18 87.4286 38.925 87.4286 38.66C87.4286 38.315 87.5336 38.0225 87.7436 37.7825C87.9536 37.5425 88.2436 37.35 88.6136 37.205C88.4186 37.095 88.2611 36.9525 88.1411 36.7775C88.0261 36.5975 87.9686 36.365 87.9686 36.08C87.9686 35.85 88.0511 35.6075 88.2161 35.3525C88.3861 35.0975 88.6461 34.885 88.9961 34.715C88.6011 34.505 88.2886 34.225 88.0586 33.875C87.8286 33.52 87.7136 33.1075 87.7136 32.6375C87.7136 32.2525 87.7911 31.905 87.9461 31.595C88.1061 31.285 88.3261 31.0225 88.6061 30.8075C88.8861 30.5875 89.2161 30.42 89.5961 30.305C89.9761 30.19 90.3886 30.1325 90.8336 30.1325C91.4936 30.1325 92.0761 30.2625 92.5811 30.5225H94.8461ZM98.0524 30.2675V38H95.9824V30.2675H98.0524ZM98.2999 28.07C98.2999 28.245 98.2649 28.4075 98.1949 28.5575C98.1249 28.7075 98.0299 28.84 97.9099 28.955C97.7949 29.07 97.6574 29.16 97.4974 29.225C97.3424 29.29 97.1749 29.3225 96.9949 29.3225C96.8249 29.3225 96.6624 29.29 96.5074 29.225C96.3574 29.16 96.2249 29.07 96.1099 28.955C95.9949 28.84 95.9024 28.7075 95.8324 28.5575C95.7674 28.4075 95.7349 28.245 95.7349 28.07C95.7349 27.895 95.7674 27.7325 95.8324 27.5825C95.9024 27.4275 95.9949 27.2925 96.1099 27.1775C96.2249 27.0625 96.3574 26.9725 96.5074 26.9075C96.6624 26.8425 96.8249 26.81 96.9949 26.81C97.1749 26.81 97.3424 26.8425 97.4974 26.9075C97.6574 26.9725 97.7949 27.0625 97.9099 27.1775C98.0299 27.2925 98.1249 27.4275 98.1949 27.5825C98.2649 27.7325 98.2999 27.895 98.2999 28.07ZM104.626 31.8575C104.571 31.9425 104.514 32.005 104.454 32.045C104.399 32.08 104.321 32.0975 104.221 32.0975C104.121 32.0975 104.019 32.0725 103.914 32.0225C103.809 31.9725 103.691 31.92 103.561 31.865C103.431 31.805 103.281 31.75 103.111 31.7C102.946 31.65 102.754 31.625 102.534 31.625C102.199 31.625 101.939 31.695 101.754 31.835C101.569 31.97 101.476 32.15 101.476 32.375C101.476 32.53 101.529 32.66 101.634 32.765C101.739 32.87 101.876 32.9625 102.046 33.0425C102.221 33.1175 102.419 33.19 102.639 33.26C102.859 33.325 103.084 33.3975 103.314 33.4775C103.549 33.5575 103.776 33.65 103.996 33.755C104.216 33.86 104.411 33.9925 104.581 34.1525C104.756 34.3075 104.896 34.4975 105.001 34.7225C105.106 34.9425 105.159 35.21 105.159 35.525C105.159 35.9 105.089 36.2475 104.949 36.5675C104.814 36.8825 104.614 37.155 104.349 37.385C104.084 37.615 103.754 37.795 103.359 37.925C102.964 38.055 102.509 38.12 101.994 38.12C101.729 38.12 101.466 38.095 101.206 38.045C100.946 38 100.699 37.935 100.464 37.85C100.229 37.76 100.009 37.6575 99.8039 37.5425C99.5989 37.4275 99.4214 37.3025 99.2714 37.1675L99.7514 36.395C99.8064 36.305 99.8739 36.235 99.9539 36.185C100.039 36.135 100.146 36.11 100.276 36.11C100.401 36.11 100.516 36.1425 100.621 36.2075C100.726 36.2675 100.844 36.335 100.974 36.41C101.104 36.48 101.256 36.5475 101.431 36.6125C101.611 36.6725 101.834 36.7025 102.099 36.7025C102.299 36.7025 102.471 36.68 102.616 36.635C102.761 36.59 102.879 36.53 102.969 36.455C103.059 36.375 103.124 36.2875 103.164 36.1925C103.209 36.0925 103.231 35.99 103.231 35.885C103.231 35.715 103.176 35.5775 103.066 35.4725C102.961 35.3625 102.821 35.2675 102.646 35.1875C102.476 35.1075 102.279 35.035 102.054 34.97C101.829 34.905 101.599 34.8325 101.364 34.7525C101.134 34.6725 100.906 34.5775 100.681 34.4675C100.461 34.3575 100.264 34.22 100.089 34.055C99.9189 33.885 99.7789 33.6775 99.6689 33.4325C99.5639 33.1875 99.5114 32.89 99.5114 32.54C99.5114 32.22 99.5739 31.9175 99.6989 31.6325C99.8239 31.3425 100.011 31.0875 100.261 30.8675C100.511 30.6475 100.821 30.4725 101.191 30.3425C101.566 30.2125 101.999 30.1475 102.489 30.1475C103.039 30.1475 103.539 30.2375 103.989 30.4175C104.439 30.5975 104.809 30.8325 105.099 31.1225L104.626 31.8575ZM114.51 38H112.447V31.7525H109.02V35.7875C109.02 36.0025 109.07 36.1725 109.17 36.2975C109.275 36.4225 109.422 36.485 109.612 36.485C109.712 36.485 109.797 36.475 109.867 36.455C109.937 36.43 109.997 36.405 110.047 36.38C110.097 36.35 110.142 36.325 110.182 36.305C110.227 36.28 110.272 36.2675 110.317 36.2675C110.377 36.2675 110.427 36.2825 110.467 36.3125C110.507 36.3375 110.547 36.3825 110.587 36.4475L111.21 37.4375C110.925 37.6625 110.602 37.8325 110.242 37.9475C109.882 38.0625 109.51 38.12 109.125 38.12C108.775 38.12 108.465 38.07 108.195 37.97C107.925 37.865 107.697 37.7175 107.512 37.5275C107.327 37.3375 107.187 37.1075 107.092 36.8375C106.997 36.5675 106.95 36.2625 106.95 35.9225V31.7525H106.222C106.112 31.7525 106.017 31.7175 105.937 31.6475C105.862 31.5775 105.825 31.4725 105.825 31.3325V30.5225L107.062 30.2975L107.482 28.295C107.537 28.07 107.69 27.9575 107.94 27.9575H109.02V30.3125H114.51V38ZM114.832 28.055C114.832 28.225 114.797 28.3875 114.727 28.5425C114.657 28.6925 114.562 28.825 114.442 28.94C114.327 29.05 114.19 29.14 114.03 29.21C113.875 29.275 113.707 29.3075 113.527 29.3075C113.357 29.3075 113.195 29.275 113.04 29.21C112.89 29.14 112.757 29.05 112.642 28.94C112.527 28.825 112.435 28.6925 112.365 28.5425C112.3 28.3875 112.267 28.225 112.267 28.055C112.267 27.88 112.3 27.7175 112.365 27.5675C112.435 27.4125 112.527 27.2775 112.642 27.1625C112.757 27.0475 112.89 26.9575 113.04 26.8925C113.195 26.8225 113.357 26.7875 113.527 26.7875C113.707 26.7875 113.875 26.8225 114.03 26.8925C114.19 26.9575 114.327 27.0475 114.442 27.1625C114.562 27.2775 114.657 27.4125 114.727 27.5675C114.797 27.7175 114.832 27.88 114.832 28.055ZM121.894 31.9925C121.834 32.0725 121.774 32.135 121.714 32.18C121.654 32.22 121.569 32.24 121.459 32.24C121.359 32.24 121.261 32.2125 121.166 32.1575C121.076 32.0975 120.971 32.035 120.851 31.97C120.731 31.9 120.589 31.8375 120.424 31.7825C120.259 31.7225 120.054 31.6925 119.809 31.6925C119.499 31.6925 119.229 31.75 118.999 31.865C118.774 31.975 118.586 32.135 118.436 32.345C118.286 32.555 118.174 32.81 118.099 33.11C118.029 33.41 117.994 33.7475 117.994 34.1225C117.994 34.9125 118.151 35.5175 118.466 35.9375C118.786 36.3575 119.221 36.5675 119.771 36.5675C119.961 36.5675 120.124 36.5525 120.259 36.5225C120.399 36.4875 120.519 36.445 120.619 36.395C120.724 36.345 120.814 36.29 120.889 36.23C120.964 36.17 121.034 36.115 121.099 36.065C121.169 36.015 121.236 35.975 121.301 35.945C121.371 35.91 121.449 35.8925 121.534 35.8925C121.694 35.8925 121.819 35.9525 121.909 36.0725L122.501 36.8225C122.281 37.0775 122.046 37.29 121.796 37.46C121.546 37.625 121.286 37.7575 121.016 37.8575C120.751 37.9525 120.481 38.0175 120.206 38.0525C119.931 38.0925 119.659 38.1125 119.389 38.1125C118.914 38.1125 118.464 38.025 118.039 37.85C117.614 37.67 117.241 37.41 116.921 37.07C116.601 36.73 116.346 36.3125 116.156 35.8175C115.971 35.3225 115.879 34.7575 115.879 34.1225C115.879 33.5575 115.961 33.0325 116.126 32.5475C116.291 32.0625 116.534 31.6425 116.854 31.2875C117.174 30.9325 117.569 30.655 118.039 30.455C118.514 30.25 119.061 30.1475 119.681 30.1475C120.271 30.1475 120.789 30.2425 121.234 30.4325C121.679 30.6225 122.079 30.8975 122.434 31.2575L121.894 31.9925ZM128.357 31.8575C128.302 31.9425 128.244 32.005 128.184 32.045C128.129 32.08 128.052 32.0975 127.952 32.0975C127.852 32.0975 127.749 32.0725 127.644 32.0225C127.539 31.9725 127.422 31.92 127.292 31.865C127.162 31.805 127.012 31.75 126.842 31.7C126.677 31.65 126.484 31.625 126.264 31.625C125.929 31.625 125.669 31.695 125.484 31.835C125.299 31.97 125.207 32.15 125.207 32.375C125.207 32.53 125.259 32.66 125.364 32.765C125.469 32.87 125.607 32.9625 125.777 33.0425C125.952 33.1175 126.149 33.19 126.369 33.26C126.589 33.325 126.814 33.3975 127.044 33.4775C127.279 33.5575 127.507 33.65 127.727 33.755C127.947 33.86 128.142 33.9925 128.312 34.1525C128.487 34.3075 128.627 34.4975 128.732 34.7225C128.837 34.9425 128.889 35.21 128.889 35.525C128.889 35.9 128.819 36.2475 128.679 36.5675C128.544 36.8825 128.344 37.155 128.079 37.385C127.814 37.615 127.484 37.795 127.089 37.925C126.694 38.055 126.239 38.12 125.724 38.12C125.459 38.12 125.197 38.095 124.937 38.045C124.677 38 124.429 37.935 124.194 37.85C123.959 37.76 123.739 37.6575 123.534 37.5425C123.329 37.4275 123.152 37.3025 123.002 37.1675L123.482 36.395C123.537 36.305 123.604 36.235 123.684 36.185C123.769 36.135 123.877 36.11 124.007 36.11C124.132 36.11 124.247 36.1425 124.352 36.2075C124.457 36.2675 124.574 36.335 124.704 36.41C124.834 36.48 124.987 36.5475 125.162 36.6125C125.342 36.6725 125.564 36.7025 125.829 36.7025C126.029 36.7025 126.202 36.68 126.347 36.635C126.492 36.59 126.609 36.53 126.699 36.455C126.789 36.375 126.854 36.2875 126.894 36.1925C126.939 36.0925 126.962 35.99 126.962 35.885C126.962 35.715 126.907 35.5775 126.797 35.4725C126.692 35.3625 126.552 35.2675 126.377 35.1875C126.207 35.1075 126.009 35.035 125.784 34.97C125.559 34.905 125.329 34.8325 125.094 34.7525C124.864 34.6725 124.637 34.5775 124.412 34.4675C124.192 34.3575 123.994 34.22 123.819 34.055C123.649 33.885 123.509 33.6775 123.399 33.4325C123.294 33.1875 123.242 32.89 123.242 32.54C123.242 32.22 123.304 31.9175 123.429 31.6325C123.554 31.3425 123.742 31.0875 123.992 30.8675C124.242 30.6475 124.552 30.4725 124.922 30.3425C125.297 30.2125 125.729 30.1475 126.219 30.1475C126.769 30.1475 127.269 30.2375 127.719 30.4175C128.169 30.5975 128.539 30.8325 128.829 31.1225L128.357 31.8575Z" fill="black"/>
<path fill-rule="evenodd" clip-rule="evenodd" d="M17.4281 16.3257C16.9275 16.4208 16.4107 16.4706 15.8824 16.4706C15.3743 16.4706 14.8769 16.4246 14.3943 16.3365L7.88608 36.7771L7.82846 36.7587C9.13996 37.66 10 39.1707 10 40.8824C10 43.6438 7.76142 45.8824 5 45.8824C2.23858 45.8824 0 43.6438 0 40.8824C0 38.1209 2.23858 35.8824 5 35.8824C5.02808 35.8824 5.0561 35.8826 5.08407 35.883L11.6393 15.2948C9.24708 13.8539 7.64706 11.2315 7.64706 8.23529C7.64706 3.68707 11.3341 0 15.8824 0C20.4306 0 24.1176 3.68707 24.1176 8.23529C24.1176 11.2096 22.5409 13.8156 20.1777 15.263L25.6453 27.0041C25.7044 27.0014 25.7638 27 25.8235 27C26.4729 27 27.0845 27.1619 27.6201 27.4475L34.7429 20.5897C33.6384 18.8237 33 16.7364 33 14.5C33 8.14873 38.1487 3 44.5 3C50.8513 3 56 8.14873 56 14.5C56 20.8513 50.8513 26 44.5 26C41.4477 26 38.6732 24.8109 36.6143 22.8706L29.4887 29.7311C29.5917 30.0773 29.6471 30.4439 29.6471 30.8235C29.6471 32.9352 27.9352 34.6471 25.8235 34.6471C23.7119 34.6471 22 32.9352 22 30.8235C22 29.8376 22.3732 28.9388 22.986 28.2607L17.4281 16.3257Z" fill="url(#paint0_linear)"/>
<defs>
<linearGradient id="paint0_linear" x1="47" y1="-5.5" x2="-12" y2="42" gradientUnits="userSpaceOnUse">
<stop stop-color="#FFC700"/>
<stop offset="1" stop-color="#ED55CB"/>
</linearGradient>
</defs>
</svg>
