<svg xmlns="http://www.w3.org/2000/svg" width="128" height="128"><path fill="#fff" d="M114 124H14c-5.5 0-10-4.5-10-10V14C4 8.5 8.5 4 14 4h100c5.5 0 10 4.5 10 10v100c0 5.5-4.5 10-10 10z"/><path fill="#444b54" d="M114 1H14C6.8 1 1 6.8 1 14v100c0 7.2 5.8 13 13 13h100c7.2 0 13-5.8 13-13V14c0-7.2-5.8-13-13-13zM14 7h100c3.9 0 7 3.1 7 7v11H7V14c0-3.9 3.1-7 7-7z"/><circle cx="16" cy="16" r="3" fill="#444b54"/><circle cx="26" cy="16" r="3" fill="#444b54"/><circle cx="36" cy="16" r="3" fill="#444b54"/><path fill="#fff" d="M97 95.5c-1.7 0-3-1.3-3-3v-4H83c-1.7 0-3-1.3-3-3v-4c0-.5.1-1 .4-1.4l14-26c.7-1.2 2-1.8 3.4-1.5 1.3.3 2.3 1.5 2.3 2.9v27c1.7 0 3 1.3 3 3s-1.3 3-3 3v4c-.1 1.7-1.4 3-3.1 3zm-11-13h8V67.4l-8 14.9v.2zM64 95.5c-6.1 0-11-4.9-11-11v-21c0-6.1 4.9-11 11-11s11 4.9 11 11v21c0 6.1-4.9 11-11 11zm0-37c-2.8 0-5 2.2-5 5v21c0 2.8 2.2 5 5 5s5-2.2 5-5v-21c0-2.8-2.2-5-5-5zM42 95.5c-1.7 0-3-1.3-3-3v-4H28c-1.7 0-3-1.3-3-3v-4c0-.5.1-1 .4-1.4l14-26c.7-1.2 2-1.8 3.4-1.5s2.3 1.5 2.3 2.9v27c1.7 0 3 1.3 3 3s-1.3 3-3 3v4c-.1 1.7-1.4 3-3.1 3zm-11-13h8V67.4l-8 14.9v.2z"/></svg>