<svg width="300" height="82" viewBox="0 0 300 82" fill="none" xmlns="http://www.w3.org/2000/svg">
<path d="M0.198635 19.5133C0.198636 18.166 1.0553 17.0138 2.43148 16.5102L41.2306 2.31247C44.08 1.26978 47.5502 3.39724 47.5502 6.18685L47.5501 41.2459C47.5501 42.5932 46.6935 43.7453 45.3173 44.2489L6.51815 58.4467C3.66873 59.4894 0.198606 57.3619 0.198608 54.5723L0.198635 19.5133Z" fill="black"/>
<path d="M15.1986 31.5133C15.1986 30.166 16.0553 29.0138 17.4315 28.5102L56.2306 14.3125C59.08 13.2698 62.5502 15.3972 62.5502 18.1869L62.5501 53.2459C62.5501 54.5932 61.6935 55.7453 60.3173 56.2489L21.5182 70.4467C18.6687 71.4894 15.1986 69.3619 15.1986 66.5723L15.1986 31.5133Z" fill="#C72222"/>
<path d="M31.1986 42.5133C31.1986 41.166 32.0553 40.0138 33.4315 39.5102L72.2306 25.3125C75.08 24.2698 78.5502 26.3972 78.5502 29.1869L78.5501 64.2459C78.5501 65.5932 77.6935 66.7453 76.3173 67.2489L37.5182 81.4467C34.6687 82.4894 31.1986 80.3619 31.1986 77.5723L31.1986 42.5133Z" fill="#C4C4C4"/>
<path d="M108.956 14.908V17.572H98.048V26.032H106.904V28.696H98.048V40H94.772V14.908H108.956ZM127.745 34.42H116.801L114.785 40H111.329L120.401 15.052H124.181L133.217 40H129.761L127.745 34.42ZM126.809 31.756L122.273 19.084L117.737 31.756H126.809ZM145.126 40.252C143.47 40.252 141.982 39.964 140.662 39.388C139.366 38.788 138.346 37.972 137.602 36.94C136.858 35.884 136.474 34.672 136.45 33.304H139.942C140.062 34.48 140.542 35.476 141.382 36.292C142.246 37.084 143.494 37.48 145.126 37.48C146.686 37.48 147.91 37.096 148.798 36.328C149.71 35.536 150.166 34.528 150.166 33.304C150.166 32.344 149.902 31.564 149.374 30.964C148.846 30.364 148.186 29.908 147.394 29.596C146.602 29.284 145.534 28.948 144.19 28.588C142.534 28.156 141.202 27.724 140.194 27.292C139.21 26.86 138.358 26.188 137.638 25.276C136.942 24.34 136.594 23.092 136.594 21.532C136.594 20.164 136.942 18.952 137.638 17.896C138.334 16.84 139.306 16.024 140.554 15.448C141.826 14.872 143.278 14.584 144.91 14.584C147.262 14.584 149.182 15.172 150.67 16.348C152.182 17.524 153.034 19.084 153.226 21.028H149.626C149.506 20.068 149.002 19.228 148.114 18.508C147.226 17.764 146.05 17.392 144.586 17.392C143.218 17.392 142.102 17.752 141.238 18.472C140.374 19.168 139.942 20.152 139.942 21.424C139.942 22.336 140.194 23.08 140.698 23.656C141.226 24.232 141.862 24.676 142.606 24.988C143.374 25.276 144.442 25.612 145.81 25.996C147.466 26.452 148.798 26.908 149.806 27.364C150.814 27.796 151.678 28.48 152.398 29.416C153.118 30.328 153.478 31.576 153.478 33.16C153.478 34.384 153.154 35.536 152.506 36.616C151.858 37.696 150.898 38.572 149.626 39.244C148.354 39.916 146.854 40.252 145.126 40.252ZM173.743 14.908V17.572H166.903V40H163.627V17.572H156.751V14.908H173.743Z" fill="#C72222"/>
<path d="M202.818 14.908V17.572H195.978V40H192.702V17.572H185.826V14.908H202.818ZM220.062 40L214.086 29.74H210.126V40H206.85V14.908H214.95C216.846 14.908 218.442 15.232 219.738 15.88C221.058 16.528 222.042 17.404 222.69 18.508C223.338 19.612 223.662 20.872 223.662 22.288C223.662 24.016 223.158 25.54 222.15 26.86C221.166 28.18 219.678 29.056 217.686 29.488L223.986 40H220.062ZM210.126 27.112H214.95C216.726 27.112 218.058 26.68 218.946 25.816C219.834 24.928 220.278 23.752 220.278 22.288C220.278 20.8 219.834 19.648 218.946 18.832C218.082 18.016 216.75 17.608 214.95 17.608H210.126V27.112ZM243.584 34.42H232.64L230.624 40H227.168L236.24 15.052H240.02L249.056 40H245.6L243.584 34.42ZM242.648 31.756L238.112 19.084L233.576 31.756H242.648ZM251.786 27.436C251.786 24.988 252.338 22.792 253.442 20.848C254.546 18.88 256.046 17.344 257.942 16.24C259.862 15.136 261.986 14.584 264.314 14.584C267.05 14.584 269.438 15.244 271.478 16.564C273.518 17.884 275.006 19.756 275.942 22.18H272.018C271.322 20.668 270.314 19.504 268.994 18.688C267.698 17.872 266.138 17.464 264.314 17.464C262.562 17.464 260.99 17.872 259.598 18.688C258.206 19.504 257.114 20.668 256.322 22.18C255.53 23.668 255.134 25.42 255.134 27.436C255.134 29.428 255.53 31.18 256.322 32.692C257.114 34.18 258.206 35.332 259.598 36.148C260.99 36.964 262.562 37.372 264.314 37.372C266.138 37.372 267.698 36.976 268.994 36.184C270.314 35.368 271.322 34.204 272.018 32.692H275.942C275.006 35.092 273.518 36.952 271.478 38.272C269.438 39.568 267.05 40.216 264.314 40.216C261.986 40.216 259.862 39.676 257.942 38.596C256.046 37.492 254.546 35.968 253.442 34.024C252.338 32.08 251.786 29.884 251.786 27.436ZM294.427 40L284.095 28.552V40H280.819V14.908H284.095V26.536L294.463 14.908H298.603L287.227 27.472L298.711 40H294.427Z" fill="black"/>
<path d="M102.192 59L102.179 51.213L98.37 57.791H98.045L94.236 51.239V59H93.586V49.9H94.145L98.214 56.933L102.283 49.9H102.829L102.842 59H102.192ZM108.095 52.162C108.935 52.162 109.581 52.3787 110.032 52.812C110.482 53.2367 110.708 53.865 110.708 54.697V59H110.084V57.791C109.867 58.1897 109.551 58.5017 109.135 58.727C108.719 58.9437 108.22 59.052 107.64 59.052C106.886 59.052 106.288 58.8743 105.846 58.519C105.412 58.1637 105.196 57.6957 105.196 57.115C105.196 56.5517 105.395 56.0967 105.794 55.75C106.201 55.3947 106.847 55.217 107.731 55.217H110.058V54.671C110.058 54.0383 109.884 53.5573 109.538 53.228C109.2 52.8987 108.701 52.734 108.043 52.734C107.592 52.734 107.159 52.812 106.743 52.968C106.335 53.124 105.989 53.332 105.703 53.592L105.378 53.124C105.716 52.8207 106.123 52.5867 106.6 52.422C107.076 52.2487 107.575 52.162 108.095 52.162ZM107.731 58.519C108.294 58.519 108.771 58.389 109.161 58.129C109.559 57.869 109.858 57.492 110.058 56.998V55.724H107.744C107.076 55.724 106.591 55.8453 106.288 56.088C105.993 56.3307 105.846 56.6643 105.846 57.089C105.846 57.531 106.01 57.882 106.34 58.142C106.669 58.3933 107.133 58.519 107.731 58.519ZM114.01 53.696C114.218 53.202 114.543 52.825 114.985 52.565C115.427 52.2963 115.964 52.162 116.597 52.162V52.799L116.441 52.786C115.687 52.786 115.097 53.0243 114.673 53.501C114.248 53.969 114.036 54.6233 114.036 55.464V59H113.386V52.214H114.01V53.696ZM120.806 55.373L119.038 56.985V59H118.388V49.354H119.038V56.179L123.38 52.214H124.212L121.287 54.957L124.498 59H123.692L120.806 55.373ZM131.484 55.763H125.647C125.664 56.2917 125.799 56.764 126.05 57.18C126.301 57.5873 126.639 57.9037 127.064 58.129C127.497 58.3543 127.983 58.467 128.52 58.467C128.962 58.467 129.369 58.389 129.742 58.233C130.123 58.0683 130.44 57.83 130.691 57.518L131.068 57.947C130.773 58.3023 130.401 58.5753 129.95 58.766C129.508 58.9567 129.027 59.052 128.507 59.052C127.831 59.052 127.229 58.9047 126.7 58.61C126.171 58.3153 125.755 57.908 125.452 57.388C125.157 56.868 125.01 56.2743 125.01 55.607C125.01 54.9483 125.149 54.359 125.426 53.839C125.712 53.3103 126.102 52.8987 126.596 52.604C127.09 52.3093 127.645 52.162 128.26 52.162C128.875 52.162 129.426 52.3093 129.911 52.604C130.405 52.89 130.791 53.293 131.068 53.813C131.354 54.333 131.497 54.9223 131.497 55.581L131.484 55.763ZM128.26 52.734C127.783 52.734 127.354 52.8423 126.973 53.059C126.592 53.267 126.284 53.566 126.05 53.956C125.825 54.3373 125.695 54.7707 125.66 55.256H130.86C130.834 54.7707 130.704 54.3373 130.47 53.956C130.236 53.5747 129.928 53.2757 129.547 53.059C129.166 52.8423 128.737 52.734 128.26 52.734ZM136.875 58.571C136.71 58.727 136.502 58.8483 136.251 58.935C136.008 59.013 135.753 59.052 135.484 59.052C134.895 59.052 134.44 58.8917 134.119 58.571C133.798 58.2417 133.638 57.7867 133.638 57.206V52.773H132.39V52.214H133.638V50.732H134.288V52.214H136.446V52.773H134.288V57.141C134.288 57.583 134.392 57.921 134.6 58.155C134.817 58.3803 135.133 58.493 135.549 58.493C135.974 58.493 136.325 58.3673 136.602 58.116L136.875 58.571ZM147.863 56.439H142.585L141.428 59H140.713L144.899 49.9H145.562L149.748 59H149.033L147.863 56.439ZM147.616 55.88L145.224 50.628L142.845 55.88H147.616ZM153.82 59.052C153.161 59.052 152.572 58.9047 152.052 58.61C151.532 58.3153 151.125 57.908 150.83 57.388C150.535 56.8593 150.388 56.2657 150.388 55.607C150.388 54.9397 150.535 54.346 150.83 53.826C151.125 53.2973 151.532 52.89 152.052 52.604C152.572 52.3093 153.161 52.162 153.82 52.162C154.366 52.162 154.86 52.2703 155.302 52.487C155.753 52.695 156.117 53.0027 156.394 53.41L155.913 53.761C155.67 53.423 155.367 53.1717 155.003 53.007C154.648 52.8337 154.253 52.747 153.82 52.747C153.291 52.747 152.815 52.8683 152.39 53.111C151.974 53.345 151.645 53.6787 151.402 54.112C151.168 54.5453 151.051 55.0437 151.051 55.607C151.051 56.1703 151.168 56.6687 151.402 57.102C151.645 57.5353 151.974 57.8733 152.39 58.116C152.815 58.35 153.291 58.467 153.82 58.467C154.253 58.467 154.648 58.3847 155.003 58.22C155.367 58.0467 155.67 57.791 155.913 57.453L156.394 57.804C156.117 58.2113 155.753 58.5233 155.302 58.74C154.86 58.948 154.366 59.052 153.82 59.052ZM160.917 59.052C160.258 59.052 159.669 58.9047 159.149 58.61C158.629 58.3153 158.221 57.908 157.927 57.388C157.632 56.8593 157.485 56.2657 157.485 55.607C157.485 54.9397 157.632 54.346 157.927 53.826C158.221 53.2973 158.629 52.89 159.149 52.604C159.669 52.3093 160.258 52.162 160.917 52.162C161.463 52.162 161.957 52.2703 162.399 52.487C162.849 52.695 163.213 53.0027 163.491 53.41L163.01 53.761C162.767 53.423 162.464 53.1717 162.1 53.007C161.744 52.8337 161.35 52.747 160.917 52.747C160.388 52.747 159.911 52.8683 159.487 53.111C159.071 53.345 158.741 53.6787 158.499 54.112C158.265 54.5453 158.148 55.0437 158.148 55.607C158.148 56.1703 158.265 56.6687 158.499 57.102C158.741 57.5353 159.071 57.8733 159.487 58.116C159.911 58.35 160.388 58.467 160.917 58.467C161.35 58.467 161.744 58.3847 162.1 58.22C162.464 58.0467 162.767 57.791 163.01 57.453L163.491 57.804C163.213 58.2113 162.849 58.5233 162.399 58.74C161.957 58.948 161.463 59.052 160.917 59.052ZM171.055 55.763H165.218C165.236 56.2917 165.37 56.764 165.621 57.18C165.873 57.5873 166.211 57.9037 166.635 58.129C167.069 58.3543 167.554 58.467 168.091 58.467C168.533 58.467 168.941 58.389 169.313 58.233C169.695 58.0683 170.011 57.83 170.262 57.518L170.639 57.947C170.345 58.3023 169.972 58.5753 169.521 58.766C169.079 58.9567 168.598 59.052 168.078 59.052C167.402 59.052 166.8 58.9047 166.271 58.61C165.743 58.3153 165.327 57.908 165.023 57.388C164.729 56.868 164.581 56.2743 164.581 55.607C164.581 54.9483 164.72 54.359 164.997 53.839C165.283 53.3103 165.673 52.8987 166.167 52.604C166.661 52.3093 167.216 52.162 167.831 52.162C168.447 52.162 168.997 52.3093 169.482 52.604C169.976 52.89 170.362 53.293 170.639 53.813C170.925 54.333 171.068 54.9223 171.068 55.581L171.055 55.763ZM167.831 52.734C167.355 52.734 166.926 52.8423 166.544 53.059C166.163 53.267 165.855 53.566 165.621 53.956C165.396 54.3373 165.266 54.7707 165.231 55.256H170.431C170.405 54.7707 170.275 54.3373 170.041 53.956C169.807 53.5747 169.5 53.2757 169.118 53.059C168.737 52.8423 168.308 52.734 167.831 52.734ZM173.079 49.354H173.729V59H173.079V49.354ZM182.202 55.763H176.365C176.382 56.2917 176.516 56.764 176.768 57.18C177.019 57.5873 177.357 57.9037 177.782 58.129C178.215 58.3543 178.7 58.467 179.238 58.467C179.68 58.467 180.087 58.389 180.46 58.233C180.841 58.0683 181.157 57.83 181.409 57.518L181.786 57.947C181.491 58.3023 181.118 58.5753 180.668 58.766C180.226 58.9567 179.745 59.052 179.225 59.052C178.549 59.052 177.946 58.9047 177.418 58.61C176.889 58.3153 176.473 57.908 176.17 57.388C175.875 56.868 175.728 56.2743 175.728 55.607C175.728 54.9483 175.866 54.359 176.144 53.839C176.43 53.3103 176.82 52.8987 177.314 52.604C177.808 52.3093 178.362 52.162 178.978 52.162C179.593 52.162 180.143 52.3093 180.629 52.604C181.123 52.89 181.508 53.293 181.786 53.813C182.072 54.333 182.215 54.9223 182.215 55.581L182.202 55.763ZM178.978 52.734C178.501 52.734 178.072 52.8423 177.691 53.059C177.309 53.267 177.002 53.566 176.768 53.956C176.542 54.3373 176.412 54.7707 176.378 55.256H181.578C181.552 54.7707 181.422 54.3373 181.188 53.956C180.954 53.5747 180.646 53.2757 180.265 53.059C179.883 52.8423 179.454 52.734 178.978 52.734ZM184.85 53.696C185.058 53.202 185.383 52.825 185.825 52.565C186.267 52.2963 186.804 52.162 187.437 52.162V52.799L187.281 52.786C186.527 52.786 185.937 53.0243 185.513 53.501C185.088 53.969 184.876 54.6233 184.876 55.464V59H184.226V52.214H184.85V53.696ZM191.516 52.162C192.356 52.162 193.002 52.3787 193.453 52.812C193.903 53.2367 194.129 53.865 194.129 54.697V59H193.505V57.791C193.288 58.1897 192.972 58.5017 192.556 58.727C192.14 58.9437 191.641 59.052 191.061 59.052C190.307 59.052 189.709 58.8743 189.267 58.519C188.833 58.1637 188.617 57.6957 188.617 57.115C188.617 56.5517 188.816 56.0967 189.215 55.75C189.622 55.3947 190.268 55.217 191.152 55.217H193.479V54.671C193.479 54.0383 193.305 53.5573 192.959 53.228C192.621 52.8987 192.122 52.734 191.464 52.734C191.013 52.734 190.58 52.812 190.164 52.968C189.756 53.124 189.41 53.332 189.124 53.592L188.799 53.124C189.137 52.8207 189.544 52.5867 190.021 52.422C190.497 52.2487 190.996 52.162 191.516 52.162ZM191.152 58.519C191.715 58.519 192.192 58.389 192.582 58.129C192.98 57.869 193.279 57.492 193.479 56.998V55.724H191.165C190.497 55.724 190.012 55.8453 189.709 56.088C189.414 56.3307 189.267 56.6643 189.267 57.089C189.267 57.531 189.431 57.882 189.761 58.142C190.09 58.3933 190.554 58.519 191.152 58.519ZM200.174 58.571C200.009 58.727 199.801 58.8483 199.55 58.935C199.307 59.013 199.051 59.052 198.783 59.052C198.193 59.052 197.738 58.8917 197.418 58.571C197.097 58.2417 196.937 57.7867 196.937 57.206V52.773H195.689V52.214H196.937V50.732H197.587V52.214H199.745V52.773H197.587V57.141C197.587 57.583 197.691 57.921 197.899 58.155C198.115 58.3803 198.432 58.493 198.848 58.493C199.272 58.493 199.623 58.3673 199.901 58.116L200.174 58.571ZM204.397 59.052C203.756 59.052 203.175 58.9047 202.655 58.61C202.144 58.3153 201.741 57.908 201.446 57.388C201.152 56.8593 201.004 56.2657 201.004 55.607C201.004 54.9483 201.152 54.359 201.446 53.839C201.741 53.3103 202.144 52.8987 202.655 52.604C203.175 52.3093 203.756 52.162 204.397 52.162C205.039 52.162 205.615 52.3093 206.126 52.604C206.646 52.8987 207.054 53.3103 207.348 53.839C207.643 54.359 207.79 54.9483 207.79 55.607C207.79 56.2657 207.643 56.8593 207.348 57.388C207.054 57.908 206.646 58.3153 206.126 58.61C205.615 58.9047 205.039 59.052 204.397 59.052ZM204.397 58.467C204.917 58.467 205.381 58.3457 205.788 58.103C206.204 57.8603 206.529 57.5223 206.763 57.089C207.006 56.6557 207.127 56.1617 207.127 55.607C207.127 55.0523 207.006 54.5583 206.763 54.125C206.529 53.6917 206.204 53.3537 205.788 53.111C205.381 52.8683 204.917 52.747 204.397 52.747C203.877 52.747 203.409 52.8683 202.993 53.111C202.586 53.3537 202.261 53.6917 202.018 54.125C201.784 54.5583 201.667 55.0523 201.667 55.607C201.667 56.1617 201.784 56.6557 202.018 57.089C202.261 57.5223 202.586 57.8603 202.993 58.103C203.409 58.3457 203.877 58.467 204.397 58.467ZM210.431 53.696C210.639 53.202 210.964 52.825 211.406 52.565C211.848 52.2963 212.385 52.162 213.018 52.162V52.799L212.862 52.786C212.108 52.786 211.518 53.0243 211.094 53.501C210.669 53.969 210.457 54.6233 210.457 55.464V59H209.807V52.214H210.431V53.696Z" fill="black"/>
</svg>
