<svg width="300" height="82" viewBox="0 0 300 82" fill="none" xmlns="http://www.w3.org/2000/svg">
<path d="M2.66345e-05 19.5133C2.76581e-05 18.166 0.85669 17.0138 2.23287 16.5102L41.032 2.31247C43.8814 1.26978 47.3516 3.39724 47.3516 6.18685L47.3515 41.2459C47.3515 42.5932 46.4949 43.7453 45.1187 44.2489L6.31955 58.4467C3.47012 59.4894 -2.11929e-06 57.3619 0 54.5723L2.66345e-05 19.5133Z" fill="#FF9900"/>
<path d="M15 31.5133C15 30.166 15.8567 29.0138 17.2329 28.5102L56.032 14.3125C58.8814 13.2698 62.3516 15.3972 62.3516 18.1869L62.3515 53.2459C62.3515 54.5932 61.4949 55.7453 60.1187 56.2489L21.3195 70.4467C18.4701 71.4894 15 69.3619 15 66.5723L15 31.5133Z" fill="#C4C4C4"/>
<path d="M31 42.5133C31 41.166 31.8567 40.0138 33.2329 39.5102L72.032 25.3125C74.8814 24.2698 78.3516 26.3972 78.3516 29.1869L78.3515 64.2459C78.3515 65.5932 77.4949 66.7453 76.1187 67.2489L37.3195 81.4467C34.4701 82.4894 31 80.3619 31 77.5723L31 42.5133Z" fill="#0099D9"/>
<path d="M108.257 13.37V16.532H98.2274V23.502H106.047V26.664H98.2274V37H94.3514V13.37H108.257ZM126.095 32.172H116.201L114.501 37H110.455L118.921 13.336H123.409L131.875 37H127.795L126.095 32.172ZM125.007 29.01L121.165 18.028L117.289 29.01H125.007ZM143.342 37.238C141.756 37.238 140.328 36.966 139.058 36.422C137.789 35.8553 136.792 35.062 136.066 34.042C135.341 33.022 134.978 31.832 134.978 30.472H139.126C139.217 31.492 139.614 32.3307 140.316 32.988C141.042 33.6453 142.05 33.974 143.342 33.974C144.68 33.974 145.722 33.6567 146.47 33.022C147.218 32.3647 147.592 31.526 147.592 30.506C147.592 29.7127 147.354 29.0667 146.878 28.568C146.425 28.0693 145.847 27.684 145.144 27.412C144.464 27.14 143.512 26.8453 142.288 26.528C140.747 26.12 139.489 25.712 138.514 25.304C137.562 24.8733 136.746 24.216 136.066 23.332C135.386 22.448 135.046 21.2693 135.046 19.796C135.046 18.436 135.386 17.246 136.066 16.226C136.746 15.206 137.698 14.424 138.922 13.88C140.146 13.336 141.563 13.064 143.172 13.064C145.462 13.064 147.332 13.642 148.782 14.798C150.256 15.9313 151.072 17.4953 151.23 19.49H146.946C146.878 18.6287 146.47 17.892 145.722 17.28C144.974 16.668 143.988 16.362 142.764 16.362C141.654 16.362 140.747 16.6453 140.044 17.212C139.342 17.7787 138.99 18.5947 138.99 19.66C138.99 20.3853 139.206 20.986 139.636 21.462C140.09 21.9153 140.656 22.278 141.336 22.55C142.016 22.822 142.946 23.1167 144.124 23.434C145.688 23.8647 146.958 24.2953 147.932 24.726C148.93 25.1567 149.768 25.8253 150.448 26.732C151.151 27.616 151.502 28.806 151.502 30.302C151.502 31.5033 151.174 32.6367 150.516 33.702C149.882 34.7673 148.941 35.6287 147.694 36.286C146.47 36.9207 145.02 37.238 143.342 37.238ZM171.342 13.37V16.532H165.052V37H161.176V16.532H154.852V13.37H171.342ZM199.365 13.37V16.532H193.075V37H189.199V16.532H182.875V13.37H199.365ZM215.565 37L210.125 27.548H207.167V37H203.291V13.37H211.451C213.264 13.37 214.794 13.6873 216.041 14.322C217.31 14.9567 218.251 15.8067 218.863 16.872C219.498 17.9373 219.815 19.1273 219.815 20.442C219.815 21.9833 219.362 23.3887 218.455 24.658C217.571 25.9047 216.2 26.7547 214.341 27.208L220.189 37H215.565ZM207.167 24.454H211.451C212.902 24.454 213.99 24.0913 214.715 23.366C215.463 22.6407 215.837 21.666 215.837 20.442C215.837 19.218 215.474 18.266 214.749 17.586C214.024 16.8833 212.924 16.532 211.451 16.532H207.167V24.454ZM239.019 32.172H229.125L227.425 37H223.379L231.845 13.336H236.333L244.799 37H240.719L239.019 32.172ZM237.931 29.01L234.089 18.028L230.213 29.01H237.931ZM247.188 25.134C247.188 22.822 247.721 20.748 248.786 18.912C249.874 17.076 251.336 15.648 253.172 14.628C255.031 13.5853 257.06 13.064 259.258 13.064C261.774 13.064 264.007 13.6873 265.956 14.934C267.928 16.158 269.356 17.9033 270.24 20.17H265.582C264.97 18.9233 264.12 17.994 263.032 17.382C261.944 16.77 260.686 16.464 259.258 16.464C257.694 16.464 256.3 16.8153 255.076 17.518C253.852 18.2207 252.889 19.2293 252.186 20.544C251.506 21.8587 251.166 23.3887 251.166 25.134C251.166 26.8793 251.506 28.4093 252.186 29.724C252.889 31.0387 253.852 32.0587 255.076 32.784C256.3 33.4867 257.694 33.838 259.258 33.838C260.686 33.838 261.944 33.532 263.032 32.92C264.12 32.308 264.97 31.3787 265.582 30.132H270.24C269.356 32.3987 267.928 34.144 265.956 35.368C264.007 36.592 261.774 37.204 259.258 37.204C257.037 37.204 255.008 36.694 253.172 35.674C251.336 34.6313 249.874 33.192 248.786 31.356C247.721 29.52 247.188 27.446 247.188 25.134ZM287.799 37L278.653 26.426V37H274.777V13.37H278.653V24.148L287.833 13.37H292.695L282.427 25.202L292.865 37H287.799Z" fill="white"/>
<path d="M93.683 46.661H95.247L98.698 52.56L102.149 46.661H103.679L104.206 58H102.608L102.234 49.296L99.038 54.651H98.222L95.077 49.364L94.686 58H93.156L93.683 46.661ZM111.199 54.26C111.154 54.2487 111.063 54.2373 110.927 54.226C110.802 54.2033 110.655 54.1863 110.485 54.175C110.315 54.1637 110.134 54.1523 109.941 54.141C109.748 54.1297 109.561 54.124 109.38 54.124C108.949 54.124 108.598 54.175 108.326 54.277C108.065 54.379 107.856 54.5093 107.697 54.668C107.55 54.8153 107.448 54.9853 107.391 55.178C107.334 55.3593 107.306 55.535 107.306 55.705C107.306 56.1357 107.453 56.4643 107.748 56.691C108.043 56.9063 108.451 57.014 108.972 57.014C109.267 57.014 109.544 56.963 109.805 56.861C110.077 56.759 110.315 56.623 110.519 56.453C110.723 56.283 110.887 56.0847 111.012 55.858C111.137 55.6313 111.199 55.399 111.199 55.161V54.26ZM111.216 57.048C110.921 57.4447 110.53 57.7393 110.043 57.932C109.567 58.1247 109.074 58.221 108.564 58.221C108.235 58.221 107.907 58.1757 107.578 58.085C107.261 58.0057 106.966 57.8697 106.694 57.677C106.433 57.473 106.218 57.218 106.048 56.912C105.889 56.5947 105.81 56.2093 105.81 55.756C105.81 54.906 106.105 54.226 106.694 53.716C107.295 53.206 108.156 52.951 109.278 52.951C109.459 52.951 109.652 52.9567 109.856 52.968C110.06 52.9793 110.253 52.9907 110.434 53.002C110.615 53.0133 110.774 53.0247 110.91 53.036C111.046 53.0473 111.142 53.0587 111.199 53.07V52.781C111.199 52.1917 111.018 51.7723 110.655 51.523C110.304 51.2623 109.822 51.132 109.21 51.132C108.609 51.132 108.133 51.217 107.782 51.387C107.431 51.5457 107.136 51.71 106.898 51.88L106.184 50.843C106.32 50.7297 106.484 50.6163 106.677 50.503C106.87 50.3897 107.096 50.2877 107.357 50.197C107.618 50.095 107.912 50.0157 108.241 49.959C108.57 49.891 108.949 49.857 109.38 49.857C110.4 49.857 111.199 50.1063 111.777 50.605C112.366 51.0923 112.661 51.7893 112.661 52.696V56.436C112.661 56.7307 112.661 57.0197 112.661 57.303C112.661 57.575 112.667 57.8073 112.678 58H111.25L111.216 57.048ZM114.752 51.71C114.752 51.3813 114.752 51.098 114.752 50.86C114.752 50.6107 114.747 50.3557 114.735 50.095H116.197L116.248 51.37C116.339 51.234 116.458 51.0867 116.605 50.928C116.753 50.758 116.928 50.605 117.132 50.469C117.348 50.333 117.591 50.2197 117.863 50.129C118.147 50.027 118.47 49.976 118.832 49.976C119.002 49.976 119.155 49.9873 119.291 50.01C119.439 50.0327 119.575 50.0667 119.699 50.112L119.359 51.54C119.155 51.4607 118.895 51.421 118.577 51.421C118.249 51.421 117.943 51.4833 117.659 51.608C117.387 51.7327 117.149 51.9083 116.945 52.135C116.741 52.3503 116.577 52.6053 116.452 52.9C116.339 53.1947 116.282 53.5063 116.282 53.835V58H114.752V51.71ZM120.928 46.661H122.458V53.342L125.773 50.095H127.609L124.617 53.019L128.051 58H126.232L123.546 54.039L122.458 55.093V58H120.928V46.661ZM136.47 56.844C136.379 56.946 136.243 57.0763 136.062 57.235C135.881 57.3937 135.643 57.5467 135.348 57.694C135.065 57.8413 134.725 57.966 134.328 58.068C133.943 58.1813 133.501 58.238 133.002 58.238C132.39 58.238 131.829 58.136 131.319 57.932C130.809 57.728 130.373 57.439 130.01 57.065C129.647 56.691 129.364 56.2433 129.16 55.722C128.967 55.2007 128.871 54.6227 128.871 53.988C128.871 53.41 128.967 52.8717 129.16 52.373C129.353 51.863 129.625 51.4267 129.976 51.064C130.327 50.69 130.741 50.3953 131.217 50.18C131.704 49.9647 132.237 49.857 132.815 49.857C133.495 49.857 134.079 49.9873 134.566 50.248C135.053 50.5087 135.45 50.8543 135.756 51.285C136.073 51.7157 136.306 52.2087 136.453 52.764C136.6 53.3193 136.674 53.8973 136.674 54.498H130.435C130.446 54.8493 130.52 55.1723 130.656 55.467C130.803 55.7617 130.996 56.0167 131.234 56.232C131.472 56.4473 131.744 56.6173 132.05 56.742C132.356 56.8667 132.679 56.929 133.019 56.929C133.688 56.929 134.237 56.8157 134.668 56.589C135.099 56.3623 135.41 56.1413 135.603 55.926L136.47 56.844ZM135.093 53.359C135.048 52.747 134.832 52.2257 134.447 51.795C134.062 51.3643 133.518 51.149 132.815 51.149C132.452 51.149 132.124 51.2113 131.829 51.336C131.546 51.4607 131.302 51.625 131.098 51.829C130.894 52.033 130.735 52.271 130.622 52.543C130.509 52.8037 130.446 53.0757 130.435 53.359H135.093ZM139.056 51.37H137.628V50.095H139.056V47.511H140.586V50.095H142.898V51.37H140.586V55.263C140.586 55.8977 140.683 56.334 140.875 56.572C141.079 56.81 141.363 56.929 141.725 56.929C142.02 56.929 142.264 56.8837 142.456 56.793C142.649 56.7023 142.842 56.5663 143.034 56.385L143.731 57.32C143.403 57.6373 143.063 57.864 142.711 58C142.371 58.1473 141.963 58.221 141.487 58.221C140.649 58.221 140.031 57.9943 139.634 57.541C139.249 57.0877 139.056 56.3793 139.056 55.416V51.37ZM151.525 46.661H153.191L157.628 58H155.809L154.636 54.838H149.978L148.805 58H147.088L151.525 46.661ZM154.143 53.461L152.307 48.48L150.454 53.461H154.143ZM165.731 56.912C165.379 57.3087 164.943 57.6317 164.422 57.881C163.912 58.119 163.317 58.238 162.637 58.238C162.002 58.238 161.424 58.136 160.903 57.932C160.393 57.7167 159.956 57.4277 159.594 57.065C159.242 56.691 158.97 56.249 158.778 55.739C158.585 55.2177 158.489 54.651 158.489 54.039C158.489 53.461 158.591 52.917 158.795 52.407C158.999 51.897 159.282 51.455 159.645 51.081C160.019 50.6957 160.455 50.3953 160.954 50.18C161.464 49.9533 162.025 49.84 162.637 49.84C163.305 49.84 163.895 49.959 164.405 50.197C164.915 50.435 165.351 50.758 165.714 51.166L164.711 52.135C164.473 51.8403 164.184 51.608 163.844 51.438C163.504 51.268 163.101 51.183 162.637 51.183C162.229 51.183 161.86 51.2623 161.532 51.421C161.214 51.5683 160.942 51.778 160.716 52.05C160.5 52.3107 160.33 52.6167 160.206 52.968C160.092 53.308 160.036 53.665 160.036 54.039C160.036 54.4017 160.092 54.7587 160.206 55.11C160.33 55.45 160.5 55.756 160.716 56.028C160.942 56.2887 161.214 56.4983 161.532 56.657C161.86 56.8157 162.229 56.895 162.637 56.895C163.101 56.895 163.515 56.81 163.878 56.64C164.252 56.4587 164.558 56.2207 164.796 55.926L165.731 56.912ZM174.114 56.912C173.763 57.3087 173.327 57.6317 172.805 57.881C172.295 58.119 171.7 58.238 171.02 58.238C170.386 58.238 169.808 58.136 169.286 57.932C168.776 57.7167 168.34 57.4277 167.977 57.065C167.626 56.691 167.354 56.249 167.161 55.739C166.969 55.2177 166.872 54.651 166.872 54.039C166.872 53.461 166.974 52.917 167.178 52.407C167.382 51.897 167.666 51.455 168.028 51.081C168.402 50.6957 168.839 50.3953 169.337 50.18C169.847 49.9533 170.408 49.84 171.02 49.84C171.689 49.84 172.278 49.959 172.788 50.197C173.298 50.435 173.735 50.758 174.097 51.166L173.094 52.135C172.856 51.8403 172.567 51.608 172.227 51.438C171.887 51.268 171.485 51.183 171.02 51.183C170.612 51.183 170.244 51.2623 169.915 51.421C169.598 51.5683 169.326 51.778 169.099 52.05C168.884 52.3107 168.714 52.6167 168.589 52.968C168.476 53.308 168.419 53.665 168.419 54.039C168.419 54.4017 168.476 54.7587 168.589 55.11C168.714 55.45 168.884 55.756 169.099 56.028C169.326 56.2887 169.598 56.4983 169.915 56.657C170.244 56.8157 170.612 56.895 171.02 56.895C171.485 56.895 171.899 56.81 172.261 56.64C172.635 56.4587 172.941 56.2207 173.179 55.926L174.114 56.912ZM182.838 56.844C182.748 56.946 182.612 57.0763 182.43 57.235C182.249 57.3937 182.011 57.5467 181.716 57.694C181.433 57.8413 181.093 57.966 180.696 58.068C180.311 58.1813 179.869 58.238 179.37 58.238C178.758 58.238 178.197 58.136 177.687 57.932C177.177 57.728 176.741 57.439 176.378 57.065C176.016 56.691 175.732 56.2433 175.528 55.722C175.336 55.2007 175.239 54.6227 175.239 53.988C175.239 53.41 175.336 52.8717 175.528 52.373C175.721 51.863 175.993 51.4267 176.344 51.064C176.696 50.69 177.109 50.3953 177.585 50.18C178.073 49.9647 178.605 49.857 179.183 49.857C179.863 49.857 180.447 49.9873 180.934 50.248C181.422 50.5087 181.818 50.8543 182.124 51.285C182.442 51.7157 182.674 52.2087 182.821 52.764C182.969 53.3193 183.042 53.8973 183.042 54.498H176.803C176.815 54.8493 176.888 55.1723 177.024 55.467C177.172 55.7617 177.364 56.0167 177.602 56.232C177.84 56.4473 178.112 56.6173 178.418 56.742C178.724 56.8667 179.047 56.929 179.387 56.929C180.056 56.929 180.606 56.8157 181.036 56.589C181.467 56.3623 181.779 56.1413 181.971 55.926L182.838 56.844ZM181.461 53.359C181.416 52.747 181.201 52.2257 180.815 51.795C180.43 51.3643 179.886 51.149 179.183 51.149C178.821 51.149 178.492 51.2113 178.197 51.336C177.914 51.4607 177.67 51.625 177.466 51.829C177.262 52.033 177.104 52.271 176.99 52.543C176.877 52.8037 176.815 53.0757 176.803 53.359H181.461ZM184.744 46.661H186.274V58H184.744V46.661ZM195.588 56.844C195.498 56.946 195.362 57.0763 195.18 57.235C194.999 57.3937 194.761 57.5467 194.466 57.694C194.183 57.8413 193.843 57.966 193.446 58.068C193.061 58.1813 192.619 58.238 192.12 58.238C191.508 58.238 190.947 58.136 190.437 57.932C189.927 57.728 189.491 57.439 189.128 57.065C188.766 56.691 188.482 56.2433 188.278 55.722C188.086 55.2007 187.989 54.6227 187.989 53.988C187.989 53.41 188.086 52.8717 188.278 52.373C188.471 51.863 188.743 51.4267 189.094 51.064C189.446 50.69 189.859 50.3953 190.335 50.18C190.823 49.9647 191.355 49.857 191.933 49.857C192.613 49.857 193.197 49.9873 193.684 50.248C194.172 50.5087 194.568 50.8543 194.874 51.285C195.192 51.7157 195.424 52.2087 195.571 52.764C195.719 53.3193 195.792 53.8973 195.792 54.498H189.553C189.565 54.8493 189.638 55.1723 189.774 55.467C189.922 55.7617 190.114 56.0167 190.352 56.232C190.59 56.4473 190.862 56.6173 191.168 56.742C191.474 56.8667 191.797 56.929 192.137 56.929C192.806 56.929 193.356 56.8157 193.786 56.589C194.217 56.3623 194.529 56.1413 194.721 55.926L195.588 56.844ZM194.211 53.359C194.166 52.747 193.951 52.2257 193.565 51.795C193.18 51.3643 192.636 51.149 191.933 51.149C191.571 51.149 191.242 51.2113 190.947 51.336C190.664 51.4607 190.42 51.625 190.216 51.829C190.012 52.033 189.854 52.271 189.74 52.543C189.627 52.8037 189.565 53.0757 189.553 53.359H194.211ZM197.494 51.71C197.494 51.3813 197.494 51.098 197.494 50.86C197.494 50.6107 197.489 50.3557 197.477 50.095H198.939L198.99 51.37C199.081 51.234 199.2 51.0867 199.347 50.928C199.495 50.758 199.67 50.605 199.874 50.469C200.09 50.333 200.333 50.2197 200.605 50.129C200.889 50.027 201.212 49.976 201.574 49.976C201.744 49.976 201.897 49.9873 202.033 50.01C202.181 50.0327 202.317 50.0667 202.441 50.112L202.101 51.54C201.897 51.4607 201.637 51.421 201.319 51.421C200.991 51.421 200.685 51.4833 200.401 51.608C200.129 51.7327 199.891 51.9083 199.687 52.135C199.483 52.3503 199.319 52.6053 199.194 52.9C199.081 53.1947 199.024 53.5063 199.024 53.835V58H197.494V51.71ZM208.185 54.26C208.14 54.2487 208.049 54.2373 207.913 54.226C207.789 54.2033 207.641 54.1863 207.471 54.175C207.301 54.1637 207.12 54.1523 206.927 54.141C206.735 54.1297 206.548 54.124 206.366 54.124C205.936 54.124 205.584 54.175 205.312 54.277C205.052 54.379 204.842 54.5093 204.683 54.668C204.536 54.8153 204.434 54.9853 204.377 55.178C204.321 55.3593 204.292 55.535 204.292 55.705C204.292 56.1357 204.44 56.4643 204.734 56.691C205.029 56.9063 205.437 57.014 205.958 57.014C206.253 57.014 206.531 56.963 206.791 56.861C207.063 56.759 207.301 56.623 207.505 56.453C207.709 56.283 207.874 56.0847 207.998 55.858C208.123 55.6313 208.185 55.399 208.185 55.161V54.26ZM208.202 57.048C207.908 57.4447 207.517 57.7393 207.029 57.932C206.553 58.1247 206.06 58.221 205.55 58.221C205.222 58.221 204.893 58.1757 204.564 58.085C204.247 58.0057 203.952 57.8697 203.68 57.677C203.42 57.473 203.204 57.218 203.034 56.912C202.876 56.5947 202.796 56.2093 202.796 55.756C202.796 54.906 203.091 54.226 203.68 53.716C204.281 53.206 205.142 52.951 206.264 52.951C206.446 52.951 206.638 52.9567 206.842 52.968C207.046 52.9793 207.239 52.9907 207.42 53.002C207.602 53.0133 207.76 53.0247 207.896 53.036C208.032 53.0473 208.129 53.0587 208.185 53.07V52.781C208.185 52.1917 208.004 51.7723 207.641 51.523C207.29 51.2623 206.808 51.132 206.196 51.132C205.596 51.132 205.12 51.217 204.768 51.387C204.417 51.5457 204.122 51.71 203.884 51.88L203.17 50.843C203.306 50.7297 203.471 50.6163 203.663 50.503C203.856 50.3897 204.083 50.2877 204.343 50.197C204.604 50.095 204.899 50.0157 205.227 49.959C205.556 49.891 205.936 49.857 206.366 49.857C207.386 49.857 208.185 50.1063 208.763 50.605C209.353 51.0923 209.647 51.7893 209.647 52.696V56.436C209.647 56.7307 209.647 57.0197 209.647 57.303C209.647 57.575 209.653 57.8073 209.664 58H208.236L208.202 57.048ZM212.419 51.37H210.991V50.095H212.419V47.511H213.949V50.095H216.261V51.37H213.949V55.263C213.949 55.8977 214.045 56.334 214.238 56.572C214.442 56.81 214.725 56.929 215.088 56.929C215.382 56.929 215.626 56.8837 215.819 56.793C216.011 56.7023 216.204 56.5663 216.397 56.385L217.094 57.32C216.765 57.6373 216.425 57.864 216.074 58C215.734 58.1473 215.326 58.221 214.85 58.221C214.011 58.221 213.393 57.9943 212.997 57.541C212.611 57.0877 212.419 56.3793 212.419 55.416V51.37ZM221.556 58.238C220.944 58.238 220.383 58.1303 219.873 57.915C219.363 57.6883 218.921 57.3823 218.547 56.997C218.185 56.6117 217.896 56.1697 217.68 55.671C217.476 55.161 217.374 54.617 217.374 54.039C217.374 53.461 217.476 52.9227 217.68 52.424C217.896 51.914 218.185 51.4663 218.547 51.081C218.921 50.6957 219.363 50.3953 219.873 50.18C220.383 49.9533 220.944 49.84 221.556 49.84C222.157 49.84 222.712 49.9533 223.222 50.18C223.732 50.3953 224.174 50.6957 224.548 51.081C224.922 51.4663 225.211 51.914 225.415 52.424C225.631 52.9227 225.738 53.461 225.738 54.039C225.738 54.617 225.631 55.161 225.415 55.671C225.211 56.1697 224.922 56.6117 224.548 56.997C224.174 57.3823 223.732 57.6883 223.222 57.915C222.712 58.1303 222.157 58.238 221.556 58.238ZM221.556 56.912C221.964 56.912 222.333 56.8327 222.661 56.674C222.99 56.504 223.268 56.2887 223.494 56.028C223.721 55.756 223.891 55.45 224.004 55.11C224.129 54.7587 224.191 54.4017 224.191 54.039C224.191 53.6877 224.129 53.342 224.004 53.002C223.891 52.6507 223.715 52.339 223.477 52.067C223.251 51.795 222.973 51.5797 222.644 51.421C222.327 51.251 221.964 51.166 221.556 51.166C221.148 51.166 220.78 51.251 220.451 51.421C220.123 51.5797 219.845 51.795 219.618 52.067C219.392 52.3277 219.216 52.6337 219.091 52.985C218.978 53.325 218.921 53.6763 218.921 54.039C218.921 54.4017 218.978 54.753 219.091 55.093C219.216 55.433 219.392 55.739 219.618 56.011C219.856 56.283 220.134 56.504 220.451 56.674C220.78 56.8327 221.148 56.912 221.556 56.912ZM227.477 51.71C227.477 51.3813 227.477 51.098 227.477 50.86C227.477 50.6107 227.471 50.3557 227.46 50.095H228.922L228.973 51.37C229.064 51.234 229.183 51.0867 229.33 50.928C229.477 50.758 229.653 50.605 229.857 50.469C230.072 50.333 230.316 50.2197 230.588 50.129C230.871 50.027 231.194 49.976 231.557 49.976C231.727 49.976 231.88 49.9873 232.016 50.01C232.163 50.0327 232.299 50.0667 232.424 50.112L232.084 51.54C231.88 51.4607 231.619 51.421 231.302 51.421C230.973 51.421 230.667 51.4833 230.384 51.608C230.112 51.7327 229.874 51.9083 229.67 52.135C229.466 52.3503 229.302 52.6053 229.177 52.9C229.064 53.1947 229.007 53.5063 229.007 53.835V58H227.477V51.71Z" fill="white"/>
</svg>
