<svg width="158" height="149" viewBox="0 0 158 149" fill="none" xmlns="http://www.w3.org/2000/svg">
<path d="M31.0075 0C29.5016 0.291016 28.4153 1.65752 28.44 3.23913V51.8261H12.64V58.3043H0V77.7391H12.64V132.804C12.64 141.712 19.75 149 28.44 149H129.56C138.25 149 145.36 141.712 145.36 132.804V77.7391H158V58.3043H145.36V51.8261H129.56V3.23913C129.56 1.45508 128.14 0 126.4 0H31.6C31.5013 0 31.4025 0 31.3038 0C31.205 0 31.1063 0 31.0075 0ZM34.76 6.47826H123.24V51.8261H96.38C90.3069 51.8261 85.32 56.9378 85.32 63.163C85.32 69.3882 90.3069 74.5 96.38 74.5H104.28C106.07 74.5 107.44 75.9045 107.44 77.7391C107.44 79.5738 106.07 80.9783 104.28 80.9783H53.72C51.9302 80.9783 50.56 79.5738 50.56 77.7391C50.56 75.9045 51.9302 74.5 53.72 74.5H61.62C67.6931 74.5 72.68 69.3882 72.68 63.163C72.68 56.9378 67.6931 51.8261 61.62 51.8261H34.9575C34.8958 51.8261 34.8217 51.8261 34.76 51.8261V6.47826ZM49.9675 19.4348C48.227 19.5993 46.9433 21.1935 47.1038 22.9776C47.2642 24.7616 48.8195 26.0775 50.56 25.913H107.44C108.576 25.9257 109.637 25.3184 110.217 24.3061C110.785 23.2939 110.785 22.0539 110.217 21.0417C109.637 20.0295 108.576 19.4221 107.44 19.4348H50.56C50.4613 19.4348 50.3625 19.4348 50.2638 19.4348C50.165 19.4348 50.0663 19.4348 49.9675 19.4348ZM49.9675 32.3913C48.227 32.5558 46.9433 34.1501 47.1038 35.9341C47.2642 37.7182 48.8195 39.0341 50.56 38.8696H91.64C92.7756 38.8822 93.8372 38.2749 94.4173 37.2627C94.9852 36.2504 94.9852 35.0104 94.4173 33.9982C93.8372 32.986 92.7756 32.3787 91.64 32.3913H50.56C50.4613 32.3913 50.3625 32.3913 50.2638 32.3913C50.165 32.3913 50.0663 32.3913 49.9675 32.3913ZM18.96 58.3043H61.62C64.2739 58.3043 66.36 60.4427 66.36 63.163C66.36 65.8834 64.2739 68.0217 61.62 68.0217H53.72C48.5233 68.0217 44.24 72.4123 44.24 77.7391C44.24 83.066 48.5233 87.4565 53.72 87.4565H104.28C109.477 87.4565 113.76 83.066 113.76 77.7391C113.76 72.4123 109.477 68.0217 104.28 68.0217H96.38C93.7261 68.0217 91.64 65.8834 91.64 63.163C91.64 60.4427 93.7261 58.3043 96.38 58.3043H139.04V132.804C139.04 138.207 134.831 142.522 129.56 142.522H28.44C23.1692 142.522 18.96 138.207 18.96 132.804V58.3043ZM6.32 64.7826H12.64V71.2609H6.32V64.7826ZM145.36 64.7826H151.68V71.2609H145.36V64.7826ZM34.76 100.413C33.0195 100.413 31.6 101.868 31.6 103.652C31.6 105.436 33.0195 106.891 34.76 106.891C36.5005 106.891 37.92 105.436 37.92 103.652C37.92 101.868 36.5005 100.413 34.76 100.413ZM47.4 100.413C45.6595 100.413 44.24 101.868 44.24 103.652C44.24 105.436 45.6595 106.891 47.4 106.891C49.1405 106.891 50.56 105.436 50.56 103.652C50.56 101.868 49.1405 100.413 47.4 100.413ZM60.04 100.413C58.2995 100.413 56.88 101.868 56.88 103.652C56.88 105.436 58.2995 106.891 60.04 106.891C61.7805 106.891 63.2 105.436 63.2 103.652C63.2 101.868 61.7805 100.413 60.04 100.413ZM72.68 100.413C70.9395 100.413 69.52 101.868 69.52 103.652C69.52 105.436 70.9395 106.891 72.68 106.891C74.4205 106.891 75.84 105.436 75.84 103.652C75.84 101.868 74.4205 100.413 72.68 100.413ZM85.32 100.413C83.5795 100.413 82.16 101.868 82.16 103.652C82.16 105.436 83.5795 106.891 85.32 106.891C87.0605 106.891 88.48 105.436 88.48 103.652C88.48 101.868 87.0605 100.413 85.32 100.413ZM97.96 100.413C96.2195 100.413 94.8 101.868 94.8 103.652C94.8 105.436 96.2195 106.891 97.96 106.891C99.7005 106.891 101.12 105.436 101.12 103.652C101.12 101.868 99.7005 100.413 97.96 100.413ZM110.6 100.413C108.86 100.413 107.44 101.868 107.44 103.652C107.44 105.436 108.86 106.891 110.6 106.891C112.34 106.891 113.76 105.436 113.76 103.652C113.76 101.868 112.34 100.413 110.6 100.413ZM123.24 100.413C121.5 100.413 120.08 101.868 120.08 103.652C120.08 105.436 121.5 106.891 123.24 106.891C124.98 106.891 126.4 105.436 126.4 103.652C126.4 101.868 124.98 100.413 123.24 100.413ZM41.08 113.37C39.3395 113.37 37.92 114.825 37.92 116.609C37.92 118.393 39.3395 119.848 41.08 119.848C42.8205 119.848 44.24 118.393 44.24 116.609C44.24 114.825 42.8205 113.37 41.08 113.37ZM53.72 113.37C51.9795 113.37 50.56 114.825 50.56 116.609C50.56 118.393 51.9795 119.848 53.72 119.848C55.4605 119.848 56.88 118.393 56.88 116.609C56.88 114.825 55.4605 113.37 53.72 113.37ZM66.36 113.37C64.6195 113.37 63.2 114.825 63.2 116.609C63.2 118.393 64.6195 119.848 66.36 119.848C68.1005 119.848 69.52 118.393 69.52 116.609C69.52 114.825 68.1005 113.37 66.36 113.37ZM79 113.37C77.2595 113.37 75.84 114.825 75.84 116.609C75.84 118.393 77.2595 119.848 79 119.848C80.7405 119.848 82.16 118.393 82.16 116.609C82.16 114.825 80.7405 113.37 79 113.37ZM91.64 113.37C89.8995 113.37 88.48 114.825 88.48 116.609C88.48 118.393 89.8995 119.848 91.64 119.848C93.3805 119.848 94.8 118.393 94.8 116.609C94.8 114.825 93.3805 113.37 91.64 113.37ZM104.28 113.37C102.54 113.37 101.12 114.825 101.12 116.609C101.12 118.393 102.54 119.848 104.28 119.848C106.02 119.848 107.44 118.393 107.44 116.609C107.44 114.825 106.02 113.37 104.28 113.37ZM116.92 113.37C115.18 113.37 113.76 114.825 113.76 116.609C113.76 118.393 115.18 119.848 116.92 119.848C118.66 119.848 120.08 118.393 120.08 116.609C120.08 114.825 118.66 113.37 116.92 113.37ZM50.56 126.326C48.8195 126.326 47.4 127.781 47.4 129.565C47.4 131.349 48.8195 132.804 50.56 132.804H107.44C109.18 132.804 110.6 131.349 110.6 129.565C110.6 127.781 109.18 126.326 107.44 126.326H50.56Z" fill="#FCB800"/>
</svg>
