<svg width="109" height="136" viewBox="0 0 109 136" fill="none" xmlns="http://www.w3.org/2000/svg">
<path d="M3.02386 0.919983C1.5084 1.18772 0.41527 2.44491 0.440112 3.89998V123.1C0.440112 124.741 1.86863 126.08 3.62011 126.08H22.7001V120.12H6.80011V6.87998H102.2V120.12H60.8601V126.08H105.38C107.132 126.08 108.56 124.741 108.56 123.1V3.89998C108.56 2.25866 107.132 0.919983 105.38 0.919983H3.62011C3.52074 0.919983 3.42136 0.919983 3.32199 0.919983C3.22261 0.919983 3.12324 0.919983 3.02386 0.919983ZM22.7001 36.68V42.64H86.3001V36.68H22.7001ZM22.7001 54.56V60.52H86.3001V54.56H22.7001ZM41.7801 78.4C39.3206 78.4 37.2958 79.6805 35.8176 81.4731C33.6065 81.0191 31.2215 81.1239 29.2589 82.5906C27.3086 84.0573 26.7993 86.3156 26.8739 88.4575C24.8118 89.5168 23.11 91.1116 22.7001 93.3931C22.3026 95.6514 23.3833 97.6536 24.8864 99.26C23.992 101.379 23.905 103.742 25.0851 105.592C25.2963 105.93 25.6068 106.151 25.8801 106.431V132.04C25.8677 133.169 26.5385 134.205 27.6192 134.717C28.6875 135.23 29.9793 135.136 30.9482 134.461L41.7801 126.825L52.612 134.461C53.5809 135.136 54.8728 135.23 55.9411 134.717C57.0218 134.205 57.6925 133.169 57.6801 132.04V106.431C57.9534 106.151 58.2639 105.93 58.4751 105.592C59.8539 103.439 59.5558 101.239 58.6739 99.26C60.1769 97.6536 61.2576 95.6514 60.8601 93.3931C60.4502 91.1116 58.7484 89.5168 56.6864 88.4575C56.7609 86.3156 56.2516 84.0573 54.3014 82.5906C52.3387 81.1239 49.9537 81.0191 47.7426 81.4731C46.3017 79.7619 44.2769 78.4 41.7801 78.4ZM48.1401 82.0319C48.2768 82.125 48.5376 82.3112 48.4382 82.2181L48.3389 82.3112C48.2768 82.2181 48.2022 82.125 48.1401 82.0319ZM41.7801 84.36C42.7987 84.36 42.8981 84.5346 43.1714 85.2912C43.3329 85.7452 43.6061 86.1643 43.9664 86.5019C44.1279 86.6532 44.3266 86.8511 45.1589 87.2469C45.9911 87.6426 46.6868 87.6194 46.8482 87.6194C47.4321 87.6426 48.0283 87.5146 48.5376 87.2469C49.0097 86.9791 49.8668 86.8976 50.3264 87.2469C50.8605 87.6543 50.8605 87.794 50.5251 88.7369C50.4009 89.0628 50.3264 89.412 50.3264 89.7612C50.3264 90.1687 50.55 90.2269 50.7239 90.5994C50.8357 91.938 51.8915 93.0555 53.3076 93.3C53.8045 93.3815 54.4132 93.9519 54.5001 94.4175C54.5871 94.9297 54.2765 95.5466 53.8045 95.8144C52.8853 96.3615 52.3139 97.3044 52.3139 98.3287V99.26C52.3014 99.8886 52.5126 100.517 52.9101 101.029C52.9971 101.146 53.1337 102.333 53.0095 102.519C52.7238 102.962 52.0654 103.253 51.5189 103.171C50.3512 102.973 49.1587 103.404 48.4382 104.289C48.4382 104.324 48.4382 104.347 48.4382 104.382C48.3264 104.463 48.3761 104.452 48.2395 104.568C48.2022 104.603 48.1774 104.533 48.1401 104.568C47.5066 105.127 47.1588 105.895 47.1464 106.71C47.1464 107.502 47.1464 107.513 46.4507 107.734C46.3141 107.793 46.1775 107.851 46.0532 107.921C46.0284 107.909 46.1154 107.921 45.9539 107.921C45.7427 107.921 45.1216 107.699 44.662 107.269C44.0533 106.71 43.2211 106.407 42.3764 106.431H41.1839C40.3392 106.407 39.5069 106.71 38.8982 107.269C38.3765 107.758 37.8051 107.956 37.1095 107.734C36.7244 107.536 36.4139 107.129 36.4139 106.71C36.4139 106.14 36.1157 105.371 35.7182 104.847C35.358 104.37 35.035 104.137 34.8239 104.009C34.091 103.323 33.06 103.008 32.0414 103.171C31.4948 103.253 30.8364 102.962 30.5507 102.519C30.1781 101.926 30.0539 101.705 30.5507 101.122C30.9979 100.599 31.2464 99.9351 31.2464 99.26V98.3287C31.2464 97.3044 30.675 96.3615 29.7557 95.8144C29.2837 95.5466 28.9732 94.9297 29.0601 94.4175C29.1471 93.9519 29.7557 93.3815 30.2526 93.3C31.6687 93.0555 32.7246 91.938 32.8364 90.5994C33.0103 90.2269 33.2339 90.1687 33.2339 89.7612C33.2339 89.412 33.1593 89.0628 33.0351 88.7369C32.6997 87.794 32.6997 87.6543 33.2339 87.2469C33.6935 86.8976 34.5506 86.9791 35.0226 87.2469C36.0039 87.7823 37.2213 87.7823 38.2026 87.2469C38.2399 87.2469 38.2647 87.2469 38.302 87.2469C38.3393 87.2119 38.3641 87.1887 38.4014 87.1537C38.4635 87.1305 38.538 87.0955 38.6001 87.0606C39.4324 86.7347 40.0907 86.0944 40.3889 85.2912C40.5504 84.8256 41.2832 84.36 41.7801 84.36ZM32.2401 111.366C32.9606 112.228 33.8301 112.914 34.9232 113.322C34.9605 113.357 34.9853 113.38 35.0226 113.415C37.4325 114.172 39.7554 113.508 41.6807 112.391C41.7056 112.379 41.7553 112.402 41.7801 112.391H42.3764C43.5068 113.008 44.5129 113.881 45.9539 113.881C46.5004 113.881 47.5936 113.659 48.5376 113.322C48.5873 113.275 48.6743 113.252 48.7364 113.229C48.7985 113.205 48.873 113.264 48.9351 113.229V113.136C49.9164 112.751 50.699 112.169 51.3201 111.459V126.08L43.6682 120.679C42.5503 119.899 41.01 119.899 39.892 120.679L32.2401 126.08V111.366Z" fill="#FCB800"/>
</svg>
