<svg width="141" height="139" viewBox="0 0 141 139" fill="none" xmlns="http://www.w3.org/2000/svg">
<path d="M113.34 0.971619C105.978 0.971619 99.0613 3.75736 93.8685 8.8174L75.5085 26.6974C72.7484 29.3854 70.7139 32.5037 69.3706 35.8353C73.7831 32.5573 79.1325 30.76 84.7782 30.76C85.993 30.76 87.1889 30.858 88.3701 31.0219L102.523 17.2452C105.408 14.4351 109.249 12.8916 113.34 12.8916C117.431 12.8916 121.275 14.4381 124.158 17.2452C130.122 23.0562 130.122 32.5037 124.158 38.3147L105.798 56.1947C99.8338 62.0028 90.1265 62.0028 84.1626 56.1947C83.9147 55.9534 83.7376 55.6798 83.5111 55.4265L74.8212 63.8834C75.0538 64.1277 75.2668 64.3842 75.5085 64.6226C80.8757 69.8525 87.9299 72.4683 94.9802 72.4683C102.03 72.4683 109.085 69.8525 114.452 64.6226L132.812 46.7426C143.552 36.2857 143.552 19.2742 132.812 8.8174C127.619 3.75736 120.703 0.971619 113.34 0.971619ZM84.7841 36.72C79.6097 36.72 74.7396 38.6852 71.0799 42.2493L42.5179 70.0587C34.9627 77.4164 34.9657 89.3871 42.5239 96.7507C44.828 98.9916 47.6105 100.598 50.646 101.483L52.5107 99.6608C55.1637 97.0772 55.8428 93.2929 54.5607 90.0864C53.303 89.8093 52.1173 89.2377 51.1779 88.3229C48.3933 85.6111 48.3904 81.1954 51.1719 78.4865L79.7339 50.6771C81.0834 49.3659 82.8778 48.6342 84.7841 48.6342C86.6905 48.6342 88.4789 49.3629 89.8284 50.6771C90.777 51.6009 91.4111 52.7492 91.711 53.9888C92.7391 54.3792 93.8388 54.5883 94.9802 54.5883C97.4373 54.5883 99.7418 53.6645 101.471 51.9808L103.347 50.1591C102.439 47.2059 100.787 44.4904 98.4824 42.2435C94.8196 38.6824 89.9555 36.72 84.7841 36.72ZM35.9377 68.3941C32.4585 69.7232 29.2658 71.7282 26.5485 74.3774L8.18851 92.2574C-2.55209 102.714 -2.55209 119.732 8.18851 130.188C13.5557 135.418 20.6099 138.028 27.6601 138.028C34.7104 138.028 41.7646 135.418 47.1318 130.188L65.4918 112.308C76.2324 101.849 76.2324 84.8342 65.4918 74.3774C65.2501 74.142 64.9837 73.9345 64.7328 73.7081L56.0428 82.1708C56.2999 82.3913 56.5929 82.5668 56.8377 82.8052C62.8017 88.6162 62.8017 98.0638 56.8377 103.875L38.4777 121.755C32.5138 127.563 22.8065 127.563 16.8426 121.755C10.8786 115.944 10.8786 106.496 16.8426 100.685L31.025 86.8736C30.0947 80.4636 31.7271 73.7849 35.9377 68.3941ZM76.8054 73.1959L74.2893 75.6462C76.7648 79.3981 78.3837 83.5349 79.1303 87.7874L89.2486 77.9336C84.7933 77.1886 80.5815 75.5799 76.8054 73.1959Z" fill="#FCB800"/>
</svg>
