<svg width="155" height="150" viewBox="0 0 155 150" fill="none" xmlns="http://www.w3.org/2000/svg">
<path d="M5.27561 61.0306C12.6199 35.1255 33.6856 14.8637 62.7841 3.00782C77.392 21.4487 85.2557 41.9511 84.6655 62.146C78.82 63.8579 72.8452 66.1581 67.2802 69.1936C42.5815 82.3911 27.4656 106.378 21.9873 135.244C4.83902 112.022 -1.74972 85.8106 5.27561 61.0306ZM108.849 137.261C85.763 149.859 58.0101 150.449 30.3856 141.134C58.406 128.66 79.4813 108.206 86.9893 81.7242C88.4731 76.4903 89.3171 71.131 89.8185 65.7444C109.372 60.9837 131.034 63.0582 152.232 71.1541C147.646 100.125 133.029 124.067 108.849 137.261ZM69.6657 73.5879C74.4105 70.9988 79.5233 68.9586 84.6257 67.3796C84.1299 71.8248 83.3695 76.1608 82.1788 80.3604C75.0413 105.536 54.6045 125.314 26.6931 137.292C31.7708 109.072 46.2426 86.0998 69.6461 73.5984L69.6559 73.5932L69.6657 73.5879Z" fill="#F8F9FA" stroke="black" stroke-width="5"/>
<path d="M69.4071 73.7081L69.4169 73.7028L69.4267 73.6975C74.1714 71.1084 79.2843 69.0682 84.3867 67.4892C83.8909 71.9344 83.1304 76.2704 81.9398 80.47C74.8023 105.646 54.3655 125.424 26.4541 137.401C31.5318 109.182 46.0036 86.2094 69.4071 73.7081Z" fill="#FCB800" stroke="black" stroke-width="5"/>
</svg>
