<svg width="129" height="154" viewBox="0 0 129 154" fill="none" xmlns="http://www.w3.org/2000/svg">
<path d="M0 0V137.312H74.5312L69.5625 142.594H79.5V153.156L95.3961 136.26C97.94 137.498 100.81 137.497 103.354 136.26L119.25 153.156V142.594H129.188L116.94 129.576C118.342 128.092 119.319 126.154 119.648 123.986V123.975L120.24 120.097L122.404 116.899C124.82 113.341 124.813 108.482 122.404 104.924L120.24 101.726L119.638 97.8372V97.8269C118.977 93.5089 115.76 90.0684 111.68 89.3687L108.022 88.7394L105.004 86.4289C103.33 85.1489 101.353 84.5102 99.375 84.5103V34.782L66.6511 0H0ZM9.9375 10.5625H59.625V42.25H89.4375V88.9664L87.0793 89.3687H87.0696C83.0036 90.0727 79.7669 93.5067 79.1118 97.8475L78.5198 101.726L76.346 104.924C73.93 108.482 73.9374 113.331 76.346 116.889L78.5198 120.097L79.1118 123.986C79.2621 124.966 79.5807 125.881 79.9755 126.75H9.9375V10.5625ZM69.5625 18.0305L82.4114 31.6875H69.5625V18.0305ZM44.7188 52.8125V60.3011C39.2065 62.6519 34.7812 67.3344 34.7812 73.9375C34.7812 78.3403 37.1363 82.0259 39.6627 84.2834C42.189 86.5409 44.9656 87.9533 47.4554 89.2861C49.9453 90.6189 52.1426 91.8779 53.3461 92.9376C54.5497 93.9973 54.6562 94.2554 54.6562 95.0625C54.6562 97.8325 52.4141 100.344 49.6875 100.344C46.88 100.344 44.7188 98.0466 44.7188 95.0625H34.7812C34.7812 101.699 39.2199 106.367 44.7188 108.709V116.188H54.6562V108.699C60.1761 106.344 64.5938 101.65 64.5938 95.0625C64.5938 90.6755 62.2159 87.0206 59.6929 84.7991C57.1699 82.5777 54.3985 81.1852 51.9196 79.8583C49.4406 78.5313 47.2485 77.2689 46.0483 76.1965C44.8481 75.124 44.7188 74.8265 44.7188 73.9375C44.7188 71.0957 46.934 68.6562 49.6875 68.6562C52.495 68.6562 54.6562 70.9534 54.6562 73.9375H64.5938C64.5938 67.301 60.1551 62.6326 54.6562 60.2908V52.8125H44.7188ZM99.375 95.1347L104.111 98.7656L109.875 99.7558L110.797 105.883L114.213 110.906L110.797 115.94L109.875 122.067L104.111 123.047L99.375 126.688L94.6489 123.047L88.8843 122.067L87.9527 115.94L84.5367 110.906L87.9527 105.883L88.8843 99.7558L94.6489 98.7656L99.375 95.1347Z" fill="#FCB800"/>
</svg>
