<svg width="158" height="126" viewBox="0 0 158 126" fill="none" xmlns="http://www.w3.org/2000/svg">
<path d="M8.85047 0.039978C4.00514 0.039978 0 4.32395 0 9.50662V20.32H6.32V9.50662C6.32 7.92929 7.3758 6.79998 8.85047 6.79998H15.8V0.039978H8.85047ZM22.12 0.039978V6.79998H34.76V0.039978H22.12ZM41.08 0.039978V84.54C30.6461 84.54 22.12 93.6597 22.12 104.82C22.12 115.98 30.6461 125.1 41.08 125.1C50.4348 125.1 58.2322 117.76 59.7499 108.2H91.64H94.8H107.73C109.248 117.76 117.045 125.1 126.4 125.1C135.755 125.1 143.552 117.76 145.07 108.2H148.52C151.153 108.2 153.418 106.896 155.099 105.097C156.781 103.299 158 100.877 158 98.06V65.6133C158 61.8124 156.679 58.3579 155.463 55.7109C154.248 53.064 153.007 51.1691 153.007 51.1691L152.976 51.1295L139.96 32.447L139.929 32.4074C137.128 28.6627 132.63 23.7 126.4 23.7H101.12C99.9869 23.7 98.9395 23.9813 97.96 24.3997V9.50662C97.96 4.32395 93.9549 0.039978 89.1095 0.039978H41.08ZM47.4 6.79998H89.1095C90.5842 6.79998 91.64 7.92929 91.64 9.50662V33.84V47.36V101.44H59.7499C58.592 94.1462 53.7782 88.1612 47.4 85.7283V6.79998ZM0 27.08V40.6H6.32V27.08H0ZM101.12 30.46H113.76V60.88C113.76 63.6966 114.979 66.1186 116.661 67.9172C118.342 69.7159 120.607 71.02 123.24 71.02H151.68V98.06C151.68 98.6233 151.319 99.5813 150.631 100.318C149.942 101.054 149.047 101.44 148.52 101.44H145.07C143.552 91.8802 135.755 84.54 126.4 84.54C117.045 84.54 109.248 91.8802 107.73 101.44H97.96V47.36V33.84C97.96 33.2766 98.3208 32.3186 99.0092 31.5822C99.6977 30.8459 100.593 30.46 101.12 30.46ZM120.08 30.46H126.4C129.018 30.46 132.736 33.6106 134.991 36.6258L147.829 55.0442C147.829 55.0442 148.795 56.5253 149.791 58.6949C150.593 60.4399 151.053 62.4713 151.31 64.26H123.24C122.713 64.26 121.818 63.8741 121.129 63.1377C120.441 62.4013 120.08 61.4433 120.08 60.88V30.46ZM82.4748 43.98L65.7305 63.5866L55.9295 54.12L51.8252 59.19L66.36 73.0466L87.2148 48.3766L82.4748 43.98ZM0 47.36V60.88H6.32V47.36H0ZM0 67.64V81.16H6.32V67.64H0ZM0 87.92V98.7333C0 103.916 4.00514 108.2 8.85047 108.2H15.8V101.44H8.85047C7.3758 101.44 6.32 100.311 6.32 98.7333V87.92H0ZM41.08 91.3C48.0983 91.3 53.72 97.313 53.72 104.82C53.72 112.327 48.0983 118.34 41.08 118.34C34.0617 118.34 28.44 112.327 28.44 104.82C28.44 97.313 34.0617 91.3 41.08 91.3ZM126.4 91.3C133.418 91.3 139.04 97.313 139.04 104.82C139.04 112.327 133.418 118.34 126.4 118.34C119.382 118.34 113.76 112.327 113.76 104.82C113.76 97.313 119.382 91.3 126.4 91.3Z" fill="#FCB800"/>
</svg>
