<svg width="1893" height="488" viewBox="0 0 1893 488" fill="none" xmlns="http://www.w3.org/2000/svg">
<path d="M11.8591 157.666C30.0655 89.7183 82.3071 36.8653 154.059 6.11298C190.554 54.6066 210.205 108.769 208.427 162.209C193.889 166.656 179.014 172.671 165.194 180.648C104.334 215.054 67.3889 277.892 54.4636 353.472C11.2072 292.52 -5.7155 223.255 11.8591 157.666ZM266.995 357.019C209.212 390.38 139.638 391.365 70.6771 365.87C140.821 333.784 193.446 280.417 211.97 211.285C215.662 197.505 217.727 183.363 218.937 169.114C267.534 156.375 321.435 161.866 374.097 183.352C363.019 259.45 326.911 322.426 266.995 357.019ZM170.174 189.32C182.356 182.286 195.507 176.815 208.573 172.64C207.36 184.976 205.437 197.028 202.311 208.697C184.507 275.141 133.314 326.963 63.8498 357.982C75.9625 283.265 111.793 222.316 170.134 189.342L170.154 189.331L170.174 189.32Z" fill="#F8F9FA" stroke="black" stroke-width="10"/>
<path d="M169.549 189.627L169.569 189.615L169.589 189.604C181.771 182.571 194.922 177.099 207.988 172.924C206.775 185.26 204.852 197.312 201.725 208.981C183.922 275.425 132.729 327.247 63.2647 358.266C75.3774 283.549 111.208 222.6 169.549 189.627Z" fill="#FCB800" stroke="black" stroke-width="10"/>
<path d="M430.904 110.4H477.56V273.984H578.648V312H430.904V110.4ZM756.52 157.056V312H713.896V293.568C707.944 300.288 700.84 305.472 692.584 309.12C684.328 312.576 675.4 314.304 665.8 314.304C645.448 314.304 629.32 308.448 617.416 296.736C605.512 285.024 599.56 267.648 599.56 244.608V157.056H644.488V237.984C644.488 262.944 654.952 275.424 675.88 275.424C686.632 275.424 695.272 271.968 701.8 265.056C708.328 257.952 711.592 247.488 711.592 233.664V157.056H756.52ZM996.574 154.752C1015.97 154.752 1031.33 160.512 1042.65 172.032C1054.17 183.36 1059.93 200.448 1059.93 223.296V312H1015.01V230.208C1015.01 217.92 1012.41 208.8 1007.23 202.848C1002.24 196.704 995.038 193.632 985.63 193.632C975.07 193.632 966.718 197.088 960.574 204C954.43 210.72 951.358 220.8 951.358 234.24V312H906.43V230.208C906.43 205.824 896.638 193.632 877.054 193.632C866.686 193.632 858.43 197.088 852.286 204C846.142 210.72 843.07 220.8 843.07 234.24V312H798.142V157.056H841.054V174.912C846.814 168.384 853.822 163.392 862.078 159.936C870.526 156.48 879.742 154.752 889.726 154.752C900.67 154.752 910.558 156.96 919.39 161.376C928.222 165.6 935.326 171.84 940.702 180.096C947.038 172.032 955.006 165.792 964.606 161.376C974.398 156.96 985.054 154.752 996.574 154.752ZM1100.2 157.056H1145.13V312H1100.2V157.056ZM1122.67 135.456C1114.41 135.456 1107.69 133.056 1102.51 128.256C1097.32 123.456 1094.73 117.504 1094.73 110.4C1094.73 103.296 1097.32 97.344 1102.51 92.544C1107.69 87.744 1114.41 85.344 1122.67 85.344C1130.92 85.344 1137.64 87.648 1142.83 92.256C1148.01 96.864 1150.6 102.624 1150.6 109.536C1150.6 117.024 1148.01 123.264 1142.83 128.256C1137.64 133.056 1130.92 135.456 1122.67 135.456ZM1281.01 154.752C1300.21 154.752 1315.66 160.512 1327.37 172.032C1339.28 183.552 1345.23 200.64 1345.23 223.296V312H1300.3V230.208C1300.3 217.92 1297.61 208.8 1292.24 202.848C1286.86 196.704 1279.09 193.632 1268.91 193.632C1257.58 193.632 1248.56 197.184 1241.84 204.288C1235.12 211.2 1231.76 221.568 1231.76 235.392V312H1186.83V157.056H1229.74V175.2C1235.69 168.672 1243.09 163.68 1251.92 160.224C1260.75 156.576 1270.45 154.752 1281.01 154.752ZM1448.45 154.752C1472.45 154.752 1490.88 160.512 1503.75 172.032C1516.61 183.36 1523.04 200.544 1523.04 223.584V312H1480.99V292.704C1472.55 307.104 1456.8 314.304 1433.76 314.304C1421.86 314.304 1411.49 312.288 1402.66 308.256C1394.02 304.224 1387.39 298.656 1382.79 291.552C1378.18 284.448 1375.87 276.384 1375.87 267.36C1375.87 252.96 1381.25 241.632 1392 233.376C1402.95 225.12 1419.75 220.992 1442.4 220.992H1478.11C1478.11 211.2 1475.14 203.712 1469.19 198.528C1463.23 193.152 1454.31 190.464 1442.4 190.464C1434.15 190.464 1425.99 191.808 1417.92 194.496C1410.05 196.992 1403.33 200.448 1397.76 204.864L1381.63 173.472C1390.08 167.52 1400.16 162.912 1411.87 159.648C1423.78 156.384 1435.97 154.752 1448.45 154.752ZM1444.99 284.064C1452.67 284.064 1459.49 282.336 1465.44 278.88C1471.39 275.232 1475.62 269.952 1478.11 263.04V247.2H1447.3C1428.87 247.2 1419.65 253.248 1419.65 265.344C1419.65 271.104 1421.86 275.712 1426.27 279.168C1430.88 282.432 1437.12 284.064 1444.99 284.064ZM1657.88 154.752C1677.08 154.752 1692.54 160.512 1704.25 172.032C1716.15 183.552 1722.1 200.64 1722.1 223.296V312H1677.18V230.208C1677.18 217.92 1674.49 208.8 1669.11 202.848C1663.74 196.704 1655.96 193.632 1645.78 193.632C1634.46 193.632 1625.43 197.184 1618.71 204.288C1611.99 211.2 1608.63 221.568 1608.63 235.392V312H1563.7V157.056H1606.62V175.2C1612.57 168.672 1619.96 163.68 1628.79 160.224C1637.62 156.576 1647.32 154.752 1657.88 154.752ZM1862.77 304.512C1858.35 307.776 1852.88 310.272 1846.35 312C1840.01 313.536 1833.29 314.304 1826.19 314.304C1807.76 314.304 1793.45 309.6 1783.28 300.192C1773.29 290.784 1768.3 276.96 1768.3 258.72V195.072H1744.4V160.512H1768.3V122.784H1813.23V160.512H1851.82V195.072H1813.23V258.144C1813.23 264.672 1814.86 269.76 1818.13 273.408C1821.58 276.864 1826.38 278.592 1832.53 278.592C1839.63 278.592 1845.68 276.672 1850.67 272.832L1862.77 304.512Z" fill="black"/>
<path d="M1055.68 452L1055.54 391.52L1025.87 441.344H1015.36L985.84 392.816V452H963.952V351.2H983.248L1020.98 413.84L1058.13 351.2H1077.28L1077.57 452H1055.68ZM1131.15 373.376C1143.15 373.376 1152.36 376.256 1158.8 382.016C1165.23 387.68 1168.44 396.272 1168.44 407.792V452H1147.42V442.352C1143.2 449.552 1135.32 453.152 1123.8 453.152C1117.85 453.152 1112.67 452.144 1108.25 450.128C1103.93 448.112 1100.62 445.328 1098.32 441.776C1096.01 438.224 1094.86 434.192 1094.86 429.68C1094.86 422.48 1097.55 416.816 1102.92 412.688C1108.4 408.56 1116.8 406.496 1128.12 406.496H1145.98C1145.98 401.6 1144.49 397.856 1141.52 395.264C1138.54 392.576 1134.08 391.232 1128.12 391.232C1124 391.232 1119.92 391.904 1115.88 393.248C1111.95 394.496 1108.59 396.224 1105.8 398.432L1097.74 382.736C1101.96 379.76 1107 377.456 1112.86 375.824C1118.81 374.192 1124.91 373.376 1131.15 373.376ZM1129.42 438.032C1133.26 438.032 1136.67 437.168 1139.64 435.44C1142.62 433.616 1144.73 430.976 1145.98 427.52V419.6H1130.57C1121.36 419.6 1116.75 422.624 1116.75 428.672C1116.75 431.552 1117.85 433.856 1120.06 435.584C1122.36 437.216 1125.48 438.032 1129.42 438.032ZM1210.23 384.752C1212.92 381.008 1216.52 378.176 1221.03 376.256C1225.64 374.336 1230.92 373.376 1236.87 373.376V394.112C1234.37 393.92 1232.69 393.824 1231.83 393.824C1225.4 393.824 1220.36 395.648 1216.71 399.296C1213.06 402.848 1211.24 408.224 1211.24 415.424V452H1188.77V374.528H1210.23V384.752ZM1283.49 421.616L1272.69 432.272V452H1250.23V345.152H1272.69V405.632L1305.52 374.528H1332.31L1300.05 407.36L1335.19 452H1307.97L1283.49 421.616ZM1417.8 413.552C1417.8 413.84 1417.66 415.856 1417.37 419.6H1358.76C1359.82 424.4 1362.31 428.192 1366.25 430.976C1370.19 433.76 1375.08 435.152 1380.94 435.152C1384.97 435.152 1388.52 434.576 1391.59 433.424C1394.76 432.176 1397.69 430.256 1400.38 427.664L1412.33 440.624C1405.03 448.976 1394.38 453.152 1380.36 453.152C1371.63 453.152 1363.9 451.472 1357.18 448.112C1350.46 444.656 1345.27 439.904 1341.63 433.856C1337.98 427.808 1336.15 420.944 1336.15 413.264C1336.15 405.68 1337.93 398.864 1341.48 392.816C1345.13 386.672 1350.07 381.92 1356.31 378.56C1362.65 375.104 1369.71 373.376 1377.48 373.376C1385.07 373.376 1391.93 375.008 1398.07 378.272C1404.22 381.536 1409.02 386.24 1412.47 392.384C1416.03 398.432 1417.8 405.488 1417.8 413.552ZM1377.63 390.368C1372.54 390.368 1368.27 391.808 1364.81 394.688C1361.35 397.568 1359.24 401.504 1358.47 406.496H1396.63C1395.87 401.6 1393.75 397.712 1390.3 394.832C1386.84 391.856 1382.62 390.368 1377.63 390.368ZM1482.73 448.256C1480.52 449.888 1477.78 451.136 1474.52 452C1471.35 452.768 1467.99 453.152 1464.44 453.152C1455.22 453.152 1448.07 450.8 1442.98 446.096C1437.99 441.392 1435.49 434.48 1435.49 425.36V393.536H1423.54V376.256H1435.49V357.392H1457.96V376.256H1477.25V393.536H1457.96V425.072C1457.96 428.336 1458.77 430.88 1460.41 432.704C1462.13 434.432 1464.53 435.296 1467.61 435.296C1471.16 435.296 1474.18 434.336 1476.68 432.416L1482.73 448.256ZM1541.13 373.376C1548.33 373.376 1554.86 375.056 1560.71 378.416C1566.66 381.68 1571.32 386.336 1574.68 392.384C1578.04 398.336 1579.72 405.296 1579.72 413.264C1579.72 421.232 1578.04 428.24 1574.68 434.288C1571.32 440.24 1566.66 444.896 1560.71 448.256C1554.86 451.52 1548.33 453.152 1541.13 453.152C1531.24 453.152 1523.46 450.032 1517.8 443.792V479.936H1495.34V374.528H1516.79V383.456C1522.36 376.736 1530.47 373.376 1541.13 373.376ZM1537.24 434.72C1543 434.72 1547.7 432.8 1551.35 428.96C1555.1 425.024 1556.97 419.792 1556.97 413.264C1556.97 406.736 1555.1 401.552 1551.35 397.712C1547.7 393.776 1543 391.808 1537.24 391.808C1531.48 391.808 1526.73 393.776 1522.98 397.712C1519.34 401.552 1517.51 406.736 1517.51 413.264C1517.51 419.792 1519.34 425.024 1522.98 428.96C1526.73 432.8 1531.48 434.72 1537.24 434.72ZM1594.76 345.152H1617.22V452H1594.76V345.152ZM1669.32 373.376C1681.32 373.376 1690.54 376.256 1696.97 382.016C1703.4 387.68 1706.62 396.272 1706.62 407.792V452H1685.59V442.352C1681.37 449.552 1673.5 453.152 1661.98 453.152C1656.02 453.152 1650.84 452.144 1646.42 450.128C1642.1 448.112 1638.79 445.328 1636.49 441.776C1634.18 438.224 1633.03 434.192 1633.03 429.68C1633.03 422.48 1635.72 416.816 1641.1 412.688C1646.57 408.56 1654.97 406.496 1666.3 406.496H1684.15C1684.15 401.6 1682.66 397.856 1679.69 395.264C1676.71 392.576 1672.25 391.232 1666.3 391.232C1662.17 391.232 1658.09 391.904 1654.06 393.248C1650.12 394.496 1646.76 396.224 1643.98 398.432L1635.91 382.736C1640.14 379.76 1645.18 377.456 1651.03 375.824C1656.98 374.192 1663.08 373.376 1669.32 373.376ZM1667.59 438.032C1671.43 438.032 1674.84 437.168 1677.82 435.44C1680.79 433.616 1682.9 430.976 1684.15 427.52V419.6H1668.74C1659.53 419.6 1654.92 422.624 1654.92 428.672C1654.92 431.552 1656.02 433.856 1658.23 435.584C1660.54 437.216 1663.66 438.032 1667.59 438.032ZM1765.23 453.152C1756.97 453.152 1749.53 451.472 1742.91 448.112C1736.38 444.656 1731.25 439.904 1727.5 433.856C1723.85 427.808 1722.03 420.944 1722.03 413.264C1722.03 405.584 1723.85 398.72 1727.5 392.672C1731.25 386.624 1736.38 381.92 1742.91 378.56C1749.53 375.104 1756.97 373.376 1765.23 373.376C1773.39 373.376 1780.49 375.104 1786.54 378.56C1792.69 381.92 1797.15 386.768 1799.93 393.104L1782.51 402.464C1778.48 395.36 1772.67 391.808 1765.09 391.808C1759.23 391.808 1754.38 393.728 1750.54 397.568C1746.7 401.408 1744.78 406.64 1744.78 413.264C1744.78 419.888 1746.7 425.12 1750.54 428.96C1754.38 432.8 1759.23 434.72 1765.09 434.72C1772.77 434.72 1778.57 431.168 1782.51 424.064L1799.93 433.568C1797.15 439.712 1792.69 444.512 1786.54 447.968C1780.49 451.424 1773.39 453.152 1765.23 453.152ZM1887.77 413.552C1887.77 413.84 1887.63 415.856 1887.34 419.6H1828.73C1829.79 424.4 1832.28 428.192 1836.22 430.976C1840.16 433.76 1845.05 435.152 1850.91 435.152C1854.94 435.152 1858.49 434.576 1861.56 433.424C1864.73 432.176 1867.66 430.256 1870.35 427.664L1882.3 440.624C1875 448.976 1864.35 453.152 1850.33 453.152C1841.6 453.152 1833.87 451.472 1827.15 448.112C1820.43 444.656 1815.24 439.904 1811.6 433.856C1807.95 427.808 1806.12 420.944 1806.12 413.264C1806.12 405.68 1807.9 398.864 1811.45 392.816C1815.1 386.672 1820.04 381.92 1826.28 378.56C1832.62 375.104 1839.68 373.376 1847.45 373.376C1855.04 373.376 1861.9 375.008 1868.04 378.272C1874.19 381.536 1878.99 386.24 1882.44 392.384C1886 398.432 1887.77 405.488 1887.77 413.552ZM1847.6 390.368C1842.51 390.368 1838.24 391.808 1834.78 394.688C1831.32 397.568 1829.21 401.504 1828.44 406.496H1866.6C1865.84 401.6 1863.72 397.712 1860.27 394.832C1856.81 391.856 1852.59 390.368 1847.6 390.368Z" fill="black"/>
</svg>
