<svg width="1893" height="389" viewBox="0 0 1893 389" fill="none" xmlns="http://www.w3.org/2000/svg">
<path d="M11.8591 157.666C30.0655 89.7183 82.3071 36.8653 154.059 6.11298C190.554 54.6066 210.205 108.769 208.427 162.209C193.889 166.656 179.014 172.671 165.194 180.648C104.334 215.054 67.3889 277.892 54.4636 353.472C11.2072 292.52 -5.7155 223.255 11.8591 157.666ZM266.995 357.019C209.212 390.38 139.638 391.365 70.6771 365.87C140.821 333.784 193.446 280.417 211.97 211.285C215.662 197.505 217.727 183.363 218.937 169.114C267.534 156.375 321.435 161.866 374.097 183.352C363.019 259.45 326.911 322.426 266.995 357.019ZM170.174 189.32C182.356 182.286 195.507 176.815 208.573 172.64C207.36 184.976 205.437 197.028 202.311 208.697C184.507 275.141 133.314 326.963 63.8498 357.982C75.9625 283.265 111.793 222.316 170.134 189.342L170.154 189.331L170.174 189.32Z" fill="#F8F9FA" stroke="black" stroke-width="10"/>
<path d="M169.549 189.627L169.569 189.615L169.589 189.604C181.771 182.571 194.922 177.099 207.988 172.924C206.775 185.26 204.852 197.312 201.725 208.981C183.922 275.425 132.729 327.247 63.2647 358.266C75.3774 283.549 111.208 222.6 169.549 189.627Z" fill="#FCB800" stroke="black" stroke-width="10"/>
<path d="M430.904 110.4H477.56V273.984H578.648V312H430.904V110.4ZM756.52 157.056V312H713.896V293.568C707.944 300.288 700.84 305.472 692.584 309.12C684.328 312.576 675.4 314.304 665.8 314.304C645.448 314.304 629.32 308.448 617.416 296.736C605.512 285.024 599.56 267.648 599.56 244.608V157.056H644.488V237.984C644.488 262.944 654.952 275.424 675.88 275.424C686.632 275.424 695.272 271.968 701.8 265.056C708.328 257.952 711.592 247.488 711.592 233.664V157.056H756.52ZM996.574 154.752C1015.97 154.752 1031.33 160.512 1042.65 172.032C1054.17 183.36 1059.93 200.448 1059.93 223.296V312H1015.01V230.208C1015.01 217.92 1012.41 208.8 1007.23 202.848C1002.24 196.704 995.038 193.632 985.63 193.632C975.07 193.632 966.718 197.088 960.574 204C954.43 210.72 951.358 220.8 951.358 234.24V312H906.43V230.208C906.43 205.824 896.638 193.632 877.054 193.632C866.686 193.632 858.43 197.088 852.286 204C846.142 210.72 843.07 220.8 843.07 234.24V312H798.142V157.056H841.054V174.912C846.814 168.384 853.822 163.392 862.078 159.936C870.526 156.48 879.742 154.752 889.726 154.752C900.67 154.752 910.558 156.96 919.39 161.376C928.222 165.6 935.326 171.84 940.702 180.096C947.038 172.032 955.006 165.792 964.606 161.376C974.398 156.96 985.054 154.752 996.574 154.752ZM1100.2 157.056H1145.13V312H1100.2V157.056ZM1122.67 135.456C1114.41 135.456 1107.69 133.056 1102.51 128.256C1097.32 123.456 1094.73 117.504 1094.73 110.4C1094.73 103.296 1097.32 97.344 1102.51 92.544C1107.69 87.744 1114.41 85.344 1122.67 85.344C1130.92 85.344 1137.64 87.648 1142.83 92.256C1148.01 96.864 1150.6 102.624 1150.6 109.536C1150.6 117.024 1148.01 123.264 1142.83 128.256C1137.64 133.056 1130.92 135.456 1122.67 135.456ZM1281.01 154.752C1300.21 154.752 1315.66 160.512 1327.37 172.032C1339.28 183.552 1345.23 200.64 1345.23 223.296V312H1300.3V230.208C1300.3 217.92 1297.61 208.8 1292.24 202.848C1286.86 196.704 1279.09 193.632 1268.91 193.632C1257.58 193.632 1248.56 197.184 1241.84 204.288C1235.12 211.2 1231.76 221.568 1231.76 235.392V312H1186.83V157.056H1229.74V175.2C1235.69 168.672 1243.09 163.68 1251.92 160.224C1260.75 156.576 1270.45 154.752 1281.01 154.752ZM1448.45 154.752C1472.45 154.752 1490.88 160.512 1503.75 172.032C1516.61 183.36 1523.04 200.544 1523.04 223.584V312H1480.99V292.704C1472.55 307.104 1456.8 314.304 1433.76 314.304C1421.86 314.304 1411.49 312.288 1402.66 308.256C1394.02 304.224 1387.39 298.656 1382.79 291.552C1378.18 284.448 1375.87 276.384 1375.87 267.36C1375.87 252.96 1381.25 241.632 1392 233.376C1402.95 225.12 1419.75 220.992 1442.4 220.992H1478.11C1478.11 211.2 1475.14 203.712 1469.19 198.528C1463.23 193.152 1454.31 190.464 1442.4 190.464C1434.15 190.464 1425.99 191.808 1417.92 194.496C1410.05 196.992 1403.33 200.448 1397.76 204.864L1381.63 173.472C1390.08 167.52 1400.16 162.912 1411.87 159.648C1423.78 156.384 1435.97 154.752 1448.45 154.752ZM1444.99 284.064C1452.67 284.064 1459.49 282.336 1465.44 278.88C1471.39 275.232 1475.62 269.952 1478.11 263.04V247.2H1447.3C1428.87 247.2 1419.65 253.248 1419.65 265.344C1419.65 271.104 1421.86 275.712 1426.27 279.168C1430.88 282.432 1437.12 284.064 1444.99 284.064ZM1657.88 154.752C1677.08 154.752 1692.54 160.512 1704.25 172.032C1716.15 183.552 1722.1 200.64 1722.1 223.296V312H1677.18V230.208C1677.18 217.92 1674.49 208.8 1669.11 202.848C1663.74 196.704 1655.96 193.632 1645.78 193.632C1634.46 193.632 1625.43 197.184 1618.71 204.288C1611.99 211.2 1608.63 221.568 1608.63 235.392V312H1563.7V157.056H1606.62V175.2C1612.57 168.672 1619.96 163.68 1628.79 160.224C1637.62 156.576 1647.32 154.752 1657.88 154.752ZM1862.77 304.512C1858.35 307.776 1852.88 310.272 1846.35 312C1840.01 313.536 1833.29 314.304 1826.19 314.304C1807.76 314.304 1793.45 309.6 1783.28 300.192C1773.29 290.784 1768.3 276.96 1768.3 258.72V195.072H1744.4V160.512H1768.3V122.784H1813.23V160.512H1851.82V195.072H1813.23V258.144C1813.23 264.672 1814.86 269.76 1818.13 273.408C1821.58 276.864 1826.38 278.592 1832.53 278.592C1839.63 278.592 1845.68 276.672 1850.67 272.832L1862.77 304.512Z" fill="white"/>
<path d="M430.904 110.4V100.4H420.904V110.4H430.904ZM477.56 110.4H487.56V100.4H477.56V110.4ZM477.56 273.984H467.56V283.984H477.56V273.984ZM578.648 273.984H588.648V263.984H578.648V273.984ZM578.648 312V322H588.648V312H578.648ZM430.904 312H420.904V322H430.904V312ZM430.904 120.4H477.56V100.4H430.904V120.4ZM467.56 110.4V273.984H487.56V110.4H467.56ZM477.56 283.984H578.648V263.984H477.56V283.984ZM568.648 273.984V312H588.648V273.984H568.648ZM578.648 302H430.904V322H578.648V302ZM440.904 312V110.4H420.904V312H440.904ZM756.52 157.056H766.52V147.056H756.52V157.056ZM756.52 312V322H766.52V312H756.52ZM713.896 312H703.896V322H713.896V312ZM713.896 293.568H723.896V267.196L706.41 286.938L713.896 293.568ZM692.584 309.12L696.445 318.344L696.535 318.307L696.625 318.267L692.584 309.12ZM617.416 296.736L624.429 289.608L624.429 289.608L617.416 296.736ZM599.56 157.056V147.056H589.56V157.056H599.56ZM644.488 157.056H654.488V147.056H644.488V157.056ZM701.8 265.056L709.07 271.922L709.117 271.873L709.163 271.822L701.8 265.056ZM711.592 157.056V147.056H701.592V157.056H711.592ZM746.52 157.056V312H766.52V157.056H746.52ZM756.52 302H713.896V322H756.52V302ZM723.896 312V293.568H703.896V312H723.896ZM706.41 286.938C701.417 292.575 695.49 296.903 688.542 299.973L696.625 318.267C706.189 314.041 714.47 308.001 721.381 300.198L706.41 286.938ZM688.722 299.896C681.776 302.803 674.171 304.304 665.8 304.304V324.304C676.628 324.304 686.879 322.349 696.445 318.344L688.722 299.896ZM665.8 304.304C647.462 304.304 634.069 299.092 624.429 289.608L610.402 303.864C624.57 317.804 643.433 324.304 665.8 324.304V304.304ZM624.429 289.608C615.068 280.398 609.56 266.009 609.56 244.608H589.56C589.56 269.287 595.955 289.65 610.402 303.864L624.429 289.608ZM609.56 244.608V157.056H589.56V244.608H609.56ZM599.56 167.056H644.488V147.056H599.56V167.056ZM634.488 157.056V237.984H654.488V157.056H634.488ZM634.488 237.984C634.488 251.618 637.309 263.706 644.673 272.489C652.32 281.609 663.366 285.424 675.88 285.424V265.424C667.465 265.424 662.815 262.999 659.998 259.639C656.898 255.942 654.488 249.31 654.488 237.984H634.488ZM675.88 285.424C688.987 285.424 700.397 281.105 709.07 271.922L694.529 258.19C690.146 262.831 684.276 265.424 675.88 265.424V285.424ZM709.163 271.822C717.997 262.209 721.592 248.916 721.592 233.664H701.592C701.592 246.06 698.658 253.695 694.436 258.29L709.163 271.822ZM721.592 233.664V157.056H701.592V233.664H721.592ZM711.592 167.056H756.52V147.056H711.592V167.056ZM1042.65 172.032L1035.52 179.043L1035.58 179.103L1035.64 179.162L1042.65 172.032ZM1059.93 312V322H1069.93V312H1059.93ZM1015.01 312H1005.01V322H1015.01V312ZM1007.23 202.848L999.469 209.154L999.577 209.287L999.689 209.416L1007.23 202.848ZM960.574 204L967.955 210.748L968.002 210.696L968.048 210.644L960.574 204ZM951.358 312V322H961.358V312H951.358ZM906.43 312H896.43V322H906.43V312ZM852.286 204L859.667 210.748L859.714 210.696L859.76 210.644L852.286 204ZM843.07 312V322H853.07V312H843.07ZM798.142 312H788.142V322H798.142V312ZM798.142 157.056V147.056H788.142V157.056H798.142ZM841.054 157.056H851.054V147.056H841.054V157.056ZM841.054 174.912H831.054V201.36L848.553 181.528L841.054 174.912ZM862.078 159.936L858.292 150.681L858.254 150.696L858.217 150.712L862.078 159.936ZM919.39 161.376L914.918 170.32L914.997 170.359L915.076 170.397L919.39 161.376ZM940.702 180.096L932.322 185.553L939.94 197.252L948.565 186.274L940.702 180.096ZM964.606 161.376L960.495 152.26L960.461 152.275L960.427 152.291L964.606 161.376ZM996.574 164.752C1013.86 164.752 1026.44 169.81 1035.52 179.043L1049.78 165.021C1036.21 151.214 1018.07 144.752 996.574 144.752V164.752ZM1035.64 179.162C1044.58 187.946 1049.93 202.004 1049.93 223.296H1069.93C1069.93 198.892 1063.77 178.774 1049.67 164.902L1035.64 179.162ZM1049.93 223.296V312H1069.93V223.296H1049.93ZM1059.93 302H1015.01V322H1059.93V302ZM1025.01 312V230.208H1005.01V312H1025.01ZM1025.01 230.208C1025.01 216.789 1022.22 204.831 1014.77 196.28L999.689 209.416C1002.61 212.769 1005.01 219.051 1005.01 230.208H1025.01ZM1014.99 196.542C1007.74 187.612 997.419 183.632 985.63 183.632V203.632C992.658 203.632 996.741 205.796 999.469 209.154L1014.99 196.542ZM985.63 183.632C972.663 183.632 961.421 187.995 953.1 197.356L968.048 210.644C972.016 206.181 977.478 203.632 985.63 203.632V183.632ZM953.194 197.252C944.715 206.526 941.358 219.469 941.358 234.24H961.358C961.358 222.131 964.145 214.914 967.955 210.748L953.194 197.252ZM941.358 234.24V312H961.358V234.24H941.358ZM951.358 302H906.43V322H951.358V302ZM916.43 312V230.208H896.43V312H916.43ZM916.43 230.208C916.43 216.941 913.81 205.138 906.883 196.514C899.62 187.471 889.04 183.632 877.054 183.632V203.632C884.653 203.632 888.761 205.889 891.29 209.038C894.155 212.606 896.43 219.091 896.43 230.208H916.43ZM877.054 183.632C864.215 183.632 853.096 188.037 844.812 197.356L859.76 210.644C863.765 206.139 869.157 203.632 877.054 203.632V183.632ZM844.906 197.252C836.427 206.526 833.07 219.469 833.07 234.24H853.07C853.07 222.131 855.857 214.914 859.667 210.748L844.906 197.252ZM833.07 234.24V312H853.07V234.24H833.07ZM843.07 302H798.142V322H843.07V302ZM808.142 312V157.056H788.142V312H808.142ZM798.142 167.056H841.054V147.056H798.142V167.056ZM831.054 157.056V174.912H851.054V157.056H831.054ZM848.553 181.528C853.284 176.166 859.037 172.05 865.94 169.16L858.217 150.712C848.607 154.734 840.344 160.602 833.556 168.296L848.553 181.528ZM865.865 169.191C873.002 166.271 880.918 164.752 889.726 164.752V144.752C878.566 144.752 868.05 146.689 858.292 150.681L865.865 169.191ZM889.726 164.752C899.288 164.752 907.619 166.671 914.918 170.32L923.862 152.432C913.497 147.249 902.052 144.752 889.726 144.752V164.752ZM915.076 170.397C922.24 173.824 927.942 178.825 932.322 185.553L949.082 174.639C942.711 164.855 934.205 157.376 923.705 152.355L915.076 170.397ZM948.565 186.274C953.891 179.496 960.581 174.235 968.785 170.461L960.427 152.291C949.431 157.349 940.186 164.568 932.839 173.918L948.565 186.274ZM968.717 170.492C977.125 166.7 986.367 164.752 996.574 164.752V144.752C983.741 144.752 971.671 147.22 960.495 152.26L968.717 170.492ZM1100.2 157.056V147.056H1090.2V157.056H1100.2ZM1145.13 157.056H1155.13V147.056H1145.13V157.056ZM1145.13 312V322H1155.13V312H1145.13ZM1100.2 312H1090.2V322H1100.2V312ZM1102.51 128.256L1095.71 135.594L1095.71 135.594L1102.51 128.256ZM1102.51 92.544L1109.3 99.8816L1109.3 99.8816L1102.51 92.544ZM1142.83 92.256L1136.19 99.7301L1136.19 99.7301L1142.83 92.256ZM1142.83 128.256L1149.62 135.594L1149.69 135.527L1149.77 135.459L1142.83 128.256ZM1100.2 167.056H1145.13V147.056H1100.2V167.056ZM1135.13 157.056V312H1155.13V157.056H1135.13ZM1145.13 302H1100.2V322H1145.13V302ZM1110.2 312V157.056H1090.2V312H1110.2ZM1122.67 125.456C1116.48 125.456 1112.33 123.722 1109.3 120.918L1095.71 135.594C1103.05 142.39 1112.35 145.456 1122.67 145.456V125.456ZM1109.3 120.918C1106.18 118.023 1104.73 114.736 1104.73 110.4H1084.73C1084.73 120.272 1088.47 128.889 1095.71 135.594L1109.3 120.918ZM1104.73 110.4C1104.73 106.064 1106.18 102.777 1109.3 99.8816L1095.71 85.2064C1088.47 91.9108 1084.73 100.528 1084.73 110.4H1104.73ZM1109.3 99.8816C1112.33 97.0779 1116.48 95.344 1122.67 95.344V75.344C1112.35 75.344 1103.05 78.4101 1095.71 85.2064L1109.3 99.8816ZM1122.67 95.344C1128.97 95.344 1133.17 97.0485 1136.19 99.7301L1149.47 84.7819C1142.12 78.2475 1132.88 75.344 1122.67 75.344V95.344ZM1136.19 99.7301C1139.24 102.448 1140.6 105.492 1140.6 109.536H1160.6C1160.6 99.7563 1156.78 91.28 1149.47 84.7819L1136.19 99.7301ZM1140.6 109.536C1140.6 114.43 1139.03 118.03 1135.89 121.053L1149.77 135.459C1156.99 128.498 1160.6 119.618 1160.6 109.536H1140.6ZM1136.03 120.918C1133.01 123.722 1128.86 125.456 1122.67 125.456V145.456C1132.99 145.456 1142.28 142.39 1149.62 135.594L1136.03 120.918ZM1327.37 172.032L1320.36 179.161L1320.39 179.19L1320.42 179.218L1327.37 172.032ZM1345.23 312V322H1355.23V312H1345.23ZM1300.3 312H1290.3V322H1300.3V312ZM1292.24 202.848L1284.71 209.433L1284.76 209.492L1284.82 209.551L1292.24 202.848ZM1241.84 204.288L1249.01 211.259L1249.06 211.21L1249.1 211.16L1241.84 204.288ZM1231.76 312V322H1241.76V312H1231.76ZM1186.83 312H1176.83V322H1186.83V312ZM1186.83 157.056V147.056H1176.83V157.056H1186.83ZM1229.74 157.056H1239.74V147.056H1229.74V157.056ZM1229.74 175.2H1219.74V201.01L1237.13 181.938L1229.74 175.2ZM1251.92 160.224L1255.56 169.536L1255.65 169.502L1255.74 169.467L1251.92 160.224ZM1281.01 164.752C1298.06 164.752 1310.83 169.79 1320.36 179.161L1334.39 164.903C1320.49 151.234 1302.35 144.752 1281.01 144.752V164.752ZM1320.42 179.218C1329.75 188.244 1335.23 202.324 1335.23 223.296H1355.23C1355.23 198.956 1348.81 178.86 1334.33 164.846L1320.42 179.218ZM1335.23 223.296V312H1355.23V223.296H1335.23ZM1345.23 302H1300.3V322H1345.23V302ZM1310.3 312V230.208H1290.3V312H1310.3ZM1310.3 230.208C1310.3 216.716 1307.39 204.7 1299.66 196.145L1284.82 209.551C1287.84 212.9 1290.3 219.124 1290.3 230.208H1310.3ZM1299.76 196.263C1292.04 187.431 1281.2 183.632 1268.91 183.632V203.632C1276.97 203.632 1281.69 205.977 1284.71 209.433L1299.76 196.263ZM1268.91 183.632C1255.31 183.632 1243.49 187.994 1234.57 197.416L1249.1 211.16C1253.63 206.374 1259.85 203.632 1268.91 203.632V183.632ZM1234.67 197.317C1225.47 206.774 1221.76 220.096 1221.76 235.392H1241.76C1241.76 223.04 1244.76 215.626 1249.01 211.259L1234.67 197.317ZM1221.76 235.392V312H1241.76V235.392H1221.76ZM1231.76 302H1186.83V322H1231.76V302ZM1196.83 312V157.056H1176.83V312H1196.83ZM1186.83 167.056H1229.74V147.056H1186.83V167.056ZM1219.74 157.056V175.2H1239.74V157.056H1219.74ZM1237.13 181.938C1241.97 176.626 1248.05 172.475 1255.56 169.536L1248.27 150.912C1238.12 154.885 1229.41 160.718 1222.35 168.462L1237.13 181.938ZM1255.74 169.467C1263.24 166.369 1271.62 164.752 1281.01 164.752V144.752C1269.27 144.752 1258.26 146.783 1248.1 150.981L1255.74 169.467ZM1503.75 172.032L1497.08 179.481L1497.11 179.509L1497.14 179.537L1503.75 172.032ZM1523.04 312V322H1533.04V312H1523.04ZM1480.99 312H1470.99V322H1480.99V312ZM1480.99 292.704H1490.99V255.896L1472.37 287.644L1480.99 292.704ZM1402.66 308.256L1398.43 317.318L1398.47 317.336L1398.51 317.353L1402.66 308.256ZM1382.79 291.552L1391.18 286.11L1391.18 286.11L1382.79 291.552ZM1392 233.376L1385.98 225.393L1385.95 225.419L1385.91 225.444L1392 233.376ZM1478.11 220.992V230.992H1488.11V220.992H1478.11ZM1469.19 198.528L1462.48 205.949L1462.55 206.01L1462.62 206.069L1469.19 198.528ZM1417.92 194.496L1420.95 204.028L1421.02 204.006L1421.09 203.983L1417.92 194.496ZM1397.76 204.864L1388.87 209.434L1394.43 220.267L1403.98 212.699L1397.76 204.864ZM1381.63 173.472L1375.88 165.297L1368.77 170.306L1372.74 178.042L1381.63 173.472ZM1411.87 159.648L1409.23 150.004L1409.21 150.009L1409.19 150.015L1411.87 159.648ZM1465.44 278.88L1470.46 287.528L1470.57 287.468L1470.67 287.406L1465.44 278.88ZM1478.11 263.04L1487.52 266.436L1488.11 264.79V263.04H1478.11ZM1478.11 247.2H1488.11V237.2H1478.11V247.2ZM1426.27 279.168L1420.11 287.043L1420.3 287.19L1420.49 287.328L1426.27 279.168ZM1448.45 164.752C1470.95 164.752 1486.65 170.148 1497.08 179.481L1510.42 164.582C1495.11 150.876 1473.95 144.752 1448.45 144.752V164.752ZM1497.14 179.537C1507.17 188.373 1513.04 202.377 1513.04 223.584H1533.04C1533.04 198.711 1526.05 178.347 1510.36 164.527L1497.14 179.537ZM1513.04 223.584V312H1533.04V223.584H1513.04ZM1523.04 302H1480.99V322H1523.04V302ZM1490.99 312V292.704H1470.99V312H1490.99ZM1472.37 287.644C1466.37 297.873 1454.77 304.304 1433.76 304.304V324.304C1458.84 324.304 1478.73 316.335 1489.62 297.764L1472.37 287.644ZM1433.76 304.304C1422.98 304.304 1414.08 302.477 1406.81 299.159L1398.51 317.353C1408.9 322.099 1420.74 324.304 1433.76 324.304V304.304ZM1406.89 299.194C1399.73 295.852 1394.64 291.449 1391.18 286.11L1374.4 296.994C1380.15 305.863 1388.31 312.596 1398.43 317.318L1406.89 299.194ZM1391.18 286.11C1387.69 280.735 1385.87 274.586 1385.87 267.36H1365.87C1365.87 278.182 1368.67 288.161 1374.4 296.994L1391.18 286.11ZM1385.87 267.36C1385.87 255.843 1389.98 247.538 1398.09 241.308L1385.91 225.444C1372.52 235.726 1365.87 250.077 1365.87 267.36H1385.87ZM1398.03 241.359C1406.43 235.022 1420.62 230.992 1442.4 230.992V210.992C1418.87 210.992 1399.47 215.218 1385.98 225.393L1398.03 241.359ZM1442.4 230.992H1478.11V210.992H1442.4V230.992ZM1488.11 220.992C1488.11 209.062 1484.4 198.515 1475.75 190.987L1462.62 206.069C1465.88 208.909 1468.11 213.338 1468.11 220.992H1488.11ZM1475.89 191.107C1467.38 183.425 1455.61 180.464 1442.4 180.464V200.464C1453 200.464 1459.09 202.879 1462.48 205.949L1475.89 191.107ZM1442.4 180.464C1433.04 180.464 1423.81 181.991 1414.76 185.009L1421.09 203.983C1428.16 201.625 1435.25 200.464 1442.4 200.464V180.464ZM1414.9 184.964C1406.05 187.768 1398.21 191.746 1391.55 197.029L1403.98 212.699C1408.45 209.15 1414.05 206.216 1420.95 204.028L1414.9 184.964ZM1406.66 200.294L1390.53 168.902L1372.74 178.042L1388.87 209.434L1406.66 200.294ZM1387.39 181.647C1394.76 176.458 1403.76 172.291 1414.56 169.281L1409.19 150.015C1396.57 153.533 1385.41 158.582 1375.88 165.297L1387.39 181.647ZM1414.52 169.292C1425.55 166.267 1436.85 164.752 1448.45 164.752V144.752C1435.09 144.752 1422.01 146.501 1409.23 150.004L1414.52 169.292ZM1444.99 294.064C1454.23 294.064 1462.82 291.969 1470.46 287.528L1460.42 270.232C1456.17 272.703 1451.12 274.064 1444.99 274.064V294.064ZM1470.67 287.406C1478.66 282.506 1484.3 275.362 1487.52 266.436L1468.71 259.644C1466.94 264.542 1464.13 267.958 1460.22 270.354L1470.67 287.406ZM1488.11 263.04V247.2H1468.11V263.04H1488.11ZM1478.11 237.2H1447.3V257.2H1478.11V237.2ZM1447.3 237.2C1437.31 237.2 1428.08 238.781 1421.08 243.376C1413.34 248.451 1409.65 256.315 1409.65 265.344H1429.65C1429.65 262.277 1430.57 261.069 1432.05 260.096C1434.26 258.643 1438.86 257.2 1447.3 257.2V237.2ZM1409.65 265.344C1409.65 274.082 1413.2 281.632 1420.11 287.043L1432.44 271.293C1430.52 269.792 1429.65 268.126 1429.65 265.344H1409.65ZM1420.49 287.328C1427.34 292.177 1435.84 294.064 1444.99 294.064V274.064C1438.4 274.064 1434.42 272.687 1432.05 271.008L1420.49 287.328ZM1704.25 172.032L1697.24 179.161L1697.27 179.19L1697.29 179.218L1704.25 172.032ZM1722.1 312V322H1732.1V312H1722.1ZM1677.18 312H1667.18V322H1677.18V312ZM1669.11 202.848L1661.59 209.433L1661.64 209.492L1661.69 209.551L1669.11 202.848ZM1618.71 204.288L1625.88 211.259L1625.93 211.21L1625.98 211.16L1618.71 204.288ZM1608.63 312V322H1618.63V312H1608.63ZM1563.7 312H1553.7V322H1563.7V312ZM1563.7 157.056V147.056H1553.7V157.056H1563.7ZM1606.62 157.056H1616.62V147.056H1606.62V157.056ZM1606.62 175.2H1596.62V201.01L1614.01 181.938L1606.62 175.2ZM1628.79 160.224L1632.44 169.536L1632.52 169.502L1632.61 169.467L1628.79 160.224ZM1657.88 164.752C1674.93 164.752 1687.71 169.79 1697.24 179.161L1711.26 164.903C1697.36 151.234 1679.23 144.752 1657.88 144.752V164.752ZM1697.29 179.218C1706.62 188.244 1712.1 202.324 1712.1 223.296H1732.1C1732.1 198.956 1725.68 178.86 1711.2 164.846L1697.29 179.218ZM1712.1 223.296V312H1732.1V223.296H1712.1ZM1722.1 302H1677.18V322H1722.1V302ZM1687.18 312V230.208H1667.18V312H1687.18ZM1687.18 230.208C1687.18 216.716 1684.26 204.7 1676.53 196.145L1661.69 209.551C1664.72 212.9 1667.18 219.124 1667.18 230.208H1687.18ZM1676.64 196.263C1668.91 187.431 1658.08 183.632 1645.78 183.632V203.632C1653.85 203.632 1658.56 205.977 1661.59 209.433L1676.64 196.263ZM1645.78 183.632C1632.18 183.632 1620.36 187.994 1611.45 197.416L1625.98 211.16C1630.51 206.374 1636.73 203.632 1645.78 203.632V183.632ZM1611.54 197.317C1602.35 206.774 1598.63 220.096 1598.63 235.392H1618.63C1618.63 223.04 1621.64 215.626 1625.88 211.259L1611.54 197.317ZM1598.63 235.392V312H1618.63V235.392H1598.63ZM1608.63 302H1563.7V322H1608.63V302ZM1573.7 312V157.056H1553.7V312H1573.7ZM1563.7 167.056H1606.62V147.056H1563.7V167.056ZM1596.62 157.056V175.2H1616.62V157.056H1596.62ZM1614.01 181.938C1618.85 176.626 1624.93 172.475 1632.44 169.536L1625.15 150.912C1614.99 154.885 1606.29 160.718 1599.23 168.462L1614.01 181.938ZM1632.61 169.467C1640.11 166.369 1648.49 164.752 1657.88 164.752V144.752C1646.15 144.752 1635.14 146.783 1624.98 150.981L1632.61 169.467ZM1862.77 304.512L1868.71 312.554L1874.82 308.04L1872.11 300.945L1862.77 304.512ZM1846.35 312L1848.71 321.719L1848.81 321.694L1848.91 321.667L1846.35 312ZM1783.28 300.192L1776.42 307.47L1776.45 307.502L1776.49 307.535L1783.28 300.192ZM1768.3 195.072H1778.3V185.072H1768.3V195.072ZM1744.4 195.072H1734.4V205.072H1744.4V195.072ZM1744.4 160.512V150.512H1734.4V160.512H1744.4ZM1768.3 160.512V170.512H1778.3V160.512H1768.3ZM1768.3 122.784V112.784H1758.3V122.784H1768.3ZM1813.23 122.784H1823.23V112.784H1813.23V122.784ZM1813.23 160.512H1803.23V170.512H1813.23V160.512ZM1851.82 160.512H1861.82V150.512H1851.82V160.512ZM1851.82 195.072V205.072H1861.82V195.072H1851.82ZM1813.23 195.072V185.072H1803.23V195.072H1813.23ZM1818.13 273.408L1810.67 280.076L1810.86 280.283L1811.05 280.479L1818.13 273.408ZM1850.67 272.832L1860.01 269.265L1855.22 256.715L1844.57 264.906L1850.67 272.832ZM1856.82 296.47C1853.63 298.833 1849.37 300.856 1843.79 302.333L1848.91 321.667C1856.39 319.688 1863.07 316.719 1868.71 312.554L1856.82 296.47ZM1843.99 302.281C1838.49 303.615 1832.57 304.304 1826.19 304.304V324.304C1834.02 324.304 1841.53 323.457 1848.71 321.719L1843.99 302.281ZM1826.19 304.304C1809.43 304.304 1797.85 300.049 1790.07 292.849L1776.49 307.535C1789.05 319.151 1806.09 324.304 1826.19 324.304V304.304ZM1790.14 292.914C1782.76 285.96 1778.3 275.153 1778.3 258.72H1758.3C1758.3 278.767 1763.83 295.608 1776.42 307.47L1790.14 292.914ZM1778.3 258.72V195.072H1758.3V258.72H1778.3ZM1768.3 185.072H1744.4V205.072H1768.3V185.072ZM1754.4 195.072V160.512H1734.4V195.072H1754.4ZM1744.4 170.512H1768.3V150.512H1744.4V170.512ZM1778.3 160.512V122.784H1758.3V160.512H1778.3ZM1768.3 132.784H1813.23V112.784H1768.3V132.784ZM1803.23 122.784V160.512H1823.23V122.784H1803.23ZM1813.23 170.512H1851.82V150.512H1813.23V170.512ZM1841.82 160.512V195.072H1861.82V160.512H1841.82ZM1851.82 185.072H1813.23V205.072H1851.82V185.072ZM1803.23 195.072V258.144H1823.23V195.072H1803.23ZM1803.23 258.144C1803.23 266.298 1805.29 274.056 1810.67 280.076L1825.58 266.74C1824.44 265.464 1823.23 263.046 1823.23 258.144H1803.23ZM1811.05 280.479C1816.84 286.264 1824.45 288.592 1832.53 288.592V268.592C1828.32 268.592 1826.32 267.464 1825.2 266.337L1811.05 280.479ZM1832.53 288.592C1841.54 288.592 1849.81 286.113 1856.77 280.758L1844.57 264.906C1841.55 267.231 1837.72 268.592 1832.53 268.592V288.592ZM1841.33 276.399L1853.42 308.079L1872.11 300.945L1860.01 269.265L1841.33 276.399Z" fill="black"/>
</svg>
