<svg width="1893" height="389" viewBox="0 0 1893 389" fill="none" xmlns="http://www.w3.org/2000/svg">
<path d="M11.8591 157.666C30.0655 89.7183 82.3071 36.8653 154.059 6.11298C190.554 54.6066 210.205 108.769 208.427 162.209C193.889 166.656 179.014 172.671 165.194 180.648C104.334 215.054 67.3889 277.892 54.4636 353.472C11.2072 292.52 -5.7155 223.255 11.8591 157.666ZM266.995 357.019C209.212 390.38 139.638 391.365 70.6771 365.87C140.821 333.784 193.446 280.417 211.97 211.285C215.662 197.505 217.727 183.363 218.937 169.114C267.534 156.375 321.435 161.866 374.097 183.352C363.019 259.45 326.911 322.426 266.995 357.019ZM170.174 189.32C182.356 182.286 195.507 176.815 208.573 172.64C207.36 184.976 205.437 197.028 202.311 208.697C184.507 275.141 133.314 326.963 63.8498 357.982C75.9625 283.265 111.793 222.316 170.134 189.342L170.154 189.331L170.174 189.32Z" fill="#F8F9FA" stroke="black" stroke-width="10"/>
<path d="M169.549 189.627L169.569 189.615L169.589 189.604C181.771 182.571 194.922 177.099 207.988 172.924C206.775 185.26 204.852 197.312 201.725 208.981C183.922 275.425 132.729 327.247 63.2647 358.266C75.3774 283.549 111.208 222.6 169.549 189.627Z" fill="#FCB800" stroke="black" stroke-width="10"/>
<path d="M430.904 110.4H477.56V273.984H578.648V312H430.904V110.4ZM756.52 157.056V312H713.896V293.568C707.944 300.288 700.84 305.472 692.584 309.12C684.328 312.576 675.4 314.304 665.8 314.304C645.448 314.304 629.32 308.448 617.416 296.736C605.512 285.024 599.56 267.648 599.56 244.608V157.056H644.488V237.984C644.488 262.944 654.952 275.424 675.88 275.424C686.632 275.424 695.272 271.968 701.8 265.056C708.328 257.952 711.592 247.488 711.592 233.664V157.056H756.52ZM996.574 154.752C1015.97 154.752 1031.33 160.512 1042.65 172.032C1054.17 183.36 1059.93 200.448 1059.93 223.296V312H1015.01V230.208C1015.01 217.92 1012.41 208.8 1007.23 202.848C1002.24 196.704 995.038 193.632 985.63 193.632C975.07 193.632 966.718 197.088 960.574 204C954.43 210.72 951.358 220.8 951.358 234.24V312H906.43V230.208C906.43 205.824 896.638 193.632 877.054 193.632C866.686 193.632 858.43 197.088 852.286 204C846.142 210.72 843.07 220.8 843.07 234.24V312H798.142V157.056H841.054V174.912C846.814 168.384 853.822 163.392 862.078 159.936C870.526 156.48 879.742 154.752 889.726 154.752C900.67 154.752 910.558 156.96 919.39 161.376C928.222 165.6 935.326 171.84 940.702 180.096C947.038 172.032 955.006 165.792 964.606 161.376C974.398 156.96 985.054 154.752 996.574 154.752ZM1100.2 157.056H1145.13V312H1100.2V157.056ZM1122.67 135.456C1114.41 135.456 1107.69 133.056 1102.51 128.256C1097.32 123.456 1094.73 117.504 1094.73 110.4C1094.73 103.296 1097.32 97.344 1102.51 92.544C1107.69 87.744 1114.41 85.344 1122.67 85.344C1130.92 85.344 1137.64 87.648 1142.83 92.256C1148.01 96.864 1150.6 102.624 1150.6 109.536C1150.6 117.024 1148.01 123.264 1142.83 128.256C1137.64 133.056 1130.92 135.456 1122.67 135.456ZM1281.01 154.752C1300.21 154.752 1315.66 160.512 1327.37 172.032C1339.28 183.552 1345.23 200.64 1345.23 223.296V312H1300.3V230.208C1300.3 217.92 1297.61 208.8 1292.24 202.848C1286.86 196.704 1279.09 193.632 1268.91 193.632C1257.58 193.632 1248.56 197.184 1241.84 204.288C1235.12 211.2 1231.76 221.568 1231.76 235.392V312H1186.83V157.056H1229.74V175.2C1235.69 168.672 1243.09 163.68 1251.92 160.224C1260.75 156.576 1270.45 154.752 1281.01 154.752ZM1448.45 154.752C1472.45 154.752 1490.88 160.512 1503.75 172.032C1516.61 183.36 1523.04 200.544 1523.04 223.584V312H1480.99V292.704C1472.55 307.104 1456.8 314.304 1433.76 314.304C1421.86 314.304 1411.49 312.288 1402.66 308.256C1394.02 304.224 1387.39 298.656 1382.79 291.552C1378.18 284.448 1375.87 276.384 1375.87 267.36C1375.87 252.96 1381.25 241.632 1392 233.376C1402.95 225.12 1419.75 220.992 1442.4 220.992H1478.11C1478.11 211.2 1475.14 203.712 1469.19 198.528C1463.23 193.152 1454.31 190.464 1442.4 190.464C1434.15 190.464 1425.99 191.808 1417.92 194.496C1410.05 196.992 1403.33 200.448 1397.76 204.864L1381.63 173.472C1390.08 167.52 1400.16 162.912 1411.87 159.648C1423.78 156.384 1435.97 154.752 1448.45 154.752ZM1444.99 284.064C1452.67 284.064 1459.49 282.336 1465.44 278.88C1471.39 275.232 1475.62 269.952 1478.11 263.04V247.2H1447.3C1428.87 247.2 1419.65 253.248 1419.65 265.344C1419.65 271.104 1421.86 275.712 1426.27 279.168C1430.88 282.432 1437.12 284.064 1444.99 284.064ZM1657.88 154.752C1677.08 154.752 1692.54 160.512 1704.25 172.032C1716.15 183.552 1722.1 200.64 1722.1 223.296V312H1677.18V230.208C1677.18 217.92 1674.49 208.8 1669.11 202.848C1663.74 196.704 1655.96 193.632 1645.78 193.632C1634.46 193.632 1625.43 197.184 1618.71 204.288C1611.99 211.2 1608.63 221.568 1608.63 235.392V312H1563.7V157.056H1606.62V175.2C1612.57 168.672 1619.96 163.68 1628.79 160.224C1637.62 156.576 1647.32 154.752 1657.88 154.752ZM1862.77 304.512C1858.35 307.776 1852.88 310.272 1846.35 312C1840.01 313.536 1833.29 314.304 1826.19 314.304C1807.76 314.304 1793.45 309.6 1783.28 300.192C1773.29 290.784 1768.3 276.96 1768.3 258.72V195.072H1744.4V160.512H1768.3V122.784H1813.23V160.512H1851.82V195.072H1813.23V258.144C1813.23 264.672 1814.86 269.76 1818.13 273.408C1821.58 276.864 1826.38 278.592 1832.53 278.592C1839.63 278.592 1845.68 276.672 1850.67 272.832L1862.77 304.512Z" fill="white"/>
</svg>
