<svg width="165" height="158" viewBox="0 0 165 158" fill="none" xmlns="http://www.w3.org/2000/svg">
<path d="M46.0638 0C44.73 0 43.5905 0.982342 43.3567 2.33098L41.7776 11.4621L2.76702 11.2857H2.7509C1.8709 11.2857 1.04426 11.7149 0.52725 12.4485C0.00474578 13.1848 -0.139974 14.131 0.140528 14.9944L7.44528 37.5658C7.81928 38.7197 8.87039 39.5 10.0557 39.5H34.779L37.1047 45.1429H11.001C9.48021 45.1429 8.25095 46.4069 8.25095 47.9643C8.25095 49.5217 9.48021 50.7857 11.001 50.7857H41.2512C42.1725 50.7857 43.0306 50.3138 43.5393 49.5238C44.0509 48.7366 44.1467 47.734 43.7864 46.8622L40.7517 39.5H41.117C42.4975 39.5 43.6668 38.45 43.8455 37.0478L46.4774 16.6034L48.368 5.64286H59.8139C61.3347 5.64286 62.5639 4.37886 62.5639 2.82143C62.5639 1.264 61.3347 0 59.8139 0H46.0638ZM141.627 0C134.804 0 129.252 4.56895 129.252 10.1836V14.1071H126.728C125.298 14.1071 124.112 15.2328 123.994 16.6971L121.013 53.3757C120.949 54.1629 121.21 54.9381 121.727 55.5193C122.247 56.1005 122.985 56.4286 123.752 56.4286H159.502C160.27 56.4286 161.007 56.1005 161.527 55.5193C162.047 54.9381 162.305 54.1629 162.242 53.3757L159.261 16.6971C159.142 15.2328 157.959 14.1071 156.527 14.1071H154.002V10.1836C154.002 4.56895 148.45 0 141.627 0ZM141.627 5.64286C145.29 5.64286 148.502 7.76563 148.502 10.1836V14.1071H134.752V10.1836C134.752 7.76563 137.964 5.64286 141.627 5.64286ZM6.56978 16.9451L40.8645 17.1049L38.7053 33.8571H12.043L6.56978 16.9451ZM129.263 19.75H153.992L156.511 50.7857H126.744L129.263 19.75ZM112.752 45.2641C112.049 45.2641 111.345 45.5391 110.808 46.0907L94.0764 63.2562C90.8499 60.7525 86.8487 59.25 82.5016 59.25C78.1545 59.25 74.1533 60.7525 70.9268 63.2562L54.3353 46.234C53.2601 45.1308 51.5219 45.1308 50.4466 46.234C49.3714 47.3371 49.3714 49.1205 50.4466 50.2236L67.0596 67.2679C64.681 70.5537 63.2514 74.6019 63.2514 79C63.2514 83.4577 64.7177 87.5604 67.1563 90.8698L50.307 108.162C49.2317 109.265 49.2317 111.049 50.307 112.152C50.8432 112.702 51.542 112.978 52.246 112.978C52.95 112.978 53.6541 112.702 54.1903 112.152L71.0611 94.843C74.2645 97.2849 78.2144 98.75 82.5016 98.75C86.7861 98.75 90.7344 97.2876 93.9368 94.8485L110.668 112.014C111.204 112.564 111.908 112.841 112.612 112.841C113.316 112.841 114.02 112.564 114.557 112.014C115.632 110.911 115.632 109.128 114.557 108.024L97.8416 90.8753C100.283 87.5649 101.752 83.4605 101.752 79C101.752 74.6019 100.322 70.5537 97.9436 67.2679L114.696 50.0804C115.771 48.9772 115.771 47.1939 114.696 46.0907C114.159 45.5391 113.455 45.2641 112.752 45.2641ZM17.876 53.6071C16.782 53.6071 15.7328 54.053 14.9592 54.8467C14.1856 55.6404 13.751 56.7169 13.751 57.8393C13.751 58.9617 14.1856 60.0382 14.9592 60.8319C15.7328 61.6255 16.782 62.0714 17.876 62.0714C18.9701 62.0714 20.0193 61.6255 20.7929 60.8319C21.5665 60.0382 22.0011 58.9617 22.0011 57.8393C22.0011 56.7169 21.5665 55.6404 20.7929 54.8467C20.0193 54.053 18.9701 53.6071 17.876 53.6071ZM37.1262 53.6071C36.0322 53.6071 34.983 54.053 34.2094 54.8467C33.4358 55.6404 33.0012 56.7169 33.0012 57.8393C33.0012 58.9617 33.4358 60.0382 34.2094 60.8319C34.983 61.6255 36.0322 62.0714 37.1262 62.0714C38.2202 62.0714 39.2695 61.6255 40.043 60.8319C40.8166 60.0382 41.2512 58.9617 41.2512 57.8393C41.2512 56.7169 40.8166 55.6404 40.043 54.8467C39.2695 54.053 38.2202 53.6071 37.1262 53.6071ZM82.5016 64.8929C90.0834 64.8929 96.2517 71.2213 96.2517 79C96.2517 86.7787 90.0834 93.1071 82.5016 93.1071C74.9198 93.1071 68.7515 86.7787 68.7515 79C68.7515 71.2213 74.9198 64.8929 82.5016 64.8929ZM129.252 112.857C127.731 112.857 126.502 114.121 126.502 115.679V124.143H118.252C117.457 124.143 116.701 124.495 116.179 125.107C115.656 125.719 115.424 126.538 115.529 127.345L119.256 155.559C119.441 156.958 120.61 158 121.985 158H158.519C159.894 158 161.061 156.958 161.248 155.559L164.975 127.345C165.08 126.538 164.848 125.719 164.326 125.107C163.803 124.495 163.047 124.143 162.252 124.143H154.002V115.679C154.002 114.121 152.773 112.857 151.252 112.857H129.252ZM2.7509 115.679C1.23014 115.679 0.000878552 116.943 0.000878552 118.5V129.786C0.000878552 131.343 1.23014 132.607 2.7509 132.607V155.179C2.7509 156.736 3.98016 158 5.50093 158H44.0013C45.522 158 46.7513 156.736 46.7513 155.179V132.607C48.2721 132.607 49.5013 131.343 49.5013 129.786V118.5C49.5013 116.943 48.2721 115.679 46.7513 115.679H2.7509ZM132.002 118.5H148.502V124.143H132.002V118.5ZM5.50093 121.321H44.0013V126.964H5.50093V121.321ZM121.399 129.786H159.105L156.118 152.357H124.386L121.399 129.786ZM8.25095 132.607H41.2512V152.357H8.25095V132.607ZM22.0011 135.429C20.4803 135.429 19.251 136.693 19.251 138.25C19.251 139.807 20.4803 141.071 22.0011 141.071H27.5011C29.0219 141.071 30.2511 139.807 30.2511 138.25C30.2511 136.693 29.0219 135.429 27.5011 135.429H22.0011ZM129.252 135.429C127.731 135.429 126.502 136.693 126.502 138.25V143.893C126.502 145.45 127.731 146.714 129.252 146.714C130.773 146.714 132.002 145.45 132.002 143.893V138.25C132.002 136.693 130.773 135.429 129.252 135.429ZM140.252 135.429C138.731 135.429 137.502 136.693 137.502 138.25V143.893C137.502 145.45 138.731 146.714 140.252 146.714C141.773 146.714 143.002 145.45 143.002 143.893V138.25C143.002 136.693 141.773 135.429 140.252 135.429ZM151.252 135.429C149.731 135.429 148.502 136.693 148.502 138.25V143.893C148.502 145.45 149.731 146.714 151.252 146.714C152.773 146.714 154.002 145.45 154.002 143.893V138.25C154.002 136.693 152.773 135.429 151.252 135.429Z" fill="#FCB800"/>
</svg>
