<?xml version="1.0" encoding="UTF-8"?>
<svg xmlns="http://www.w3.org/2000/svg" xmlns:xlink="http://www.w3.org/1999/xlink" viewBox="0 0 144 144" width="144px" height="144px">
<g id="surface114224769">
<path style=" stroke:none;fill-rule:nonzero;fill:rgb(100%,100%,100%);fill-opacity:1;" d="M 15 57 L 129 57 L 129 84 L 15 84 Z M 15 57 "/>
<path style=" stroke:none;fill-rule:nonzero;fill:rgb(56.470591%,64.313728%,68.235296%);fill-opacity:1;" d="M 27 84 L 39 84 L 39 126 L 27 126 Z M 105 84 L 117 84 L 117 126 L 105 126 Z M 105 84 "/>
<path style=" stroke:none;fill-rule:nonzero;fill:rgb(32.941177%,43.137255%,47.843137%);fill-opacity:1;" d="M 39 102 L 105 102 L 105 108 L 39 108 Z M 39 102 "/>
<path style=" stroke:none;fill-rule:nonzero;fill:rgb(100%,23.921569%,0%);fill-opacity:1;" d="M 123 63 L 123 78 L 21 78 L 21 63 L 123 63 M 129 57 L 15 57 L 15 84 L 129 84 Z M 129 57 "/>
<path style=" stroke:none;fill-rule:nonzero;fill:rgb(100%,23.921569%,0%);fill-opacity:1;" d="M 86.003906 81 L 99.066406 61.402344 L 96.960938 60 L 85.582031 60 L 71.578125 81 Z M 59 81 L 72.066406 61.402344 L 69.964844 60 L 58.582031 60 L 44.578125 81 Z M 32.421875 81 L 45.484375 61.402344 L 43.378906 60 L 32 60 L 18 81 Z M 123 60 L 112.582031 60 L 98.578125 81 L 113.003906 81 L 123 66.007812 Z M 72 15 C 60.402344 15 51 24.402344 51 36 C 51 47.597656 60.402344 57 72 57 C 83.597656 57 93 47.597656 93 36 C 93 24.402344 83.597656 15 72 15 Z M 72 15 "/>
<path style=" stroke:none;fill-rule:nonzero;fill:rgb(100%,100%,100%);fill-opacity:1;" d="M 60 33 L 84 33 L 84 39 L 60 39 Z M 60 33 "/>
</g>
</svg>
