<svg width="160" height="160" viewBox="0 0 160 160" fill="none" xmlns="http://www.w3.org/2000/svg">
<path d="M12.4054 102C6.66578 102 2 97.512 2 92V52C2 46.488 6.66578 42 12.4054 42H26.973V34H131.023L131.027 42H145.595C151.334 42 156 46.488 156 52V92C156 97.512 151.334 102 145.595 102H12.4054Z" fill="#B0C1D4"/>
<path d="M130.526 36V40V44H134.737H147.368C152.013 44 155.789 47.588 155.789 52V92C155.789 96.412 152.013 100 147.368 100H12.6316C7.98737 100 4.21053 96.412 4.21053 92V52C4.21053 47.588 7.98737 44 12.6316 44H25.2632H29.4737V40V36H130.526ZM134.733 32H25.2632V40H12.6316C5.65474 40 0 45.372 0 52V92C0 98.628 5.65474 104 12.6316 104H147.368C154.345 104 160 98.628 160 92V52C160 45.372 154.345 40 147.368 40H134.737L134.733 32Z" fill="#66798F"/>
<path d="M34 6H126V42H34V6Z" fill="white"/>
<path d="M124 8V40H36V8H124ZM128 4H32V44H128V4Z" fill="#788B9C"/>
<path d="M18.3441 157.75C13.8321 157.75 10.1241 153.939 9.71611 148.881L2.36011 99.2505H157.636L150.236 148.714C149.808 153.939 146.096 157.75 141.584 157.75H18.3441Z" fill="#B0C1D4"/>
<path d="M155.272 101.5L148.264 148.341L148.24 148.512L148.228 148.683C147.912 152.566 145.056 155.5 141.588 155.5H18.344C14.872 155.5 12.02 152.566 11.704 148.678L11.692 148.512L11.668 148.345L4.724 101.5H155.272ZM160 97H0L7.724 149.088C8.22 155.266 12.828 160 18.344 160H141.584C147.1 160 151.708 155.266 152.208 149.088L160 97Z" fill="#66798F"/>
<path d="M20 74H140V97H20V74Z" fill="#66798F"/>
</svg>
