<svg width="165" height="158" viewBox="0 0 165 158" fill="none" xmlns="http://www.w3.org/2000/svg">
<path d="M114.51 0C112.519 0 110.903 1.50604 110.903 3.3617V57.1489H118.116V3.3617C118.116 1.50604 116.5 0 114.51 0ZM93.9696 4.24152C92.0149 4.60459 90.7484 6.37547 91.1379 8.19415L101.626 57.1489H108.98L98.21 6.88098C97.8205 5.05894 95.9171 3.8751 93.9696 4.24152ZM135.049 4.24152C133.095 3.87846 131.195 5.05894 130.809 6.88098L120.039 57.1489H127.393L137.881 8.19415C138.271 6.37211 137.004 4.60459 135.049 4.24152ZM94.1034 63.8723C89.4402 63.8723 85.6578 67.3981 85.6578 71.7448V76.1701C85.6578 80.5168 89.4402 84.0426 94.1034 84.0426H107.388L110.833 100.129L106.353 121.021H101.598C99.3909 124.111 96.5414 126.704 93.2018 128.657C95.0735 132.994 95.6895 137.725 94.8853 142.459C94.2093 146.44 92.5676 150.123 90.1588 153.332C88.8985 155.022 87.4348 156.584 85.7494 157.967C85.9585 157.974 86.1635 158 86.3763 158H142.643C154.973 158 165 148.954 165 137.83V110.936C165 99.8123 154.973 90.766 142.643 90.766H136.148V83.9309C140.221 83.3693 143.361 80.1224 143.361 76.1701V71.7448C143.361 67.3981 139.579 63.8723 134.916 63.8723H94.1034ZM49.2128 68.0745C38.0976 68.0745 29.0602 76.5051 29.0602 86.8659C29.0602 87.871 29.2712 88.9888 29.5885 90.1553C28.4958 89.5133 27.4219 88.9807 26.3976 88.6715C24.3708 88.0563 22.2736 87.7457 20.1638 87.7457C11.4109 87.7457 3.70588 92.9673 0.997429 100.733C-0.665152 105.507 -0.239645 110.595 2.20193 115.066C4.64351 119.537 8.81585 122.86 13.937 124.409C14.9504 124.715 16.1534 124.87 17.459 124.954C16.4672 125.724 15.5895 126.508 14.9584 127.318C11.7955 131.379 10.5116 136.348 11.3519 141.303C12.1922 146.265 15.0606 150.623 19.4172 153.568C22.883 155.918 26.9702 157.153 31.2438 157.153C37.685 157.153 43.792 154.26 47.5715 149.405C48.2063 148.592 48.7331 147.573 49.2128 146.457C49.6924 147.577 50.2263 148.595 50.861 149.405C54.6442 154.256 60.7442 157.153 67.1817 157.153C71.4554 157.153 75.5496 155.918 79.0154 153.568C83.372 150.62 86.2333 146.258 87.0736 141.303C87.9139 136.348 86.6371 131.382 83.4742 127.324C82.8394 126.511 81.9619 125.724 80.9666 124.954C82.2721 124.87 83.4751 124.715 84.4885 124.409C89.6097 122.86 93.7784 119.537 96.2236 115.066C98.6688 110.595 99.0977 105.507 97.4352 100.733C94.7267 92.964 87.0217 87.7457 78.2688 87.7457C76.159 87.7457 74.0618 88.0596 72.0349 88.6715C71.0107 88.9807 69.9368 89.5133 68.844 90.1553C69.165 88.9888 69.3723 87.8676 69.3723 86.8659C69.3723 76.5051 60.3279 68.0745 49.2128 68.0745ZM121.631 84.0426H128.935V90.766C128.935 94.4739 132.232 97.4894 136.289 97.4894H142.643C150.995 97.4894 157.787 103.52 157.787 110.936V121.021H122.666L118.186 100.122L121.631 84.0426ZM49.2128 92.4008C52.2242 92.4008 54.6647 94.6791 54.6647 97.4828C54.6683 100.293 49.2128 111.317 49.2128 111.317C49.2128 111.317 43.7608 100.29 43.7608 97.4828C43.7608 94.6758 46.2014 92.4008 49.2128 92.4008ZM30.4831 104.784C31.1892 104.727 31.9217 104.797 32.6385 105.014C35.5057 105.881 45.0639 114.127 45.0639 114.127C45.0639 114.127 32.1316 115.556 29.2645 114.685C26.401 113.818 24.8332 110.956 25.7637 108.284C26.4616 106.282 28.3647 104.954 30.4831 104.784ZM67.9424 104.791C70.0603 104.961 71.971 106.282 72.6689 108.284C73.5993 110.953 72.0352 113.821 69.1681 114.685C66.3045 115.553 53.3616 114.127 53.3616 114.127C53.3616 114.127 62.9305 105.888 65.7941 105.02C66.5099 104.804 67.2365 104.734 67.9424 104.791ZM46.6558 118.677C46.6558 118.677 44.1087 130.59 42.3379 132.859C40.5672 135.132 37.1579 135.633 34.7235 133.982C32.2855 132.332 31.7482 129.154 33.519 126.885C35.2898 124.612 46.6558 118.677 46.6558 118.677ZM51.7838 118.677C51.7838 118.677 63.1498 124.605 64.9206 126.878C66.6914 129.151 66.147 132.332 63.7091 133.982C61.2711 135.633 57.8654 135.132 56.0946 132.859C54.3239 130.587 51.7838 118.677 51.7838 118.677Z" fill="#FCB800"/>
</svg>
