<svg width="134" height="131" viewBox="0 0 134 131" fill="none" xmlns="http://www.w3.org/2000/svg">
<path d="M0.6875 0.625V28.5625H6.11682L14.5356 99.8068C15.2861 106.856 21.7844 112.375 29.3289 112.375H49.2621C47.8895 109.414 46.8145 106.303 46.1183 103.062H29.3289C26.8799 103.062 24.6093 101.143 24.3624 98.8519L16.04 28.5625H93.96L91.3562 47.333C92.398 47.2725 93.4384 47.1875 94.5 47.1875C96.7959 47.1875 99.0288 47.3855 101.241 47.6695L103.883 28.5625H109.312V0.625H0.6875ZM10.5625 9.9375H99.4375V19.25H10.5625V9.9375ZM55 56.5V84.4375H84.625V75.125H72.5513C77.9726 69.4397 85.7705 65.8125 94.5 65.8125C110.838 65.8125 124.125 78.3425 124.125 93.75H134C134 73.2113 116.279 56.5 94.5 56.5C82.6698 56.5 72.1134 61.4828 64.875 69.2774V56.5H55ZM55 93.75C55 114.289 72.7207 131 94.5 131C106.33 131 116.887 126.017 124.125 118.223V131H134V103.062H104.375V112.375H116.449C111.027 118.06 103.229 121.688 94.5 121.688C78.1618 121.688 64.875 109.158 64.875 93.75H55Z" fill="#FCB800"/>
</svg>
