<svg xmlns="http://www.w3.org/2000/svg"  viewBox="0 0 80 80" width="160px" height="160px"><path fill="#e1ebf2" d="M2.5 77.5L2.5 26.27 40 2.59 77.5 26.27 77.5 77.5 2.5 77.5z"/><path fill="#66798f" d="M40,3.18,77,26.55V77H3V26.55L40,3.18M40,2,2,26V78H78V26L40,2Z"/><path fill="#a3b7cc" d="M10.5 54.5H69.5V69.5H10.5z"/><path fill="#66798f" d="M69,55V69H11V55H69m1-1H10V70H70V54Z"/><path fill="#a3b7cc" d="M10.5 34.5H69.5V49.5H10.5z"/><path fill="#66798f" d="M69,35V49H11V35H69m1-1H10V50H70V34Z"/><path fill="#bae0bd" d="M20 38.5A3.5 3.5 0 1 0 20 45.5A3.5 3.5 0 1 0 20 38.5Z"/><path fill="#5e9c76" d="M20,39a3,3,0,1,1-3,3,3,3,0,0,1,3-3m0-1a4,4,0,1,0,4,4,4,4,0,0,0-4-4Z"/><path fill="#bae0bd" d="M20 58.5A3.5 3.5 0 1 0 20 65.5A3.5 3.5 0 1 0 20 58.5Z"/><path fill="#5e9c76" d="M20,59a3,3,0,1,1-3,3,3,3,0,0,1,3-3m0-1a4,4,0,1,0,4,4,4,4,0,0,0-4-4Z"/></svg>